<?xml version="1.0" encoding="utf-8"?>
<!-- Generator: Adobe Illustrator 22.1.0, SVG Export Plug-In . SVG Version: 6.00 Build 0)  -->
<svg version="1.1" id="Layer_1" xmlns="http://www.w3.org/2000/svg" xmlns:xlink="http://www.w3.org/1999/xlink" x="0px" y="0px"
	 viewBox="0 0 800 1280" style="enable-background:new 0 0 800 1280;" xml:space="preserve">
<style type="text/css">
	.st0{fill:#FFFFFF;stroke:#000000;stroke-miterlimit:10;}
</style>
<circle class="st0" cx="382.2" cy="142.8" r="115.4"/>
<path class="st0" d="M440.2,776.1H324.1c-27.5,0-50-22.5-50-50V375.2c0-27.5,22.5-50,50-50h116.1c27.5,0,50,22.5,50,50v350.9
	C490.2,753.6,467.7,776.1,440.2,776.1z"/>
<path class="st0" d="M468.6,767.2V1195c0,23.8-19.5,57.6-43.2,57.6h-86.4c-23.8,0-43.2-19.4-43.2-43.2V767.2"/>
<path class="st0" d="M468.6,1195h68.3c14.9,0,27,12.2,27,27l0,0c0,14.9-12.2,27-27,29.2l-168.7,1.2"/>
</svg>
