<?xml version="1.0" encoding="UTF-8" standalone="no"?><svg xmlns="http://www.w3.org/2000/svg" xmlns:xlink="http://www.w3.org/1999/xlink" contentScriptType="application/ecmascript" contentStyleType="text/css" height="893px" preserveAspectRatio="none" style="width:1574px;height:893px;" version="1.1" viewBox="0 0 1574 893" width="1574px" zoomAndPan="magnify"><defs><filter height="300%" id="fcdo2i12ol6ev" width="300%" x="-1" y="-1"><feGaussianBlur result="blurOut" stdDeviation="2.0"/><feColorMatrix in="blurOut" result="blurOut2" type="matrix" values="0 0 0 0 0 0 0 0 0 0 0 0 0 0 0 0 0 0 .4 0"/><feOffset dx="4.0" dy="4.0" in="blurOut2" result="blurOut3"/><feBlend in="SourceGraphic" in2="blurOut3" mode="normal"/></filter></defs><g><!--cluster nodejs.owa--><polygon fill="#FFFFFF" filter="url(#fcdo2i12ol6ev)" points="379,16,465,16,472,38.4883,1407,38.4883,1407,626,379,626,379,16" style="stroke: #000000; stroke-width: 1.5;"/><line style="stroke: #000000; stroke-width: 1.5;" x1="379" x2="472" y1="38.4883" y2="38.4883"/><text fill="#000000" font-family="sans-serif" font-size="14" font-weight="bold" lengthAdjust="spacingAndGlyphs" textLength="80" x="383" y="31.5352">nodejs.owa</text><!--cluster nodejs.owa.gui--><polygon fill="#FFFFFF" filter="url(#fcdo2i12ol6ev)" points="485,100,514,100,521,122.4883,633,122.4883,633,196,485,196,485,100" style="stroke: #000000; stroke-width: 1.5;"/><line style="stroke: #000000; stroke-width: 1.5;" x1="485" x2="521" y1="122.4883" y2="122.4883"/><text fill="#000000" font-family="sans-serif" font-size="14" font-weight="bold" lengthAdjust="spacingAndGlyphs" textLength="23" x="489" y="115.5352">gui</text><!--cluster redux--><polygon fill="#FFFFFF" filter="url(#fcdo2i12ol6ev)" points="875,670.5,921,670.5,928,692.9883,953,692.9883,953,753.5,875,753.5,875,670.5" style="stroke: #000000; stroke-width: 1.5;"/><line style="stroke: #000000; stroke-width: 1.5;" x1="875" x2="928" y1="692.9883" y2="692.9883"/><text fill="#000000" font-family="sans-serif" font-size="14" font-weight="bold" lengthAdjust="spacingAndGlyphs" textLength="40" x="879" y="686.0352">redux</text><!--cluster quarks.owa--><polygon fill="#FFFFFF" filter="url(#fcdo2i12ol6ev)" points="14,491,101,491,108,513.4883,371,513.4883,371,773,14,773,14,491" style="stroke: #000000; stroke-width: 1.5;"/><line style="stroke: #000000; stroke-width: 1.5;" x1="14" x2="108" y1="513.4883" y2="513.4883"/><text fill="#000000" font-family="sans-serif" font-size="14" font-weight="bold" lengthAdjust="spacingAndGlyphs" textLength="81" x="18" y="506.5352">quarks.owa</text><!--cluster quarks.supercollider_redux--><polygon fill="#FFFFFF" filter="url(#fcdo2i12ol6ev)" points="177,798,376,798,383,820.4883,559,820.4883,559,881,177,881,177,798" style="stroke: #000000; stroke-width: 1.5;"/><line style="stroke: #000000; stroke-width: 1.5;" x1="177" x2="383" y1="820.4883" y2="820.4883"/><text fill="#000000" font-family="sans-serif" font-size="14" font-weight="bold" lengthAdjust="spacingAndGlyphs" textLength="193" x="181" y="813.5352">quarks.supercollider_redux</text><!--class nodejs.owa.OWAController--><rect fill="#FEFECE" filter="url(#fcdo2i12ol6ev)" height="229.3711" id="nodejs.owa.OWAController" style="stroke: #A80036; stroke-width: 1.5;" width="366" x="684" y="43"/><ellipse cx="821.25" cy="59" fill="#ADD1B2" rx="11" ry="11" style="stroke: #A80036; stroke-width: 1.0;"/><path d="M824.2231,64.6431 Q823.6421,64.9419 823.0029,65.0913 Q822.3638,65.2407 821.6582,65.2407 Q819.1514,65.2407 817.8315,63.5889 Q816.5117,61.937 816.5117,58.8159 Q816.5117,55.6865 817.8315,54.0347 Q819.1514,52.3828 821.6582,52.3828 Q822.3638,52.3828 823.0112,52.5322 Q823.6587,52.6816 824.2231,52.9805 L824.2231,55.7031 Q823.5923,55.1221 822.9988,54.8523 Q822.4053,54.5825 821.7744,54.5825 Q820.4297,54.5825 819.7449,55.6492 Q819.0601,56.7158 819.0601,58.8159 Q819.0601,60.9077 819.7449,61.9744 Q820.4297,63.041 821.7744,63.041 Q822.4053,63.041 822.9988,62.7712 Q823.5923,62.5015 824.2231,61.9204 Z "/><text fill="#000000" font-family="sans-serif" font-size="12" lengthAdjust="spacingAndGlyphs" textLength="83" x="841.75" y="63.5352">OWAController</text><line style="stroke: #A80036; stroke-width: 1.5;" x1="685" x2="1049" y1="75" y2="75"/><text fill="#000000" font-family="sans-serif" font-size="11" lengthAdjust="spacingAndGlyphs" textLength="225" x="690" y="89.6348">Top level entity for controlling everything.</text><text fill="#000000" font-family="sans-serif" font-size="11" lengthAdjust="spacingAndGlyphs" textLength="202" x="690" y="102.5898">Entry point, starts all sub-controllers.</text><text fill="#000000" font-family="sans-serif" font-size="11" lengthAdjust="spacingAndGlyphs" textLength="0" x="693" y="115.5449"/><text fill="#000000" font-family="sans-serif" font-size="11" lengthAdjust="spacingAndGlyphs" textLength="0" x="693" y="128.5"/><text fill="#000000" font-family="sans-serif" font-size="11" lengthAdjust="spacingAndGlyphs" textLength="156" x="690" y="141.4551">Main state store for OWA app</text><text fill="#000000" font-family="sans-serif" font-size="11" lengthAdjust="spacingAndGlyphs" textLength="115" x="690" y="154.4102">redux.Store owaStore</text><text fill="#000000" font-family="sans-serif" font-size="11" lengthAdjust="spacingAndGlyphs" textLength="0" x="693" y="167.3652"/><text fill="#000000" font-family="sans-serif" font-size="11" lengthAdjust="spacingAndGlyphs" textLength="0" x="693" y="180.3203"/><text fill="#000000" font-family="sans-serif" font-size="11" lengthAdjust="spacingAndGlyphs" textLength="354" x="690" y="193.2754">A separate redux state store for the Ableton Link state.  It changes</text><text fill="#000000" font-family="sans-serif" font-size="11" lengthAdjust="spacingAndGlyphs" textLength="338" x="690" y="206.2305">very frequently and thus does not need to be in the same store.</text><text fill="#000000" font-family="sans-serif" font-size="11" lengthAdjust="spacingAndGlyphs" textLength="113" x="690" y="219.1855">redux.Store linkStore</text><text fill="#000000" font-family="sans-serif" font-size="11" lengthAdjust="spacingAndGlyphs" textLength="0" x="693" y="232.1406"/><text fill="#000000" font-family="sans-serif" font-size="11" lengthAdjust="spacingAndGlyphs" textLength="83" x="690" y="245.0957">inputController</text><text fill="#000000" font-family="sans-serif" font-size="11" lengthAdjust="spacingAndGlyphs" textLength="89" x="690" y="258.0508">soundController</text><line style="stroke: #A80036; stroke-width: 1.5;" x1="685" x2="1049" y1="264.3711" y2="264.3711"/><!--class nodejs.owa.GUIInputController--><rect fill="#FEFECE" filter="url(#fcdo2i12ol6ev)" height="112.7754" id="nodejs.owa.GUIInputController" style="stroke: #A80036; stroke-width: 1.5;" width="204" x="387" y="338.5"/><ellipse cx="432.25" cy="354.5" fill="#ADD1B2" rx="11" ry="11" style="stroke: #A80036; stroke-width: 1.0;"/><path d="M435.2231,360.1431 Q434.6421,360.4419 434.0029,360.5913 Q433.3638,360.7407 432.6582,360.7407 Q430.1514,360.7407 428.8315,359.0889 Q427.5117,357.437 427.5117,354.3159 Q427.5117,351.1865 428.8315,349.5347 Q430.1514,347.8828 432.6582,347.8828 Q433.3638,347.8828 434.0112,348.0322 Q434.6587,348.1816 435.2231,348.4805 L435.2231,351.2031 Q434.5923,350.6221 433.9988,350.3523 Q433.4053,350.0825 432.7744,350.0825 Q431.4297,350.0825 430.7449,351.1492 Q430.0601,352.2158 430.0601,354.3159 Q430.0601,356.4077 430.7449,357.4744 Q431.4297,358.541 432.7744,358.541 Q433.4053,358.541 433.9988,358.2712 Q434.5923,358.0015 435.2231,357.4204 Z "/><text fill="#000000" font-family="sans-serif" font-size="12" lengthAdjust="spacingAndGlyphs" textLength="105" x="452.75" y="359.0352">GUIInputController</text><line style="stroke: #A80036; stroke-width: 1.5;" x1="388" x2="590" y1="370.5" y2="370.5"/><text fill="#000000" font-family="sans-serif" font-size="11" lengthAdjust="spacingAndGlyphs" textLength="192" x="393" y="385.1348">Converts messages from gui UI into</text><text fill="#000000" font-family="sans-serif" font-size="11" lengthAdjust="spacingAndGlyphs" textLength="104" x="393" y="398.0898">dispatched actions.</text><text fill="#000000" font-family="sans-serif" font-size="11" lengthAdjust="spacingAndGlyphs" textLength="0" x="396" y="411.0449"/><text fill="#000000" font-family="sans-serif" font-size="11" lengthAdjust="spacingAndGlyphs" textLength="97" x="393" y="424">oscActionListener</text><text fill="#000000" font-family="sans-serif" font-size="11" lengthAdjust="spacingAndGlyphs" textLength="28" x="393" y="436.9551">store</text><line style="stroke: #A80036; stroke-width: 1.5;" x1="388" x2="590" y1="443.2754" y2="443.2754"/><ellipse cx="453" cy="157.5" fill="#FEFECE" filter="url(#fcdo2i12ol6ev)" rx="5" ry="5" style="stroke: #A80036; stroke-width: 1.5;"/><text fill="#000000" font-family="sans-serif" font-size="12" lengthAdjust="spacingAndGlyphs" textLength="67" x="419.5" y="174.1016">GUI_OSC_IN</text><!--class nodejs.owa.OSCActionListener--><rect fill="#FEFECE" filter="url(#fcdo2i12ol6ev)" height="99.8203" id="nodejs.owa.OSCActionListener" style="stroke: #A80036; stroke-width: 1.5;" width="282" x="508" y="518"/><ellipse cx="593.25" cy="534" fill="#ADD1B2" rx="11" ry="11" style="stroke: #A80036; stroke-width: 1.0;"/><path d="M596.2231,539.6431 Q595.6421,539.9419 595.0029,540.0913 Q594.3638,540.2407 593.6582,540.2407 Q591.1514,540.2407 589.8315,538.5889 Q588.5117,536.937 588.5117,533.8159 Q588.5117,530.6865 589.8315,529.0347 Q591.1514,527.3828 593.6582,527.3828 Q594.3638,527.3828 595.0112,527.5322 Q595.6587,527.6816 596.2231,527.9805 L596.2231,530.7031 Q595.5923,530.1221 594.9988,529.8523 Q594.4053,529.5825 593.7744,529.5825 Q592.4297,529.5825 591.7449,530.6492 Q591.0601,531.7158 591.0601,533.8159 Q591.0601,535.9077 591.7449,536.9744 Q592.4297,538.041 593.7744,538.041 Q594.4053,538.041 594.9988,537.7712 Q595.5923,537.5015 596.2231,536.9204 Z "/><text fill="#000000" font-family="sans-serif" font-size="12" lengthAdjust="spacingAndGlyphs" textLength="103" x="613.75" y="538.5352">OSCActionListener</text><line style="stroke: #A80036; stroke-width: 1.5;" x1="509" x2="789" y1="550" y2="550"/><text fill="#000000" font-family="sans-serif" font-size="11" lengthAdjust="spacingAndGlyphs" textLength="270" x="514" y="564.6348">Forward actions from osc.js to a redux state store.</text><text fill="#000000" font-family="sans-serif" font-size="11" lengthAdjust="spacingAndGlyphs" textLength="0" x="517" y="577.5898"/><text fill="#000000" font-family="sans-serif" font-size="11" lengthAdjust="spacingAndGlyphs" textLength="28" x="514" y="590.5449">store</text><text fill="#000000" font-family="sans-serif" font-size="11" lengthAdjust="spacingAndGlyphs" textLength="54" x="514" y="603.5">oscSocket</text><line style="stroke: #A80036; stroke-width: 1.5;" x1="509" x2="789" y1="609.8203" y2="609.8203"/><!--class nodejs.owa.AbletonLinkController--><rect fill="#FEFECE" filter="url(#fcdo2i12ol6ev)" height="99.8203" id="nodejs.owa.AbletonLinkController" style="stroke: #A80036; stroke-width: 1.5;" width="328" x="1071" y="345"/><ellipse cx="1169.25" cy="361" fill="#ADD1B2" rx="11" ry="11" style="stroke: #A80036; stroke-width: 1.0;"/><path d="M1172.2231,366.6431 Q1171.6421,366.9419 1171.0029,367.0913 Q1170.3638,367.2407 1169.6582,367.2407 Q1167.1514,367.2407 1165.8315,365.5889 Q1164.5117,363.937 1164.5117,360.8159 Q1164.5117,357.6865 1165.8315,356.0347 Q1167.1514,354.3828 1169.6582,354.3828 Q1170.3638,354.3828 1171.0112,354.5322 Q1171.6587,354.6816 1172.2231,354.9805 L1172.2231,357.7031 Q1171.5923,357.1221 1170.9988,356.8523 Q1170.4053,356.5825 1169.7744,356.5825 Q1168.4297,356.5825 1167.7449,357.6492 Q1167.0601,358.7158 1167.0601,360.8159 Q1167.0601,362.9077 1167.7449,363.9744 Q1168.4297,365.041 1169.7744,365.041 Q1170.4053,365.041 1170.9988,364.7712 Q1171.5923,364.5015 1172.2231,363.9204 Z "/><text fill="#000000" font-family="sans-serif" font-size="12" lengthAdjust="spacingAndGlyphs" textLength="123" x="1189.75" y="365.5352">AbletonLinkController</text><line style="stroke: #A80036; stroke-width: 1.5;" x1="1072" x2="1398" y1="377" y2="377"/><text fill="#000000" font-family="sans-serif" font-size="11" lengthAdjust="spacingAndGlyphs" textLength="316" x="1077" y="391.6348">Creates an Ableton Link client and forwards the state to the</text><text fill="#000000" font-family="sans-serif" font-size="11" lengthAdjust="spacingAndGlyphs" textLength="31" x="1077" y="404.5898">store.</text><text fill="#000000" font-family="sans-serif" font-size="11" lengthAdjust="spacingAndGlyphs" textLength="0" x="1080" y="417.5449"/><text fill="#000000" font-family="sans-serif" font-size="11" lengthAdjust="spacingAndGlyphs" textLength="47" x="1077" y="430.5">linkStore</text><line style="stroke: #A80036; stroke-width: 1.5;" x1="1072" x2="1398" y1="436.8203" y2="436.8203"/><!--class nodejs.owa.SoundController--><rect fill="#FEFECE" filter="url(#fcdo2i12ol6ev)" height="125.7305" id="nodejs.owa.SoundController" style="stroke: #A80036; stroke-width: 1.5;" width="410" x="626" y="332"/><ellipse cx="781.25" cy="348" fill="#ADD1B2" rx="11" ry="11" style="stroke: #A80036; stroke-width: 1.0;"/><path d="M784.2231,353.6431 Q783.6421,353.9419 783.0029,354.0913 Q782.3638,354.2407 781.6582,354.2407 Q779.1514,354.2407 777.8315,352.5889 Q776.5117,350.937 776.5117,347.8159 Q776.5117,344.6865 777.8315,343.0347 Q779.1514,341.3828 781.6582,341.3828 Q782.3638,341.3828 783.0112,341.5322 Q783.6587,341.6816 784.2231,341.9805 L784.2231,344.7031 Q783.5923,344.1221 782.9988,343.8523 Q782.4053,343.5825 781.7744,343.5825 Q780.4297,343.5825 779.7449,344.6492 Q779.0601,345.7158 779.0601,347.8159 Q779.0601,349.9077 779.7449,350.9744 Q780.4297,352.041 781.7744,352.041 Q782.4053,352.041 782.9988,351.7712 Q783.5923,351.5015 784.2231,350.9204 Z "/><text fill="#000000" font-family="sans-serif" font-size="12" lengthAdjust="spacingAndGlyphs" textLength="91" x="801.75" y="352.5352">SoundController</text><line style="stroke: #A80036; stroke-width: 1.5;" x1="627" x2="1035" y1="364" y2="364"/><text fill="#000000" font-family="sans-serif" font-size="11" lengthAdjust="spacingAndGlyphs" textLength="398" x="632" y="378.6348">Forwards state changes to SuperCollider and forwards dispatches from SC</text><text fill="#000000" font-family="sans-serif" font-size="11" lengthAdjust="spacingAndGlyphs" textLength="65" x="632" y="391.5898">to the store.</text><text fill="#000000" font-family="sans-serif" font-size="11" lengthAdjust="spacingAndGlyphs" textLength="0" x="635" y="404.5449"/><text fill="#000000" font-family="sans-serif" font-size="11" lengthAdjust="spacingAndGlyphs" textLength="180" x="632" y="417.5">OSCActionListener actionListener</text><text fill="#000000" font-family="sans-serif" font-size="11" lengthAdjust="spacingAndGlyphs" textLength="28" x="632" y="430.4551">store</text><text fill="#000000" font-family="sans-serif" font-size="11" lengthAdjust="spacingAndGlyphs" textLength="47" x="632" y="443.4102">linkStore</text><line style="stroke: #A80036; stroke-width: 1.5;" x1="627" x2="1035" y1="449.7305" y2="449.7305"/><!--class nodejs.owa.gui.OWAUIApp--><rect fill="#FEFECE" filter="url(#fcdo2i12ol6ev)" height="60.9551" id="nodejs.owa.gui.OWAUIApp" style="stroke: #A80036; stroke-width: 1.5;" width="132" x="493" y="127"/><ellipse cx="525.1" cy="143" fill="#ADD1B2" rx="11" ry="11" style="stroke: #A80036; stroke-width: 1.0;"/><path d="M528.0731,148.6431 Q527.4921,148.9419 526.8529,149.0913 Q526.2138,149.2407 525.5082,149.2407 Q523.0014,149.2407 521.6815,147.5889 Q520.3617,145.937 520.3617,142.8159 Q520.3617,139.6865 521.6815,138.0347 Q523.0014,136.3828 525.5082,136.3828 Q526.2138,136.3828 526.8612,136.5322 Q527.5087,136.6816 528.0731,136.9805 L528.0731,139.7031 Q527.4423,139.1221 526.8488,138.8523 Q526.2553,138.5825 525.6244,138.5825 Q524.2797,138.5825 523.5949,139.6492 Q522.9101,140.7158 522.9101,142.8159 Q522.9101,144.9077 523.5949,145.9744 Q524.2797,147.041 525.6244,147.041 Q526.2553,147.041 526.8488,146.7712 Q527.4423,146.5015 528.0731,145.9204 Z "/><text fill="#000000" font-family="sans-serif" font-size="12" lengthAdjust="spacingAndGlyphs" textLength="62" x="542.9" y="147.5352">OWAUIApp</text><line style="stroke: #A80036; stroke-width: 1.5;" x1="494" x2="624" y1="159" y2="159"/><text fill="#000000" font-family="sans-serif" font-size="11" lengthAdjust="spacingAndGlyphs" textLength="120" x="499" y="173.6348">Entry point for the GUI</text><line style="stroke: #A80036; stroke-width: 1.5;" x1="494" x2="624" y1="179.9551" y2="179.9551"/><!--class redux.Store--><rect fill="#FEFECE" filter="url(#fcdo2i12ol6ev)" height="48" id="redux.Store" style="stroke: #A80036; stroke-width: 1.5;" width="61" x="883.5" y="697.5"/><ellipse cx="898.5" cy="713.5" fill="#ADD1B2" rx="11" ry="11" style="stroke: #A80036; stroke-width: 1.0;"/><path d="M901.4731,719.1431 Q900.8921,719.4419 900.2529,719.5913 Q899.6138,719.7407 898.9082,719.7407 Q896.4014,719.7407 895.0815,718.0889 Q893.7617,716.437 893.7617,713.3159 Q893.7617,710.1865 895.0815,708.5347 Q896.4014,706.8828 898.9082,706.8828 Q899.6138,706.8828 900.2612,707.0322 Q900.9087,707.1816 901.4731,707.4805 L901.4731,710.2031 Q900.8423,709.6221 900.2488,709.3523 Q899.6553,709.0825 899.0244,709.0825 Q897.6797,709.0825 896.9949,710.1492 Q896.3101,711.2158 896.3101,713.3159 Q896.3101,715.4077 896.9949,716.4744 Q897.6797,717.541 899.0244,717.541 Q899.6553,717.541 900.2488,717.2712 Q900.8423,717.0015 901.4731,716.4204 Z "/><text fill="#000000" font-family="sans-serif" font-size="12" lengthAdjust="spacingAndGlyphs" textLength="29" x="912.5" y="718.0352">Store</text><line style="stroke: #A80036; stroke-width: 1.5;" x1="884.5" x2="943.5" y1="729.5" y2="729.5"/><line style="stroke: #A80036; stroke-width: 1.5;" x1="884.5" x2="943.5" y1="737.5" y2="737.5"/><!--class quarks.owa.OWAController--><rect fill="#FEFECE" filter="url(#fcdo2i12ol6ev)" height="99.8203" id="quarks.owa.OWAController" style="stroke: #A80036; stroke-width: 1.5;" width="296" x="67" y="518"/><ellipse cx="169.25" cy="534" fill="#ADD1B2" rx="11" ry="11" style="stroke: #A80036; stroke-width: 1.0;"/><path d="M172.2231,539.6431 Q171.6421,539.9419 171.0029,540.0913 Q170.3638,540.2407 169.6582,540.2407 Q167.1514,540.2407 165.8315,538.5889 Q164.5117,536.937 164.5117,533.8159 Q164.5117,530.6865 165.8315,529.0347 Q167.1514,527.3828 169.6582,527.3828 Q170.3638,527.3828 171.0112,527.5322 Q171.6587,527.6816 172.2231,527.9805 L172.2231,530.7031 Q171.5923,530.1221 170.9988,529.8523 Q170.4053,529.5825 169.7744,529.5825 Q168.4297,529.5825 167.7449,530.6492 Q167.0601,531.7158 167.0601,533.8159 Q167.0601,535.9077 167.7449,536.9744 Q168.4297,538.041 169.7744,538.041 Q170.4053,538.041 170.9988,537.7712 Q171.5923,537.5015 172.2231,536.9204 Z "/><text fill="#000000" font-family="sans-serif" font-size="12" lengthAdjust="spacingAndGlyphs" textLength="83" x="189.75" y="538.5352">OWAController</text><line style="stroke: #A80036; stroke-width: 1.5;" x1="68" x2="362" y1="550" y2="550"/><text fill="#000000" font-family="sans-serif" font-size="11" lengthAdjust="spacingAndGlyphs" textLength="132" x="73" y="564.6348">StateStore owaStateStore</text><text fill="#000000" font-family="sans-serif" font-size="11" lengthAdjust="spacingAndGlyphs" textLength="130" x="73" y="577.5898">StateStore linkStateStore</text><text fill="#000000" font-family="sans-serif" font-size="11" lengthAdjust="spacingAndGlyphs" textLength="269" x="73" y="590.5449">SessionTimingController sessionTimingController</text><text fill="#000000" font-family="sans-serif" font-size="11" lengthAdjust="spacingAndGlyphs" textLength="284" x="73" y="603.5">ReduxAbletonTempoClockController clockController</text><line style="stroke: #A80036; stroke-width: 1.5;" x1="68" x2="362" y1="609.8203" y2="609.8203"/><ellipse cx="27" cy="568" fill="#FEFECE" filter="url(#fcdo2i12ol6ev)" rx="5" ry="5" style="stroke: #A80036; stroke-width: 1.5;"/><text fill="#000000" font-family="sans-serif" font-size="12" lengthAdjust="spacingAndGlyphs" textLength="45" x="4.5" y="584.6016">owa.api</text><!--class quarks.owa.SessionTimingController--><rect fill="#FEFECE" filter="url(#fcdo2i12ol6ev)" height="86.8652" id="quarks.owa.SessionTimingController" style="stroke: #A80036; stroke-width: 1.5;" width="328" x="22" y="678"/><ellipse cx="113.25" cy="694" fill="#ADD1B2" rx="11" ry="11" style="stroke: #A80036; stroke-width: 1.0;"/><path d="M116.2231,699.6431 Q115.6421,699.9419 115.0029,700.0913 Q114.3638,700.2407 113.6582,700.2407 Q111.1514,700.2407 109.8315,698.5889 Q108.5117,696.937 108.5117,693.8159 Q108.5117,690.6865 109.8315,689.0347 Q111.1514,687.3828 113.6582,687.3828 Q114.3638,687.3828 115.0112,687.5322 Q115.6587,687.6816 116.2231,687.9805 L116.2231,690.7031 Q115.5923,690.1221 114.9988,689.8523 Q114.4053,689.5825 113.7744,689.5825 Q112.4297,689.5825 111.7449,690.6492 Q111.0601,691.7158 111.0601,693.8159 Q111.0601,695.9077 111.7449,696.9744 Q112.4297,698.041 113.7744,698.041 Q114.4053,698.041 114.9988,697.7712 Q115.5923,697.5015 116.2231,696.9204 Z "/><text fill="#000000" font-family="sans-serif" font-size="12" lengthAdjust="spacingAndGlyphs" textLength="137" x="133.75" y="698.5352">SessionTimingController</text><line style="stroke: #A80036; stroke-width: 1.5;" x1="23" x2="349" y1="710" y2="710"/><text fill="#000000" font-family="sans-serif" font-size="11" lengthAdjust="spacingAndGlyphs" textLength="284" x="28" y="724.6348">ReduxAbletonTempoClockController clockController</text><text fill="#000000" font-family="sans-serif" font-size="11" lengthAdjust="spacingAndGlyphs" textLength="104" x="28" y="737.5898">StateStore linkStore</text><line style="stroke: #A80036; stroke-width: 1.5;" x1="23" x2="349" y1="743.9102" y2="743.9102"/><text fill="#000000" font-family="sans-serif" font-size="11" lengthAdjust="spacingAndGlyphs" textLength="316" x="28" y="758.5449">Handles scheduling the timing to transition phases (when?)</text><!--class quarks.supercollider_redux.StateStore--><rect fill="#FEFECE" filter="url(#fcdo2i12ol6ev)" height="48" id="quarks.supercollider_redux.StateStore" style="stroke: #A80036; stroke-width: 1.5;" width="89" x="185.5" y="825"/><ellipse cx="200.5" cy="841" fill="#ADD1B2" rx="11" ry="11" style="stroke: #A80036; stroke-width: 1.0;"/><path d="M203.4731,846.6431 Q202.8921,846.9419 202.2529,847.0913 Q201.6138,847.2407 200.9082,847.2407 Q198.4014,847.2407 197.0815,845.5889 Q195.7617,843.937 195.7617,840.8159 Q195.7617,837.6865 197.0815,836.0347 Q198.4014,834.3828 200.9082,834.3828 Q201.6138,834.3828 202.2612,834.5322 Q202.9087,834.6816 203.4731,834.9805 L203.4731,837.7031 Q202.8423,837.1221 202.2488,836.8523 Q201.6553,836.5825 201.0244,836.5825 Q199.6797,836.5825 198.9949,837.6492 Q198.3101,838.7158 198.3101,840.8159 Q198.3101,842.9077 198.9949,843.9744 Q199.6797,845.041 201.0244,845.041 Q201.6553,845.041 202.2488,844.7712 Q202.8423,844.5015 203.4731,843.9204 Z "/><text fill="#000000" font-family="sans-serif" font-size="12" lengthAdjust="spacingAndGlyphs" textLength="57" x="214.5" y="845.5352">StateStore</text><line style="stroke: #A80036; stroke-width: 1.5;" x1="186.5" x2="273.5" y1="857" y2="857"/><line style="stroke: #A80036; stroke-width: 1.5;" x1="186.5" x2="273.5" y1="865" y2="865"/><!--class quarks.supercollider_redux.ReduxAbletonTempoClockController--><rect fill="#FEFECE" filter="url(#fcdo2i12ol6ev)" height="48" id="quarks.supercollider_redux.ReduxAbletonTempoClockController" style="stroke: #A80036; stroke-width: 1.5;" width="241" x="309.5" y="825"/><ellipse cx="324.5" cy="841" fill="#ADD1B2" rx="11" ry="11" style="stroke: #A80036; stroke-width: 1.0;"/><path d="M327.4731,846.6431 Q326.8921,846.9419 326.2529,847.0913 Q325.6138,847.2407 324.9082,847.2407 Q322.4014,847.2407 321.0815,845.5889 Q319.7617,843.937 319.7617,840.8159 Q319.7617,837.6865 321.0815,836.0347 Q322.4014,834.3828 324.9082,834.3828 Q325.6138,834.3828 326.2612,834.5322 Q326.9087,834.6816 327.4731,834.9805 L327.4731,837.7031 Q326.8423,837.1221 326.2488,836.8523 Q325.6553,836.5825 325.0244,836.5825 Q323.6797,836.5825 322.9949,837.6492 Q322.3101,838.7158 322.3101,840.8159 Q322.3101,842.9077 322.9949,843.9744 Q323.6797,845.041 325.0244,845.041 Q325.6553,845.041 326.2488,844.7712 Q326.8423,844.5015 327.4731,843.9204 Z "/><text fill="#000000" font-family="sans-serif" font-size="12" lengthAdjust="spacingAndGlyphs" textLength="209" x="338.5" y="845.5352">ReduxAbletonTempoClockController</text><line style="stroke: #A80036; stroke-width: 1.5;" x1="310.5" x2="549.5" y1="857" y2="857"/><line style="stroke: #A80036; stroke-width: 1.5;" x1="310.5" x2="549.5" y1="865" y2="865"/><!--link nodejs.owa.OWAController to redux.Store--><path d="M1063.0686,194.3535 C1203.1302,225.1291 1374.0786,273.3523 1417,332 C1562.2965,530.5327 1073.9198,678.464 944.6052,713.5422 " fill="none" id="nodejs.owa.OWAController-redux.Store" style="stroke: #A80036; stroke-width: 1.0;"/><polygon fill="#A80036" points="1050.0462,191.5224,1055.0595,196.7057,1061.7723,194.0717,1056.759,188.8883,1050.0462,191.5224" style="stroke: #A80036; stroke-width: 1.0;"/><!--link nodejs.owa.OWAController to nodejs.owa.GUIInputController--><path d="M673.4794,279.0903 C640.5637,299.7715 607.831,320.3377 579.2777,338.2779 " fill="none" id="nodejs.owa.OWAController-nodejs.owa.GUIInputController" style="stroke: #A80036; stroke-width: 1.0;"/><polygon fill="#FFFFFF" points="684.6433,272.076,677.4348,271.8812,674.4825,278.4602,681.691,278.655,684.6433,272.076" style="stroke: #A80036; stroke-width: 1.0;"/><!--link nodejs.owa.GUIInputControllerlol9 to nodejs.owa.GUIInputController--><path d="M453.7519,162.4605 C457.1243,184.7092 471.0967,276.888 480.4043,338.2921 " fill="none" id="nodejs.owa.GUIInputControllerlol9-nodejs.owa.GUIInputController" style="stroke: #A80036; stroke-width: 1.0;"/><!--link nodejs.owa.GUIInputController to nodejs.owa.OSCActionListener--><path d="M550.3478,461.3323 C567.7304,480.1272 586.3571,500.2674 602.6912,517.9286 " fill="none" id="nodejs.owa.GUIInputController-nodejs.owa.OSCActionListener" style="stroke: #A80036; stroke-width: 1.0;"/><polygon fill="#A80036" points="541.39,451.6467,542.5273,458.7676,549.5378,460.4565,548.4005,453.3357,541.39,451.6467" style="stroke: #A80036; stroke-width: 1.0;"/><!--link nodejs.owa.GUIInputController to redux.Store--><path d="M603.4424,456.0645 C605.2994,456.7339 607.1527,457.3799 609,458 C693.9908,486.5325 737.6067,435.4814 808,491 C859.138,531.3321 837.4483,566.9857 865,626 C876.5094,650.6526 890.8285,678.2478 901.0089,697.4108 " fill="none" id="nodejs.owa.GUIInputController-redux.Store" style="stroke: #A80036; stroke-width: 1.0;"/><polygon fill="#A80036" points="591.1564,451.3299,595.3167,457.2199,602.3537,455.645,598.1934,449.755,591.1564,451.3299" style="stroke: #A80036; stroke-width: 1.0;"/><!--link nodejs.owa.OSCActionListener to redux.Store--><path d="M746.8597,624.6848 C795.0783,652.6152 849.8794,684.3585 883.1881,703.6524 " fill="none" id="nodejs.owa.OSCActionListener-redux.Store" style="stroke: #A80036; stroke-width: 1.0;"/><polygon fill="#A80036" points="735.4042,618.0492,738.5912,624.5178,745.788,624.0639,742.601,617.5953,735.4042,618.0492" style="stroke: #A80036; stroke-width: 1.0;"/><!--link nodejs.owa.OWAController to nodejs.owa.AbletonLinkController--><path d="M1055.7027,279.285 C1091.6904,302.5108 1127.4382,325.5817 1157.4344,344.9407 " fill="none" id="nodejs.owa.OWAController-nodejs.owa.AbletonLinkController" style="stroke: #A80036; stroke-width: 1.0;"/><polygon fill="#A80036" points="1044.5324,272.076,1047.4046,278.6904,1054.6149,278.5832,1051.7427,271.9687,1044.5324,272.076" style="stroke: #A80036; stroke-width: 1.0;"/><!--link nodejs.owa.AbletonLinkController to redux.Store--><path d="M1176.2286,454.7784 C1104.9229,527.3059 988.0441,646.1872 937.9816,697.1075 " fill="none" id="nodejs.owa.AbletonLinkController-redux.Store" style="stroke: #A80036; stroke-width: 1.0;"/><polygon fill="#A80036" points="1185.5472,445.3001,1178.4884,446.7743,1177.1343,453.8571,1184.1931,452.3829,1185.5472,445.3001" style="stroke: #A80036; stroke-width: 1.0;"/><!--link nodejs.owa.OWAController to nodejs.owa.SoundController--><path d="M847.6644,285.0612 C845.2146,301.2229 842.798,317.1657 840.5975,331.6834 " fill="none" id="nodejs.owa.OWAController-nodejs.owa.SoundController" style="stroke: #A80036; stroke-width: 1.0;"/><polygon fill="#A80036" points="849.6327,272.076,844.7786,277.4087,847.8342,283.9405,852.6883,278.6077,849.6327,272.076" style="stroke: #A80036; stroke-width: 1.0;"/><!--link nodejs.owa.SoundController to nodejs.owa.OSCActionListener--><path d="M754.695,467.5317 C736.8314,484.5119 718.1919,502.2297 701.6286,517.9739 " fill="none" id="nodejs.owa.SoundController-nodejs.owa.OSCActionListener" style="stroke: #A80036; stroke-width: 1.0;"/><polygon fill="#A80036" points="764.5213,458.1913,757.4167,459.4258,755.8237,466.4588,762.9283,465.2242,764.5213,458.1913" style="stroke: #A80036; stroke-width: 1.0;"/><!--link nodejs.owa.SoundController to redux.Store--><path d="M862.3767,470.5001 C864.7804,477.376 867.0323,484.2803 869,491 C890.5982,564.7596 904.7878,654.869 910.7689,697.2596 " fill="none" id="nodejs.owa.SoundController-redux.Store" style="stroke: #A80036; stroke-width: 1.0;"/><polygon fill="#A80036" points="857.915,458.1999,856.2007,465.2043,862.007,469.4807,863.7212,462.4763,857.915,458.1999" style="stroke: #A80036; stroke-width: 1.0;"/><!--link nodejs.owa.SoundController to quarks.owa.OWAController--><path d="M625.934,454.2949 C620.2399,455.5872 614.587,456.8258 609,458 C504.4932,479.9632 473.0786,459.6311 371,491 C350.1986,497.3923 328.749,506.2858 308.6638,515.7662 " fill="none" id="nodejs.owa.SoundController-quarks.owa.OWAController" style="stroke: #A80036; stroke-width: 1.0;"/><polygon fill="#A80036" points="304.131,517.9265,313.9764,517.6653,308.6446,515.7753,310.5345,510.4435,304.131,517.9265" style="stroke: #A80036; stroke-width: 1.0;"/><text fill="#000000" font-family="sans-serif" font-size="13" lengthAdjust="spacingAndGlyphs" textLength="48" x="570.0146" y="477.0764">owa.api</text><!--link nodejs.owa.gui.OWAUIApp to nodejs.owa.GUIInputController--><path d="M549.992,188.0628 C539.2326,224.5681 520.9654,286.546 507.2207,333.1797 " fill="none" id="nodejs.owa.gui.OWAUIApp-nodejs.owa.GUIInputController" style="stroke: #A80036; stroke-width: 1.0;"/><polygon fill="#A80036" points="505.7369,338.2143,512.1182,330.7123,507.1505,333.4183,504.4445,328.4506,505.7369,338.2143" style="stroke: #A80036; stroke-width: 1.0;"/><text fill="#000000" font-family="sans-serif" font-size="13" lengthAdjust="spacingAndGlyphs" textLength="76" x="464.2966" y="208.5183">GUI_OSC_IN</text><!--link quarks.owa.OWAController to quarks.supercollider_redux.StateStore--><path d="M330.0045,626.519 C344.8659,638.9901 358.0149,653.6038 367,670.5 C388.3893,710.7219 393.6368,736.0434 367,773 C346.4554,801.5041 322.7496,780.9991 292,798 C278.8267,805.2833 265.7337,815.4982 254.9978,824.8749 " fill="none" id="quarks.owa.OWAController-quarks.supercollider_redux.StateStore" style="stroke: #A80036; stroke-width: 1.0;"/><polygon fill="#A80036" points="319.4724,618.2256,321.7118,625.0802,328.9004,625.6494,326.661,618.7949,319.4724,618.2256" style="stroke: #A80036; stroke-width: 1.0;"/><!--link quarks.owa.OWAController to quarks.supercollider_redux.ReduxAbletonTempoClockController--><path d="M356.3894,625.5162 C374.3175,638.0074 390.6697,652.8911 403,670.5 C435.8088,717.3545 435.5612,788.1208 432.7145,824.8938 " fill="none" id="quarks.owa.OWAController-quarks.supercollider_redux.ReduxAbletonTempoClockController" style="stroke: #A80036; stroke-width: 1.0;"/><polygon fill="#A80036" points="345.359,618.2409,348.1653,624.8835,355.3763,624.848,352.57,618.2053,345.359,618.2409" style="stroke: #A80036; stroke-width: 1.0;"/><!--link quarks.owa.OWAControllerlol34 to quarks.owa.OWAController--><path d="M32.1406,568 C43.6884,568 55.2361,568 66.7839,568 " fill="none" id="quarks.owa.OWAControllerlol34-quarks.owa.OWAController" style="stroke: #A80036; stroke-width: 1.0;"/><!--link quarks.owa.OWAController to quarks.owa.SessionTimingController--><path d="M203.0621,631.1885 C200.1,646.8672 196.9906,663.3258 194.2496,677.8339 " fill="none" id="quarks.owa.OWAController-quarks.owa.SessionTimingController" style="stroke: #A80036; stroke-width: 1.0;"/><polygon fill="#A80036" points="205.5043,618.2616,200.4599,623.4147,203.2765,630.053,208.3209,624.8999,205.5043,618.2616" style="stroke: #A80036; stroke-width: 1.0;"/><!--link quarks.owa.SessionTimingController to quarks.supercollider_redux.ReduxAbletonTempoClockController--><path d="M281.1404,771.2148 C316.5006,789.6919 355.0283,809.8242 384.0271,824.9773 " fill="none" id="quarks.owa.SessionTimingController-quarks.supercollider_redux.ReduxAbletonTempoClockController" style="stroke: #A80036; stroke-width: 1.0;"/><polygon fill="#A80036" points="269.2885,765.0217,272.7537,771.3456,279.924,770.5792,276.4588,764.2553,269.2885,765.0217" style="stroke: #A80036; stroke-width: 1.0;"/><!--link quarks.owa.SessionTimingController to quarks.supercollider_redux.StateStore--><path d="M205.3375,777.5348 C211.0817,794.1799 217.0716,811.5371 221.7098,824.9773 " fill="none" id="quarks.owa.SessionTimingController-quarks.supercollider_redux.StateStore" style="stroke: #A80036; stroke-width: 1.0;"/><polygon fill="#A80036" points="201.0192,765.0217,199.1954,771.9983,204.9339,776.3652,206.7577,769.3886,201.0192,765.0217" style="stroke: #A80036; stroke-width: 1.0;"/><!--
@startuml !include styles.puml

namespace nodejs.owa {
  class OWAController {
    Top level entity for controlling everything.
    Entry point, starts all sub-controllers.
    \n
    Main state store for OWA app
    redux.Store owaStore
    \n
    A separate redux state store for the Ableton Link state.  It changes
    very frequently and thus does not need to be in the same store.
    redux.Store linkStore

    inputController
    soundController
  }
  OWAController *- - redux.Store

  class GUIInputController {
    
    Converts messages from gui UI into
    dispatched actions.

    oscActionListener
    store
  }
  OWAController o- - GUIInputController
  GUI_OSC_IN ()- - GUIInputController
  GUIInputController *- - OSCActionListener
  GUIInputController *- - redux.Store
  

  class OSCActionListener {
    Forward actions from osc.js to a redux state store.

    store
    oscSocket
  }
  OSCActionListener *- - redux.Store

  class AbletonLinkController {
    Creates an Ableton Link client and forwards the state to the
    store.

    linkStore
  }
  OWAController *- - AbletonLinkController
  AbletonLinkController *- - redux.Store

  class SoundController {
    Forwards state changes to SuperCollider and forwards dispatches from SC
    to the store.

    OSCActionListener actionListener
    store
    linkStore
  }
  OWAController *- - SoundController
  SoundController *- - OSCActionListener
  SoundController *- - redux.Store
  SoundController "owa.api" -down-> quarks.owa.OWAController



  namespace gui {
    class OWAUIApp {
      Entry point for the GUI
    }
    OWAUIApp "GUI_OSC_IN" - -> nodejs.owa.GUIInputController
  }

}

package quarks.owa {
  class OWAController {
    StateStore owaStateStore
    StateStore linkStateStore
    SessionTimingController sessionTimingController
    ReduxAbletonTempoClockController clockController
  }
  OWAController *- - quarks.supercollider_redux.StateStore
  OWAController *- - quarks.supercollider_redux.ReduxAbletonTempoClockController
  owa.api ()- OWAController

  class SessionTimingController {
    Handles scheduling the timing to transition phases (when?)
    
    ReduxAbletonTempoClockController clockController
    StateStore linkStore
  }
  OWAController *- - SessionTimingController
  SessionTimingController *- - quarks.supercollider_redux.ReduxAbletonTempoClockController
  SessionTimingController *- - quarks.supercollider_redux.StateStore
}


@enduml

PlantUML version 1.2018.01(Sun Jan 28 10:08:22 PST 2018)
(GPL source distribution)
Java Runtime: Java(TM) SE Runtime Environment
JVM: Java HotSpot(TM) 64-Bit Server VM
Java Version: 9.0.4+11
Operating System: Mac OS X
OS Version: 10.11.6
Default Encoding: UTF-8
Language: en
Country: US
--></g></svg>