<?xml version="1.0" encoding="UTF-8" standalone="no"?><svg xmlns="http://www.w3.org/2000/svg" xmlns:xlink="http://www.w3.org/1999/xlink" contentScriptType="application/ecmascript" contentStyleType="text/css" height="1120px" preserveAspectRatio="none" style="width:3370px;height:1120px;background:#1D1F21;" version="1.1" viewBox="0 0 3370 1120" width="3370px" zoomAndPan="magnify"><defs><filter height="300%" id="f1x4std1c1dbnr" width="300%" x="-1" y="-1"><feGaussianBlur result="blurOut" stdDeviation="2.0"/><feColorMatrix in="blurOut" result="blurOut2" type="matrix" values="0 0 0 0 0 0 0 0 0 0 0 0 0 0 0 0 0 0 .4 0"/><feOffset dx="4.0" dy="4.0" in="blurOut2" result="blurOut3"/><feBlend in="SourceGraphic" in2="blurOut3" mode="normal"/></filter></defs><g><!--cluster nodejs.owa--><polygon fill="#1D1F21" filter="url(#f1x4std1c1dbnr)" points="940,16,1046,16,1053,43.3359,3099,43.3359,3099,830,940,830,940,16" style="stroke: #000000; stroke-width: 1.5;"/><line style="stroke: #000000; stroke-width: 1.5;" x1="940" x2="1053" y1="43.3359" y2="43.3359"/><text fill="#C5C8C6" font-family="Monaco" font-size="16" font-weight="bold" lengthAdjust="spacingAndGlyphs" textLength="100" x="944" y="35.3359">nodejs.owa</text><!--cluster nodejs.owa.gui--><polygon fill="#1D1F21" filter="url(#f1x4std1c1dbnr)" points="1075,154.5,1111,154.5,1118,181.8359,1333,181.8359,1333,263.5,1075,263.5,1075,154.5" style="stroke: #000000; stroke-width: 1.5;"/><line style="stroke: #000000; stroke-width: 1.5;" x1="1075" x2="1118" y1="181.8359" y2="181.8359"/><text fill="#C5C8C6" font-family="Monaco" font-size="16" font-weight="bold" lengthAdjust="spacingAndGlyphs" textLength="30" x="1079" y="173.8359">gui</text><!--cluster redux--><polygon fill="#1D1F21" filter="url(#f1x4std1c1dbnr)" points="2205,882,2261,882,2268,909.3359,2277,909.3359,2277,969,2205,969,2205,882" style="stroke: #000000; stroke-width: 1.5;"/><line style="stroke: #000000; stroke-width: 1.5;" x1="2205" x2="2268" y1="909.3359" y2="909.3359"/><text fill="#C5C8C6" font-family="Monaco" font-size="16" font-weight="bold" lengthAdjust="spacingAndGlyphs" textLength="50" x="2209" y="901.3359">redux</text><!--cluster quarks.owa--><polygon fill="#1D1F21" filter="url(#f1x4std1c1dbnr)" points="14,657,120,657,127,684.3359,932,684.3359,932,1001,14,1001,14,657" style="stroke: #000000; stroke-width: 1.5;"/><line style="stroke: #000000; stroke-width: 1.5;" x1="14" x2="127" y1="684.3359" y2="684.3359"/><text fill="#C5C8C6" font-family="Monaco" font-size="16" font-weight="bold" lengthAdjust="spacingAndGlyphs" textLength="100" x="18" y="676.3359">quarks.owa</text><!--cluster quarks.supercollider_redux--><polygon fill="#1D1F21" filter="url(#f1x4std1c1dbnr)" points="574,1021,840,1021,847,1048.3359,1057,1048.3359,1057,1108,574,1108,574,1021" style="stroke: #000000; stroke-width: 1.5;"/><line style="stroke: #000000; stroke-width: 1.5;" x1="574" x2="847" y1="1048.3359" y2="1048.3359"/><text fill="#C5C8C6" font-family="Monaco" font-size="16" font-weight="bold" lengthAdjust="spacingAndGlyphs" textLength="260" x="578" y="1040.3359">quarks.supercollider_redux</text><!--class nodejs.owa.OWAController--><rect fill="#1D1F21" filter="url(#f1x4std1c1dbnr)" height="346.0391" id="nodejs.owa.OWAController" style="stroke: #B294BB; stroke-width: 1.5;" width="692" x="1737" y="48"/><text fill="#B294BB" font-family="Monaco" font-size="16" lengthAdjust="spacingAndGlyphs" textLength="130" x="2018" y="70.3359">OWAController</text><line style="stroke: #B294BB; stroke-width: 1.5;" x1="1738" x2="2428" y1="79.3359" y2="79.3359"/><text fill="#C5C8C6" font-family="Monaco" font-size="16" lengthAdjust="spacingAndGlyphs" textLength="440" x="1743" y="100.6719">Top level entity for controlling everything.</text><text fill="#C5C8C6" font-family="Monaco" font-size="16" lengthAdjust="spacingAndGlyphs" textLength="400" x="1743" y="122.0078">Entry point, starts all sub-controllers.</text><text fill="#C5C8C6" font-family="Monaco" font-size="16" lengthAdjust="spacingAndGlyphs" textLength="0" x="1753" y="143.3438"/><text fill="#C5C8C6" font-family="Monaco" font-size="16" lengthAdjust="spacingAndGlyphs" textLength="0" x="1753" y="164.6797"/><text fill="#C5C8C6" font-family="Monaco" font-size="16" lengthAdjust="spacingAndGlyphs" textLength="280" x="1743" y="186.0156">Main state store for OWA app</text><text fill="#C5C8C6" font-family="Monaco" font-size="16" lengthAdjust="spacingAndGlyphs" textLength="200" x="1743" y="207.3516">redux.Store owaStore</text><text fill="#C5C8C6" font-family="Monaco" font-size="16" lengthAdjust="spacingAndGlyphs" textLength="0" x="1753" y="228.6875"/><text fill="#C5C8C6" font-family="Monaco" font-size="16" lengthAdjust="spacingAndGlyphs" textLength="0" x="1753" y="250.0234"/><text fill="#C5C8C6" font-family="Monaco" font-size="16" lengthAdjust="spacingAndGlyphs" textLength="680" x="1743" y="271.3594">A separate redux state store for the Ableton Link state.  It changes</text><text fill="#C5C8C6" font-family="Monaco" font-size="16" lengthAdjust="spacingAndGlyphs" textLength="630" x="1743" y="292.6953">very frequently and thus does not need to be in the same store.</text><text fill="#C5C8C6" font-family="Monaco" font-size="16" lengthAdjust="spacingAndGlyphs" textLength="210" x="1743" y="314.0313">redux.Store linkStore</text><text fill="#C5C8C6" font-family="Monaco" font-size="16" lengthAdjust="spacingAndGlyphs" textLength="0" x="1753" y="335.3672"/><text fill="#C5C8C6" font-family="Monaco" font-size="16" lengthAdjust="spacingAndGlyphs" textLength="150" x="1743" y="356.7031">inputController</text><text fill="#C5C8C6" font-family="Monaco" font-size="16" lengthAdjust="spacingAndGlyphs" textLength="150" x="1743" y="378.0391">soundController</text><line style="stroke: #B294BB; stroke-width: 1.5;" x1="1738" x2="2428" y1="386.0391" y2="386.0391"/><!--class nodejs.owa.GUIInputController--><rect fill="#1D1F21" filter="url(#f1x4std1c1dbnr)" height="154.0156" id="nodejs.owa.GUIInputController" style="stroke: #B294BB; stroke-width: 1.5;" width="352" x="948" y="464.5"/><text fill="#B294BB" font-family="Monaco" font-size="16" lengthAdjust="spacingAndGlyphs" textLength="180" x="1034" y="486.8359">GUIInputController</text><line style="stroke: #B294BB; stroke-width: 1.5;" x1="949" x2="1299" y1="495.8359" y2="495.8359"/><text fill="#C5C8C6" font-family="Monaco" font-size="16" lengthAdjust="spacingAndGlyphs" textLength="340" x="954" y="517.1719">Converts messages from gui UI into</text><text fill="#C5C8C6" font-family="Monaco" font-size="16" lengthAdjust="spacingAndGlyphs" textLength="190" x="954" y="538.5078">dispatched actions.</text><text fill="#C5C8C6" font-family="Monaco" font-size="16" lengthAdjust="spacingAndGlyphs" textLength="0" x="964" y="559.8438"/><text fill="#C5C8C6" font-family="Monaco" font-size="16" lengthAdjust="spacingAndGlyphs" textLength="170" x="954" y="581.1797">oscActionListener</text><text fill="#C5C8C6" font-family="Monaco" font-size="16" lengthAdjust="spacingAndGlyphs" textLength="50" x="954" y="602.5156">store</text><line style="stroke: #B294BB; stroke-width: 1.5;" x1="949" x2="1299" y1="610.5156" y2="610.5156"/><ellipse cx="1043" cy="221" fill="#1D1F21" filter="url(#f1x4std1c1dbnr)" rx="5" ry="5" style="stroke: #B294BB; stroke-width: 1.5;"/><text fill="#B294BB" font-family="Monaco" font-size="16" lengthAdjust="spacingAndGlyphs" textLength="100" x="993" y="243.3359">GUI_OSC_IN</text><!--class nodejs.owa.OSCActionListener--><rect fill="#1D1F21" filter="url(#f1x4std1c1dbnr)" height="132.6797" id="nodejs.owa.OSCActionListener" style="stroke: #B294BB; stroke-width: 1.5;" width="522" x="1595" y="689"/><text fill="#B294BB" font-family="Monaco" font-size="16" lengthAdjust="spacingAndGlyphs" textLength="170" x="1771" y="711.3359">OSCActionListener</text><line style="stroke: #B294BB; stroke-width: 1.5;" x1="1596" x2="2116" y1="720.3359" y2="720.3359"/><text fill="#C5C8C6" font-family="Monaco" font-size="16" lengthAdjust="spacingAndGlyphs" textLength="510" x="1601" y="741.6719">Forward actions from osc.js to a redux state store.</text><text fill="#C5C8C6" font-family="Monaco" font-size="16" lengthAdjust="spacingAndGlyphs" textLength="0" x="1611" y="763.0078"/><text fill="#C5C8C6" font-family="Monaco" font-size="16" lengthAdjust="spacingAndGlyphs" textLength="50" x="1601" y="784.3438">store</text><text fill="#C5C8C6" font-family="Monaco" font-size="16" lengthAdjust="spacingAndGlyphs" textLength="90" x="1601" y="805.6797">oscSocket</text><line style="stroke: #B294BB; stroke-width: 1.5;" x1="1596" x2="2116" y1="813.6797" y2="813.6797"/><!--class nodejs.owa.AbletonLinkController--><rect fill="#1D1F21" filter="url(#f1x4std1c1dbnr)" height="132.6797" id="nodejs.owa.AbletonLinkController" style="stroke: #B294BB; stroke-width: 1.5;" width="612" x="2479" y="475"/><text fill="#B294BB" font-family="Monaco" font-size="16" lengthAdjust="spacingAndGlyphs" textLength="210" x="2680" y="497.3359">AbletonLinkController</text><line style="stroke: #B294BB; stroke-width: 1.5;" x1="2480" x2="3090" y1="506.3359" y2="506.3359"/><text fill="#C5C8C6" font-family="Monaco" font-size="16" lengthAdjust="spacingAndGlyphs" textLength="600" x="2485" y="527.6719">Creates an Ableton Link client and forwards the state to the</text><text fill="#C5C8C6" font-family="Monaco" font-size="16" lengthAdjust="spacingAndGlyphs" textLength="60" x="2485" y="549.0078">store.</text><text fill="#C5C8C6" font-family="Monaco" font-size="16" lengthAdjust="spacingAndGlyphs" textLength="0" x="2495" y="570.3438"/><text fill="#C5C8C6" font-family="Monaco" font-size="16" lengthAdjust="spacingAndGlyphs" textLength="90" x="2485" y="591.6797">linkStore</text><line style="stroke: #B294BB; stroke-width: 1.5;" x1="2480" x2="3090" y1="599.6797" y2="599.6797"/><!--class nodejs.owa.SoundController--><rect fill="#1D1F21" filter="url(#f1x4std1c1dbnr)" height="175.3516" id="nodejs.owa.SoundController" style="stroke: #B294BB; stroke-width: 1.5;" width="722" x="1722" y="454"/><text fill="#B294BB" font-family="Monaco" font-size="16" lengthAdjust="spacingAndGlyphs" textLength="150" x="2008" y="476.3359">SoundController</text><line style="stroke: #B294BB; stroke-width: 1.5;" x1="1723" x2="2443" y1="485.3359" y2="485.3359"/><text fill="#C5C8C6" font-family="Monaco" font-size="16" lengthAdjust="spacingAndGlyphs" textLength="710" x="1728" y="506.6719">Forwards state changes to SuperCollider and forwards dispatches from SC</text><text fill="#C5C8C6" font-family="Monaco" font-size="16" lengthAdjust="spacingAndGlyphs" textLength="130" x="1728" y="528.0078">to the store.</text><text fill="#C5C8C6" font-family="Monaco" font-size="16" lengthAdjust="spacingAndGlyphs" textLength="0" x="1738" y="549.3438"/><text fill="#C5C8C6" font-family="Monaco" font-size="16" lengthAdjust="spacingAndGlyphs" textLength="320" x="1728" y="570.6797">OSCActionListener actionListener</text><text fill="#C5C8C6" font-family="Monaco" font-size="16" lengthAdjust="spacingAndGlyphs" textLength="50" x="1728" y="592.0156">store</text><text fill="#C5C8C6" font-family="Monaco" font-size="16" lengthAdjust="spacingAndGlyphs" textLength="90" x="1728" y="613.3516">linkStore</text><line style="stroke: #B294BB; stroke-width: 1.5;" x1="1723" x2="2443" y1="621.3516" y2="621.3516"/><!--class nodejs.owa.LightingController--><rect fill="#1D1F21" filter="url(#f1x4std1c1dbnr)" height="68.6719" id="nodejs.owa.LightingController" style="stroke: #B294BB; stroke-width: 1.5;" width="352" x="1335" y="507"/><text fill="#B294BB" font-family="Monaco" font-size="16" lengthAdjust="spacingAndGlyphs" textLength="180" x="1421" y="529.3359">LightingController</text><line style="stroke: #B294BB; stroke-width: 1.5;" x1="1336" x2="1686" y1="538.3359" y2="538.3359"/><text fill="#C5C8C6" font-family="Monaco" font-size="16" lengthAdjust="spacingAndGlyphs" textLength="340" x="1341" y="559.6719">Top level controller for lighting.</text><line style="stroke: #B294BB; stroke-width: 1.5;" x1="1336" x2="1686" y1="567.6719" y2="567.6719"/><!--class nodejs.owa.gui.OWAUIApp--><rect fill="#1D1F21" filter="url(#f1x4std1c1dbnr)" height="68.6719" id="nodejs.owa.gui.OWAUIApp" style="stroke: #B294BB; stroke-width: 1.5;" width="242" x="1083" y="186.5"/><text fill="#B294BB" font-family="Monaco" font-size="16" lengthAdjust="spacingAndGlyphs" textLength="80" x="1164" y="208.8359">OWAUIApp</text><line style="stroke: #B294BB; stroke-width: 1.5;" x1="1084" x2="1324" y1="217.8359" y2="217.8359"/><text fill="#C5C8C6" font-family="Monaco" font-size="16" lengthAdjust="spacingAndGlyphs" textLength="230" x="1089" y="239.1719">Entry point for the GUI</text><line style="stroke: #B294BB; stroke-width: 1.5;" x1="1084" x2="1324" y1="247.1719" y2="247.1719"/><!--class redux.Store--><rect fill="#1D1F21" filter="url(#f1x4std1c1dbnr)" height="47.3359" id="redux.Store" style="stroke: #B294BB; stroke-width: 1.5;" width="56" x="2213" y="914"/><text fill="#B294BB" font-family="Monaco" font-size="16" lengthAdjust="spacingAndGlyphs" textLength="50" x="2216" y="936.3359">Store</text><line style="stroke: #B294BB; stroke-width: 1.5;" x1="2214" x2="2268" y1="945.3359" y2="945.3359"/><line style="stroke: #B294BB; stroke-width: 1.5;" x1="2214" x2="2268" y1="953.3359" y2="953.3359"/><!--class quarks.owa.OWAController--><rect fill="#1D1F21" filter="url(#f1x4std1c1dbnr)" height="132.6797" id="quarks.owa.OWAController" style="stroke: #B294BB; stroke-width: 1.5;" width="492" x="432" y="689"/><text fill="#B294BB" font-family="Monaco" font-size="16" lengthAdjust="spacingAndGlyphs" textLength="130" x="613" y="711.3359">OWAController</text><line style="stroke: #B294BB; stroke-width: 1.5;" x1="433" x2="923" y1="720.3359" y2="720.3359"/><text fill="#C5C8C6" font-family="Monaco" font-size="16" lengthAdjust="spacingAndGlyphs" textLength="240" x="438" y="741.6719">StateStore owaStateStore</text><text fill="#C5C8C6" font-family="Monaco" font-size="16" lengthAdjust="spacingAndGlyphs" textLength="250" x="438" y="763.0078">StateStore linkStateStore</text><text fill="#C5C8C6" font-family="Monaco" font-size="16" lengthAdjust="spacingAndGlyphs" textLength="470" x="438" y="784.3438">SessionTimingController sessionTimingController</text><text fill="#C5C8C6" font-family="Monaco" font-size="16" lengthAdjust="spacingAndGlyphs" textLength="480" x="438" y="805.6797">ReduxAbletonTempoClockController clockController</text><line style="stroke: #B294BB; stroke-width: 1.5;" x1="433" x2="923" y1="813.6797" y2="813.6797"/><ellipse cx="392" cy="755.5" fill="#1D1F21" filter="url(#f1x4std1c1dbnr)" rx="5" ry="5" style="stroke: #B294BB; stroke-width: 1.5;"/><text fill="#B294BB" font-family="Monaco" font-size="16" lengthAdjust="spacingAndGlyphs" textLength="70" x="357" y="777.8359">owa.api</text><!--class quarks.owa.SessionTimingController--><rect fill="#1D1F21" filter="url(#f1x4std1c1dbnr)" height="111.3438" id="quarks.owa.SessionTimingController" style="stroke: #B294BB; stroke-width: 1.5;" width="902" x="22" y="882"/><text fill="#B294BB" font-family="Monaco" font-size="16" lengthAdjust="spacingAndGlyphs" textLength="230" x="358" y="904.3359">SessionTimingController</text><line style="stroke: #B294BB; stroke-width: 1.5;" x1="23" x2="923" y1="913.3359" y2="913.3359"/><text fill="#C5C8C6" font-family="Monaco" font-size="16" lengthAdjust="spacingAndGlyphs" textLength="480" x="28" y="934.6719">ReduxAbletonTempoClockController clockController</text><text fill="#C5C8C6" font-family="Monaco" font-size="16" lengthAdjust="spacingAndGlyphs" textLength="200" x="28" y="956.0078">StateStore linkStore</text><line style="stroke: #B294BB; stroke-width: 1.5;" x1="23" x2="923" y1="964.0078" y2="964.0078"/><text fill="#C5C8C6" font-family="Monaco" font-size="16" lengthAdjust="spacingAndGlyphs" textLength="890" x="28" y="985.3438">Handles scheduling the timing to transition phases (when?, can this be in reducers too ?)</text><!--class quarks.supercollider_redux.StateStore--><rect fill="#1D1F21" filter="url(#f1x4std1c1dbnr)" height="47.3359" id="quarks.supercollider_redux.StateStore" style="stroke: #B294BB; stroke-width: 1.5;" width="106" x="582" y="1053"/><text fill="#B294BB" font-family="Monaco" font-size="16" lengthAdjust="spacingAndGlyphs" textLength="100" x="585" y="1075.3359">StateStore</text><line style="stroke: #B294BB; stroke-width: 1.5;" x1="583" x2="687" y1="1084.3359" y2="1084.3359"/><line style="stroke: #B294BB; stroke-width: 1.5;" x1="583" x2="687" y1="1092.3359" y2="1092.3359"/><!--class quarks.supercollider_redux.ReduxAbletonTempoClockController--><rect fill="#1D1F21" filter="url(#f1x4std1c1dbnr)" height="47.3359" id="quarks.supercollider_redux.ReduxAbletonTempoClockController" style="stroke: #B294BB; stroke-width: 1.5;" width="326" x="723" y="1053"/><text fill="#B294BB" font-family="Monaco" font-size="16" lengthAdjust="spacingAndGlyphs" textLength="320" x="726" y="1075.3359">ReduxAbletonTempoClockController</text><line style="stroke: #B294BB; stroke-width: 1.5;" x1="724" x2="1048" y1="1084.3359" y2="1084.3359"/><line style="stroke: #B294BB; stroke-width: 1.5;" x1="724" x2="1048" y1="1092.3359" y2="1092.3359"/><!--link nodejs.owa.OWAController to redux.Store--><path d="M2442.2353,255.3452 C2703.6389,288.6345 3025.7859,349.7696 3109,454 C3358.6857,766.7457 2442.9372,909.7331 2269.0398,933.7945 " fill="none" id="nodejs.owa.OWAController-redux.Store" style="stroke: #C5C8C6; stroke-width: 1.0;"/><polygon fill="#C5C8C6" points="2429.0498,253.6829,2434.5024,258.4019,2440.9556,255.1838,2435.503,250.4648,2429.0498,253.6829" style="stroke: #C5C8C6; stroke-width: 1.0;"/><!--link nodejs.owa.OWAController to nodejs.owa.GUIInputController--><path d="M1723.7968,320.0745 C1594.6404,358.4029 1448.6374,404.8754 1318,454 C1309.1812,457.3162 1300.1944,460.8399 1291.1605,464.4969 " fill="none" id="nodejs.owa.OWAController-nodejs.owa.GUIInputController" style="stroke: #C5C8C6; stroke-width: 1.0;"/><polygon fill="#1D1F21" points="1736.6422,316.2729,1729.7537,314.1401,1725.1356,319.6784,1732.0241,321.8112,1736.6422,316.2729" style="stroke: #C5C8C6; stroke-width: 1.0;"/><!--link nodejs.owa.GUIInputControllerlol9 to nodejs.owa.GUIInputController--><path d="M1043.2814,226.1791 C1044.5219,247.332 1050.2063,329.126 1067,394 C1073.0199,417.255 1081.5837,441.8447 1090.2491,464.14 " fill="none" id="nodejs.owa.GUIInputControllerlol9-nodejs.owa.GUIInputController" style="stroke: #C5C8C6; stroke-width: 1.0;"/><!--link nodejs.owa.GUIInputController to nodejs.owa.OSCActionListener--><path d="M1301.4778,623.1587 C1307.0225,625.1923 1312.5389,627.1457 1318,629 C1406.6978,659.1162 1505.9855,684.6593 1594.8871,704.7375 " fill="none" id="nodejs.owa.GUIInputController-nodejs.owa.OSCActionListener" style="stroke: #C5C8C6; stroke-width: 1.0;"/><polygon fill="#C5C8C6" points="1289.3049,618.5859,1293.515,624.4404,1300.5384,622.8059,1296.3283,616.9514,1289.3049,618.5859" style="stroke: #C5C8C6; stroke-width: 1.0;"/><!--link nodejs.owa.GUIInputController to redux.Store--><path d="M1294.1225,622.5529 C1302.1065,624.9838 1310.0893,627.1562 1318,629 C1406.4601,649.6176 2062.329,602.5096 2135,657 C2199.7693,705.5656 2162.5008,754.6112 2192,830 C2203.5097,859.4146 2218.9038,892.3416 2229.3438,913.9106 " fill="none" id="nodejs.owa.GUIInputController-redux.Store" style="stroke: #C5C8C6; stroke-width: 1.0;"/><polygon fill="#C5C8C6" points="1281.5852,618.53,1286.0762,624.1719,1293.0114,622.1963,1288.5204,616.5544,1281.5852,618.53" style="stroke: #C5C8C6; stroke-width: 1.0;"/><!--link nodejs.owa.OSCActionListener to redux.Store--><path d="M2009.027,827.84 C2085.0899,863.7971 2169.7444,903.8155 2212.6852,924.1148 " fill="none" id="nodejs.owa.OSCActionListener-redux.Store" style="stroke: #C5C8C6; stroke-width: 1.0;"/><polygon fill="#C5C8C6" points="1996.9008,822.1077,2000.6157,828.2883,2007.7497,827.2363,2004.0348,821.0557,1996.9008,822.1077" style="stroke: #C5C8C6; stroke-width: 1.0;"/><!--link nodejs.owa.OWAController to nodejs.owa.AbletonLinkController--><path d="M2441.2896,384.5781 C2511.425,416.5986 2581.1721,448.4418 2639.3236,474.991 " fill="none" id="nodejs.owa.OWAController-nodejs.owa.AbletonLinkController" style="stroke: #C5C8C6; stroke-width: 1.0;"/><polygon fill="#C5C8C6" points="2429.1156,379.02,2432.9124,385.1506,2440.0317,384.0038,2436.2349,377.8732,2429.1156,379.02" style="stroke: #C5C8C6; stroke-width: 1.0;"/><!--link nodejs.owa.AbletonLinkController to redux.Store--><path d="M2683.0931,615.6822 C2555.6396,708.4609 2344.9569,861.8255 2269.2127,916.9628 " fill="none" id="nodejs.owa.AbletonLinkController-redux.Store" style="stroke: #C5C8C6; stroke-width: 1.0;"/><polygon fill="#C5C8C6" points="2693.64,608.0047,2686.435,608.3019,2683.9382,615.067,2691.1432,614.7698,2693.64,608.0047" style="stroke: #C5C8C6; stroke-width: 1.0;"/><!--link nodejs.owa.OWAController to nodejs.owa.SoundController--><path d="M2083,407.781 C2083,423.6486 2083,439.1592 2083,453.667 " fill="none" id="nodejs.owa.OWAController-nodejs.owa.SoundController" style="stroke: #C5C8C6; stroke-width: 1.0;"/><polygon fill="#C5C8C6" points="2083,394.3824,2079,400.3824,2083,406.3824,2087,400.3824,2083,394.3824" style="stroke: #C5C8C6; stroke-width: 1.0;"/><!--link nodejs.owa.SoundController to nodejs.owa.OSCActionListener--><path d="M1980.5277,638.1038 C1962.2984,655.2891 1943.6861,672.8356 1926.5957,688.9473 " fill="none" id="nodejs.owa.SoundController-nodejs.owa.OSCActionListener" style="stroke: #C5C8C6; stroke-width: 1.0;"/><polygon fill="#C5C8C6" points="1990.0154,629.1595,1982.9057,630.3647,1981.2838,637.3911,1988.3934,636.1858,1990.0154,629.1595" style="stroke: #C5C8C6; stroke-width: 1.0;"/><!--link nodejs.owa.SoundController to redux.Store--><path d="M2186.2778,640.1527 C2189.8429,645.6484 2193.1143,651.2733 2196,657 C2239.8337,743.9883 2242.8168,863.7067 2241.8912,913.8792 " fill="none" id="nodejs.owa.SoundController-redux.Store" style="stroke: #C5C8C6; stroke-width: 1.0;"/><polygon fill="#C5C8C6" points="2178.5768,629.0626,2178.7135,636.2724,2185.4213,638.9192,2185.2846,631.7094,2178.5768,629.0626" style="stroke: #C5C8C6; stroke-width: 1.0;"/><!--link nodejs.owa.SoundController to quarks.owa.OWAController--><path d="M1721.8848,626.6435 C1716.2236,627.4716 1710.5925,628.2584 1705,629 C1534.6013,651.5966 1100.3583,622.333 932,657 C898.2225,663.9552 863.0809,674.939 830.0924,687.0924 " fill="none" id="nodejs.owa.SoundController-quarks.owa.OWAController" style="stroke: #C5C8C6; stroke-width: 1.0;"/><polygon fill="#C5C8C6" points="825.2412,688.8936,835.0707,689.5107,829.9285,687.1532,832.286,682.011,825.2412,688.8936" style="stroke: #C5C8C6; stroke-width: 1.0;"/><text fill="#C5C8C6" font-family="Monaco" font-size="16" lengthAdjust="spacingAndGlyphs" textLength="70" x="1643.8387" y="624.4955">owa.api</text><!--link nodejs.owa.OWAController to nodejs.owa.LightingController--><path d="M1762.3173,400.6832 C1689.7921,441.3201 1620.2867,480.2651 1572.8282,506.8567 " fill="none" id="nodejs.owa.OWAController-nodejs.owa.LightingController" style="stroke: #C5C8C6; stroke-width: 1.0;"/><polygon fill="#C5C8C6" points="1773.9802,394.1484,1766.7906,393.5917,1763.5115,400.0142,1770.7011,400.5708,1773.9802,394.1484" style="stroke: #C5C8C6; stroke-width: 1.0;"/><!--link nodejs.owa.gui.OWAUIApp to nodejs.owa.GUIInputController--><path d="M1195.3626,255.6036 C1183.2935,303.9552 1161.0161,393.2044 1144.5502,459.1706 " fill="none" id="nodejs.owa.gui.OWAUIApp-nodejs.owa.GUIInputController" style="stroke: #C5C8C6; stroke-width: 1.0;"/><polygon fill="#C5C8C6" points="1143.2754,464.2778,1149.3359,456.5144,1144.4863,459.4266,1141.574,454.577,1143.2754,464.2778" style="stroke: #C5C8C6; stroke-width: 1.0;"/><text fill="#C5C8C6" font-family="Monaco" font-size="16" lengthAdjust="spacingAndGlyphs" textLength="100" x="1085.6508" y="280.4648">GUI_OSC_IN</text><!--link quarks.owa.OWAController to quarks.supercollider_redux.StateStore--><path d="M891.2256,829.6471 C910.7975,844.1726 928.085,861.4567 941,882 C969.1492,926.7756 976.7843,962.0549 941,1001 C905.3893,1039.7563 753.9274,1001.6019 705,1021 C687.2667,1028.0307 670.4145,1041.1175 657.6904,1052.8178 " fill="none" id="quarks.owa.OWAController-quarks.supercollider_redux.StateStore" style="stroke: #C5C8C6; stroke-width: 1.0;"/><polygon fill="#C5C8C6" points="880.4638,822.0798,883.0711,828.803,890.28,828.9821,887.6727,822.2589,880.4638,822.0798" style="stroke: #C5C8C6; stroke-width: 1.0;"/><!--link quarks.owa.OWAController to quarks.supercollider_redux.ReduxAbletonTempoClockController--><path d="M927.9993,829.3747 C948.2507,843.8879 966.1912,861.2445 980,882 C1009.2961,926.0338 1002.8645,953.3088 980,1001 C969.5936,1022.7058 949.5678,1040.146 930.6649,1052.7728 " fill="none" id="quarks.owa.OWAController-quarks.supercollider_redux.ReduxAbletonTempoClockController" style="stroke: #C5C8C6; stroke-width: 1.0;"/><polygon fill="#C5C8C6" points="917.2082,822.0414,919.9225,828.7222,927.1333,828.7862,924.419,822.1054,917.2082,822.0414" style="stroke: #C5C8C6; stroke-width: 1.0;"/><!--link quarks.owa.OWAControllerlol36 to quarks.owa.OWAController--><path d="M397.0273,755.5 C408.6431,755.5 420.2588,755.5 431.8745,755.5 " fill="none" id="quarks.owa.OWAControllerlol36-quarks.owa.OWAController" style="stroke: #C5C8C6; stroke-width: 1.0;"/><!--link quarks.owa.OWAController to quarks.owa.SessionTimingController--><path d="M592.9029,831.0496 C573.7464,848.0568 553.7545,865.8058 535.7101,881.8257 " fill="none" id="quarks.owa.OWAController-quarks.owa.SessionTimingController" style="stroke: #C5C8C6; stroke-width: 1.0;"/><polygon fill="#C5C8C6" points="602.8296,822.2366,595.6871,823.2288,593.8559,830.2035,600.9984,829.2113,602.8296,822.2366" style="stroke: #C5C8C6; stroke-width: 1.0;"/><!--link quarks.owa.SessionTimingController to quarks.supercollider_redux.ReduxAbletonTempoClockController--><path d="M650.425,997.2145 C708.8672,1016.8839 770.4797,1037.6203 816.0315,1052.9513 " fill="none" id="quarks.owa.SessionTimingController-quarks.supercollider_redux.ReduxAbletonTempoClockController" style="stroke: #C5C8C6; stroke-width: 1.0;"/><polygon fill="#C5C8C6" points="638.0091,993.0357,642.4198,998.7406,649.3823,996.8634,644.9716,991.1585,638.0091,993.0357" style="stroke: #C5C8C6; stroke-width: 1.0;"/><!--link quarks.owa.SessionTimingController to quarks.supercollider_redux.StateStore--><path d="M547.9386,1001.7992 C569.0814,1019.9402 590.778,1038.5565 607.2232,1052.6668 " fill="none" id="quarks.owa.SessionTimingController-quarks.supercollider_redux.StateStore" style="stroke: #C5C8C6; stroke-width: 1.0;"/><polygon fill="#C5C8C6" points="537.9582,993.2357,539.9071,1000.1785,547.0654,1001.0498,545.1165,994.107,537.9582,993.2357" style="stroke: #C5C8C6; stroke-width: 1.0;"/><!--
@startuml
skinparam backgroundColor #1d1f21
skinparam defaultFontName Monaco
skinparam defaultFontColor #c5c8c6
skinparam defaultFontSize 16
hide circle
skinparam class {
  backgroundColor #1d1f21
  fontColor #b294bb
  borderColor #b294bb
  arrowColor #c5c8c6
}
skinparam object {
  backgroundColor #1d1f21
  fontColor #f0c674
  borderColor #f0c674
  arrowColor #c5c8c6
}
skinparam state {
  backgroundColor #1d1f21
  borderColor #c5c8c6
  arrowColor #c5c8c6
}
skinparam sequenceParticipant {
  backgroundColor #1d1f21
  borderColor #c5c8c6
}
skinparam sequenceLifeLine {
  borderColor #c5c8c6
}
skinparam sequence {
  arrowColor #c5c8c6
}
skinparam component {
  backgroundColor #1d1f21
  borderColor #c5c8c6
}
skinparam interface {
  backgroundColor #1d1f21
  borderColor #c5c8c6
}
skinparam component {
  backgroundColor #1d1f21
  borderColor #c5c8c6
}

namespace nodejs.owa {
  class OWAController {
    Top level entity for controlling everything.
    Entry point, starts all sub-controllers.
    \n
    Main state store for OWA app
    redux.Store owaStore
    \n
    A separate redux state store for the Ableton Link state.  It changes
    very frequently and thus does not need to be in the same store.
    redux.Store linkStore

    inputController
    soundController
  }
  OWAController *- - redux.Store

  class GUIInputController {
    
    Converts messages from gui UI into
    dispatched actions.

    oscActionListener
    store
  }
  OWAController o- - GUIInputController
  GUI_OSC_IN ()- - GUIInputController
  GUIInputController *- - OSCActionListener
  GUIInputController *- - redux.Store
  

  class OSCActionListener {
    Forward actions from osc.js to a redux state store.

    store
    oscSocket
  }
  OSCActionListener *- - redux.Store

  class AbletonLinkController {
    Creates an Ableton Link client and forwards the state to the
    store.

    linkStore
  }
  OWAController *- - AbletonLinkController
  AbletonLinkController *- - redux.Store

  class SoundController {
    Forwards state changes to SuperCollider and forwards dispatches from SC
    to the store.

    OSCActionListener actionListener
    store
    linkStore
  }
  OWAController *- - SoundController
  SoundController *- - OSCActionListener
  SoundController *- - redux.Store
  SoundController "owa.api" -down-> quarks.owa.OWAController

  class LightingController {
    Top level controller for lighting.
  }
  OWAController *- - LightingController






  namespace gui {
    class OWAUIApp {
      Entry point for the GUI
    }
    OWAUIApp "GUI_OSC_IN" - -> nodejs.owa.GUIInputController
  }

}

namespace quarks.owa {
  class OWAController {
    StateStore owaStateStore
    StateStore linkStateStore
    SessionTimingController sessionTimingController
    ReduxAbletonTempoClockController clockController
  }
  OWAController *- - quarks.supercollider_redux.StateStore
  OWAController *- - quarks.supercollider_redux.ReduxAbletonTempoClockController
  owa.api ()- OWAController

  class SessionTimingController {
    Handles scheduling the timing to transition phases (when?, can this be in reducers too ?)
    
    ReduxAbletonTempoClockController clockController
    StateStore linkStore
  }
  OWAController *- - SessionTimingController
  SessionTimingController *- - quarks.supercollider_redux.ReduxAbletonTempoClockController
  SessionTimingController *- - quarks.supercollider_redux.StateStore
}


@enduml

PlantUML version 1.2018.01(Sun Jan 28 10:08:22 PST 2018)
(GPL source distribution)
Java Runtime: Java(TM) SE Runtime Environment
JVM: Java HotSpot(TM) 64-Bit Server VM
Java Version: 9.0.4+11
Operating System: Mac OS X
OS Version: 10.11.6
Default Encoding: UTF-8
Language: en
Country: US
--></g></svg>