<?xml version="1.0" encoding="UTF-8" standalone="no"?><svg xmlns="http://www.w3.org/2000/svg" xmlns:xlink="http://www.w3.org/1999/xlink" contentScriptType="application/ecmascript" contentStyleType="text/css" height="1120px" preserveAspectRatio="none" style="width:2779px;height:1120px;background:#1D1F21;" version="1.1" viewBox="0 0 2779 1120" width="2779px" zoomAndPan="magnify"><defs><filter height="300%" id="flk34tvfxe6yy" width="300%" x="-1" y="-1"><feGaussianBlur result="blurOut" stdDeviation="2.0"/><feColorMatrix in="blurOut" result="blurOut2" type="matrix" values="0 0 0 0 0 0 0 0 0 0 0 0 0 0 0 0 0 0 .4 0"/><feOffset dx="4.0" dy="4.0" in="blurOut2" result="blurOut3"/><feBlend in="SourceGraphic" in2="blurOut3" mode="normal"/></filter></defs><g><!--cluster nodejs.owa--><polygon fill="#1D1F21" filter="url(#flk34tvfxe6yy)" points="940,16,1046,16,1053,43.3359,2712,43.3359,2712,830,940,830,940,16" style="stroke: #000000; stroke-width: 1.5;"/><line style="stroke: #000000; stroke-width: 1.5;" x1="940" x2="1053" y1="43.3359" y2="43.3359"/><text fill="#C5C8C6" font-family="Monaco" font-size="16" font-weight="bold" lengthAdjust="spacingAndGlyphs" textLength="100" x="944" y="35.3359">nodejs.owa</text><!--cluster nodejs.owa.gui--><polygon fill="#1D1F21" filter="url(#flk34tvfxe6yy)" points="1030,154.5,1066,154.5,1073,181.8359,1288,181.8359,1288,263.5,1030,263.5,1030,154.5" style="stroke: #000000; stroke-width: 1.5;"/><line style="stroke: #000000; stroke-width: 1.5;" x1="1030" x2="1073" y1="181.8359" y2="181.8359"/><text fill="#C5C8C6" font-family="Monaco" font-size="16" font-weight="bold" lengthAdjust="spacingAndGlyphs" textLength="30" x="1034" y="173.8359">gui</text><!--cluster redux--><polygon fill="#1D1F21" filter="url(#flk34tvfxe6yy)" points="1818,882,1874,882,1881,909.3359,1890,909.3359,1890,969,1818,969,1818,882" style="stroke: #000000; stroke-width: 1.5;"/><line style="stroke: #000000; stroke-width: 1.5;" x1="1818" x2="1881" y1="909.3359" y2="909.3359"/><text fill="#C5C8C6" font-family="Monaco" font-size="16" font-weight="bold" lengthAdjust="spacingAndGlyphs" textLength="50" x="1822" y="901.3359">redux</text><!--cluster quarks.owa--><polygon fill="#1D1F21" filter="url(#flk34tvfxe6yy)" points="14,657,120,657,127,684.3359,932,684.3359,932,1001,14,1001,14,657" style="stroke: #000000; stroke-width: 1.5;"/><line style="stroke: #000000; stroke-width: 1.5;" x1="14" x2="127" y1="684.3359" y2="684.3359"/><text fill="#C5C8C6" font-family="Monaco" font-size="16" font-weight="bold" lengthAdjust="spacingAndGlyphs" textLength="100" x="18" y="676.3359">quarks.owa</text><!--cluster quarks.supercollider_redux--><polygon fill="#1D1F21" filter="url(#flk34tvfxe6yy)" points="574,1021,840,1021,847,1048.3359,1057,1048.3359,1057,1108,574,1108,574,1021" style="stroke: #000000; stroke-width: 1.5;"/><line style="stroke: #000000; stroke-width: 1.5;" x1="574" x2="847" y1="1048.3359" y2="1048.3359"/><text fill="#C5C8C6" font-family="Monaco" font-size="16" font-weight="bold" lengthAdjust="spacingAndGlyphs" textLength="260" x="578" y="1040.3359">quarks.supercollider_redux</text><!--class nodejs.owa.OWAController--><rect fill="#1D1F21" filter="url(#flk34tvfxe6yy)" height="346.0391" id="nodejs.owa.OWAController" style="stroke: #B294BB; stroke-width: 1.5;" width="692" x="1681" y="48"/><text fill="#B294BB" font-family="Monaco" font-size="16" lengthAdjust="spacingAndGlyphs" textLength="130" x="1962" y="70.3359">OWAController</text><line style="stroke: #B294BB; stroke-width: 1.5;" x1="1682" x2="2372" y1="79.3359" y2="79.3359"/><text fill="#C5C8C6" font-family="Monaco" font-size="16" lengthAdjust="spacingAndGlyphs" textLength="440" x="1687" y="100.6719">Top level entity for controlling everything.</text><text fill="#C5C8C6" font-family="Monaco" font-size="16" lengthAdjust="spacingAndGlyphs" textLength="400" x="1687" y="122.0078">Entry point, starts all sub-controllers.</text><text fill="#C5C8C6" font-family="Monaco" font-size="16" lengthAdjust="spacingAndGlyphs" textLength="0" x="1697" y="143.3438"/><text fill="#C5C8C6" font-family="Monaco" font-size="16" lengthAdjust="spacingAndGlyphs" textLength="0" x="1697" y="164.6797"/><text fill="#C5C8C6" font-family="Monaco" font-size="16" lengthAdjust="spacingAndGlyphs" textLength="280" x="1687" y="186.0156">Main state store for OWA app</text><text fill="#C5C8C6" font-family="Monaco" font-size="16" lengthAdjust="spacingAndGlyphs" textLength="200" x="1687" y="207.3516">redux.Store owaStore</text><text fill="#C5C8C6" font-family="Monaco" font-size="16" lengthAdjust="spacingAndGlyphs" textLength="0" x="1697" y="228.6875"/><text fill="#C5C8C6" font-family="Monaco" font-size="16" lengthAdjust="spacingAndGlyphs" textLength="0" x="1697" y="250.0234"/><text fill="#C5C8C6" font-family="Monaco" font-size="16" lengthAdjust="spacingAndGlyphs" textLength="680" x="1687" y="271.3594">A separate redux state store for the Ableton Link state.  It changes</text><text fill="#C5C8C6" font-family="Monaco" font-size="16" lengthAdjust="spacingAndGlyphs" textLength="630" x="1687" y="292.6953">very frequently and thus does not need to be in the same store.</text><text fill="#C5C8C6" font-family="Monaco" font-size="16" lengthAdjust="spacingAndGlyphs" textLength="210" x="1687" y="314.0313">redux.Store linkStore</text><text fill="#C5C8C6" font-family="Monaco" font-size="16" lengthAdjust="spacingAndGlyphs" textLength="0" x="1697" y="335.3672"/><text fill="#C5C8C6" font-family="Monaco" font-size="16" lengthAdjust="spacingAndGlyphs" textLength="150" x="1687" y="356.7031">inputController</text><text fill="#C5C8C6" font-family="Monaco" font-size="16" lengthAdjust="spacingAndGlyphs" textLength="150" x="1687" y="378.0391">soundController</text><line style="stroke: #B294BB; stroke-width: 1.5;" x1="1682" x2="2372" y1="386.0391" y2="386.0391"/><!--class nodejs.owa.GUIInputController--><rect fill="#1D1F21" filter="url(#flk34tvfxe6yy)" height="154.0156" id="nodejs.owa.GUIInputController" style="stroke: #B294BB; stroke-width: 1.5;" width="352" x="948" y="464.5"/><text fill="#B294BB" font-family="Monaco" font-size="16" lengthAdjust="spacingAndGlyphs" textLength="180" x="1034" y="486.8359">GUIInputController</text><line style="stroke: #B294BB; stroke-width: 1.5;" x1="949" x2="1299" y1="495.8359" y2="495.8359"/><text fill="#C5C8C6" font-family="Monaco" font-size="16" lengthAdjust="spacingAndGlyphs" textLength="340" x="954" y="517.1719">Converts messages from gui UI into</text><text fill="#C5C8C6" font-family="Monaco" font-size="16" lengthAdjust="spacingAndGlyphs" textLength="190" x="954" y="538.5078">dispatched actions.</text><text fill="#C5C8C6" font-family="Monaco" font-size="16" lengthAdjust="spacingAndGlyphs" textLength="0" x="964" y="559.8438"/><text fill="#C5C8C6" font-family="Monaco" font-size="16" lengthAdjust="spacingAndGlyphs" textLength="170" x="954" y="581.1797">oscActionListener</text><text fill="#C5C8C6" font-family="Monaco" font-size="16" lengthAdjust="spacingAndGlyphs" textLength="50" x="954" y="602.5156">store</text><line style="stroke: #B294BB; stroke-width: 1.5;" x1="949" x2="1299" y1="610.5156" y2="610.5156"/><ellipse cx="998" cy="221" fill="#1D1F21" filter="url(#flk34tvfxe6yy)" rx="5" ry="5" style="stroke: #B294BB; stroke-width: 1.5;"/><text fill="#B294BB" font-family="Monaco" font-size="16" lengthAdjust="spacingAndGlyphs" textLength="100" x="948" y="243.3359">GUI_OSC_IN</text><!--class nodejs.owa.OSCActionListener--><rect fill="#1D1F21" filter="url(#flk34tvfxe6yy)" height="132.6797" id="nodejs.owa.OSCActionListener" style="stroke: #B294BB; stroke-width: 1.5;" width="522" x="1208" y="689"/><text fill="#B294BB" font-family="Monaco" font-size="16" lengthAdjust="spacingAndGlyphs" textLength="170" x="1384" y="711.3359">OSCActionListener</text><line style="stroke: #B294BB; stroke-width: 1.5;" x1="1209" x2="1729" y1="720.3359" y2="720.3359"/><text fill="#C5C8C6" font-family="Monaco" font-size="16" lengthAdjust="spacingAndGlyphs" textLength="510" x="1214" y="741.6719">Forward actions from osc.js to a redux state store.</text><text fill="#C5C8C6" font-family="Monaco" font-size="16" lengthAdjust="spacingAndGlyphs" textLength="0" x="1224" y="763.0078"/><text fill="#C5C8C6" font-family="Monaco" font-size="16" lengthAdjust="spacingAndGlyphs" textLength="50" x="1214" y="784.3438">store</text><text fill="#C5C8C6" font-family="Monaco" font-size="16" lengthAdjust="spacingAndGlyphs" textLength="90" x="1214" y="805.6797">oscSocket</text><line style="stroke: #B294BB; stroke-width: 1.5;" x1="1209" x2="1729" y1="813.6797" y2="813.6797"/><!--class nodejs.owa.AbletonLinkController--><rect fill="#1D1F21" filter="url(#flk34tvfxe6yy)" height="132.6797" id="nodejs.owa.AbletonLinkController" style="stroke: #B294BB; stroke-width: 1.5;" width="612" x="2092" y="475"/><text fill="#B294BB" font-family="Monaco" font-size="16" lengthAdjust="spacingAndGlyphs" textLength="210" x="2293" y="497.3359">AbletonLinkController</text><line style="stroke: #B294BB; stroke-width: 1.5;" x1="2093" x2="2703" y1="506.3359" y2="506.3359"/><text fill="#C5C8C6" font-family="Monaco" font-size="16" lengthAdjust="spacingAndGlyphs" textLength="600" x="2098" y="527.6719">Creates an Ableton Link client and forwards the state to the</text><text fill="#C5C8C6" font-family="Monaco" font-size="16" lengthAdjust="spacingAndGlyphs" textLength="60" x="2098" y="549.0078">store.</text><text fill="#C5C8C6" font-family="Monaco" font-size="16" lengthAdjust="spacingAndGlyphs" textLength="0" x="2108" y="570.3438"/><text fill="#C5C8C6" font-family="Monaco" font-size="16" lengthAdjust="spacingAndGlyphs" textLength="90" x="2098" y="591.6797">linkStore</text><line style="stroke: #B294BB; stroke-width: 1.5;" x1="2093" x2="2703" y1="599.6797" y2="599.6797"/><!--class nodejs.owa.SoundController--><rect fill="#1D1F21" filter="url(#flk34tvfxe6yy)" height="175.3516" id="nodejs.owa.SoundController" style="stroke: #B294BB; stroke-width: 1.5;" width="722" x="1335" y="454"/><text fill="#B294BB" font-family="Monaco" font-size="16" lengthAdjust="spacingAndGlyphs" textLength="150" x="1621" y="476.3359">SoundController</text><line style="stroke: #B294BB; stroke-width: 1.5;" x1="1336" x2="2056" y1="485.3359" y2="485.3359"/><text fill="#C5C8C6" font-family="Monaco" font-size="16" lengthAdjust="spacingAndGlyphs" textLength="710" x="1341" y="506.6719">Forwards state changes to SuperCollider and forwards dispatches from SC</text><text fill="#C5C8C6" font-family="Monaco" font-size="16" lengthAdjust="spacingAndGlyphs" textLength="130" x="1341" y="528.0078">to the store.</text><text fill="#C5C8C6" font-family="Monaco" font-size="16" lengthAdjust="spacingAndGlyphs" textLength="0" x="1351" y="549.3438"/><text fill="#C5C8C6" font-family="Monaco" font-size="16" lengthAdjust="spacingAndGlyphs" textLength="320" x="1341" y="570.6797">OSCActionListener actionListener</text><text fill="#C5C8C6" font-family="Monaco" font-size="16" lengthAdjust="spacingAndGlyphs" textLength="50" x="1341" y="592.0156">store</text><text fill="#C5C8C6" font-family="Monaco" font-size="16" lengthAdjust="spacingAndGlyphs" textLength="90" x="1341" y="613.3516">linkStore</text><line style="stroke: #B294BB; stroke-width: 1.5;" x1="1336" x2="2056" y1="621.3516" y2="621.3516"/><!--class nodejs.owa.gui.OWAUIApp--><rect fill="#1D1F21" filter="url(#flk34tvfxe6yy)" height="68.6719" id="nodejs.owa.gui.OWAUIApp" style="stroke: #B294BB; stroke-width: 1.5;" width="242" x="1038" y="186.5"/><text fill="#B294BB" font-family="Monaco" font-size="16" lengthAdjust="spacingAndGlyphs" textLength="80" x="1119" y="208.8359">OWAUIApp</text><line style="stroke: #B294BB; stroke-width: 1.5;" x1="1039" x2="1279" y1="217.8359" y2="217.8359"/><text fill="#C5C8C6" font-family="Monaco" font-size="16" lengthAdjust="spacingAndGlyphs" textLength="230" x="1044" y="239.1719">Entry point for the GUI</text><line style="stroke: #B294BB; stroke-width: 1.5;" x1="1039" x2="1279" y1="247.1719" y2="247.1719"/><!--class redux.Store--><rect fill="#1D1F21" filter="url(#flk34tvfxe6yy)" height="47.3359" id="redux.Store" style="stroke: #B294BB; stroke-width: 1.5;" width="56" x="1826" y="914"/><text fill="#B294BB" font-family="Monaco" font-size="16" lengthAdjust="spacingAndGlyphs" textLength="50" x="1829" y="936.3359">Store</text><line style="stroke: #B294BB; stroke-width: 1.5;" x1="1827" x2="1881" y1="945.3359" y2="945.3359"/><line style="stroke: #B294BB; stroke-width: 1.5;" x1="1827" x2="1881" y1="953.3359" y2="953.3359"/><!--class quarks.owa.OWAController--><rect fill="#1D1F21" filter="url(#flk34tvfxe6yy)" height="132.6797" id="quarks.owa.OWAController" style="stroke: #B294BB; stroke-width: 1.5;" width="492" x="432" y="689"/><text fill="#B294BB" font-family="Monaco" font-size="16" lengthAdjust="spacingAndGlyphs" textLength="130" x="613" y="711.3359">OWAController</text><line style="stroke: #B294BB; stroke-width: 1.5;" x1="433" x2="923" y1="720.3359" y2="720.3359"/><text fill="#C5C8C6" font-family="Monaco" font-size="16" lengthAdjust="spacingAndGlyphs" textLength="240" x="438" y="741.6719">StateStore owaStateStore</text><text fill="#C5C8C6" font-family="Monaco" font-size="16" lengthAdjust="spacingAndGlyphs" textLength="250" x="438" y="763.0078">StateStore linkStateStore</text><text fill="#C5C8C6" font-family="Monaco" font-size="16" lengthAdjust="spacingAndGlyphs" textLength="470" x="438" y="784.3438">SessionTimingController sessionTimingController</text><text fill="#C5C8C6" font-family="Monaco" font-size="16" lengthAdjust="spacingAndGlyphs" textLength="480" x="438" y="805.6797">ReduxAbletonTempoClockController clockController</text><line style="stroke: #B294BB; stroke-width: 1.5;" x1="433" x2="923" y1="813.6797" y2="813.6797"/><ellipse cx="392" cy="755.5" fill="#1D1F21" filter="url(#flk34tvfxe6yy)" rx="5" ry="5" style="stroke: #B294BB; stroke-width: 1.5;"/><text fill="#B294BB" font-family="Monaco" font-size="16" lengthAdjust="spacingAndGlyphs" textLength="70" x="357" y="777.8359">owa.api</text><!--class quarks.owa.SessionTimingController--><rect fill="#1D1F21" filter="url(#flk34tvfxe6yy)" height="111.3438" id="quarks.owa.SessionTimingController" style="stroke: #B294BB; stroke-width: 1.5;" width="902" x="22" y="882"/><text fill="#B294BB" font-family="Monaco" font-size="16" lengthAdjust="spacingAndGlyphs" textLength="230" x="358" y="904.3359">SessionTimingController</text><line style="stroke: #B294BB; stroke-width: 1.5;" x1="23" x2="923" y1="913.3359" y2="913.3359"/><text fill="#C5C8C6" font-family="Monaco" font-size="16" lengthAdjust="spacingAndGlyphs" textLength="480" x="28" y="934.6719">ReduxAbletonTempoClockController clockController</text><text fill="#C5C8C6" font-family="Monaco" font-size="16" lengthAdjust="spacingAndGlyphs" textLength="200" x="28" y="956.0078">StateStore linkStore</text><line style="stroke: #B294BB; stroke-width: 1.5;" x1="23" x2="923" y1="964.0078" y2="964.0078"/><text fill="#C5C8C6" font-family="Monaco" font-size="16" lengthAdjust="spacingAndGlyphs" textLength="890" x="28" y="985.3438">Handles scheduling the timing to transition phases (when?, can this be in reducers too ?)</text><!--class quarks.supercollider_redux.StateStore--><rect fill="#1D1F21" filter="url(#flk34tvfxe6yy)" height="47.3359" id="quarks.supercollider_redux.StateStore" style="stroke: #B294BB; stroke-width: 1.5;" width="106" x="582" y="1053"/><text fill="#B294BB" font-family="Monaco" font-size="16" lengthAdjust="spacingAndGlyphs" textLength="100" x="585" y="1075.3359">StateStore</text><line style="stroke: #B294BB; stroke-width: 1.5;" x1="583" x2="687" y1="1084.3359" y2="1084.3359"/><line style="stroke: #B294BB; stroke-width: 1.5;" x1="583" x2="687" y1="1092.3359" y2="1092.3359"/><!--class quarks.supercollider_redux.ReduxAbletonTempoClockController--><rect fill="#1D1F21" filter="url(#flk34tvfxe6yy)" height="47.3359" id="quarks.supercollider_redux.ReduxAbletonTempoClockController" style="stroke: #B294BB; stroke-width: 1.5;" width="326" x="723" y="1053"/><text fill="#B294BB" font-family="Monaco" font-size="16" lengthAdjust="spacingAndGlyphs" textLength="320" x="726" y="1075.3359">ReduxAbletonTempoClockController</text><line style="stroke: #B294BB; stroke-width: 1.5;" x1="724" x2="1048" y1="1084.3359" y2="1084.3359"/><line style="stroke: #B294BB; stroke-width: 1.5;" x1="724" x2="1048" y1="1092.3359" y2="1092.3359"/><!--link nodejs.owa.OWAController to redux.Store--><path d="M2385.9612,300.4661 C2533.0889,340.9684 2679.0313,394.2756 2722,454 C2767.423,517.1358 2766.8525,565.4576 2722,629 C2617.6679,776.8069 2019.7708,904.3177 1882.2154,931.9579 " fill="none" id="nodejs.owa.OWAController-redux.Store" style="stroke: #C5C8C6; stroke-width: 1.0;"/><polygon fill="#C5C8C6" points="2373.0963,296.9574,2377.8323,302.3952,2384.6734,300.115,2379.9374,294.6772,2373.0963,296.9574" style="stroke: #C5C8C6; stroke-width: 1.0;"/><!--link nodejs.owa.OWAController to nodejs.owa.GUIInputController--><path d="M1668.2497,330.7127 C1555.2758,367.4411 1430.6229,410.2384 1318,454 C1309.4763,457.312 1300.7874,460.8015 1292.0449,464.4032 " fill="none" id="nodejs.owa.OWAController-nodejs.owa.GUIInputController" style="stroke: #C5C8C6; stroke-width: 1.0;"/><polygon fill="#1D1F21" points="1680.9044,326.608,1673.963,324.6544,1669.4899,330.3105,1676.4313,332.2641,1680.9044,326.608" style="stroke: #C5C8C6; stroke-width: 1.0;"/><!--link nodejs.owa.GUIInputControllerlol9 to nodejs.owa.GUIInputController--><path d="M997.8647,226.0249 C997.4618,247.2401 997.5678,331.2747 1022,394 C1031.4921,418.3693 1045.737,442.627 1060.5936,464.2226 " fill="none" id="nodejs.owa.GUIInputControllerlol9-nodejs.owa.GUIInputController" style="stroke: #C5C8C6; stroke-width: 1.0;"/><!--link nodejs.owa.GUIInputController to nodejs.owa.OSCActionListener--><path d="M1259.9353,625.8193 C1293.7441,646.7906 1329.5172,668.9803 1361.731,688.9621 " fill="none" id="nodejs.owa.GUIInputController-nodejs.owa.OSCActionListener" style="stroke: #C5C8C6; stroke-width: 1.0;"/><polygon fill="#C5C8C6" points="1248.5529,618.7589,1251.5432,625.3208,1258.7504,625.0843,1255.7601,618.5225,1248.5529,618.7589" style="stroke: #C5C8C6; stroke-width: 1.0;"/><!--link nodejs.owa.GUIInputController to redux.Store--><path d="M1295.635,622.6999 C1303.1186,625.0345 1310.5933,627.1531 1318,629 C1364.4565,640.584 1710.1399,627.6911 1748,657 C1812.0146,706.5561 1775.5008,754.6112 1805,830 C1816.5097,859.4146 1831.9038,892.3416 1842.3438,913.9106 " fill="none" id="nodejs.owa.GUIInputController-redux.Store" style="stroke: #C5C8C6; stroke-width: 1.0;"/><polygon fill="#C5C8C6" points="1283.0428,618.577,1287.5003,624.2454,1294.4471,622.311,1289.9896,616.6426,1283.0428,618.577" style="stroke: #C5C8C6; stroke-width: 1.0;"/><!--link nodejs.owa.OSCActionListener to redux.Store--><path d="M1622.027,827.84 C1698.0899,863.7971 1782.7444,903.8155 1825.6852,924.1148 " fill="none" id="nodejs.owa.OSCActionListener-redux.Store" style="stroke: #C5C8C6; stroke-width: 1.0;"/><polygon fill="#C5C8C6" points="1609.9008,822.1077,1613.6157,828.2883,1620.7497,827.2363,1617.0348,821.0557,1609.9008,822.1077" style="stroke: #C5C8C6; stroke-width: 1.0;"/><!--link nodejs.owa.OWAController to nodejs.owa.AbletonLinkController--><path d="M2237.5098,402.8555 C2267.1455,428.4573 2295.9138,453.3096 2320.714,474.734 " fill="none" id="nodejs.owa.OWAController-nodejs.owa.AbletonLinkController" style="stroke: #C5C8C6; stroke-width: 1.0;"/><polygon fill="#C5C8C6" points="2227.4307,394.1484,2229.3562,401.0977,2236.5115,401.9931,2234.586,395.0438,2227.4307,394.1484" style="stroke: #C5C8C6; stroke-width: 1.0;"/><!--link nodejs.owa.AbletonLinkController to redux.Store--><path d="M2296.0931,615.6822 C2168.6396,708.4609 1957.9569,861.8255 1882.2127,916.9628 " fill="none" id="nodejs.owa.AbletonLinkController-redux.Store" style="stroke: #C5C8C6; stroke-width: 1.0;"/><polygon fill="#C5C8C6" points="2306.64,608.0047,2299.435,608.3019,2296.9382,615.067,2304.1432,614.7698,2306.64,608.0047" style="stroke: #C5C8C6; stroke-width: 1.0;"/><!--link nodejs.owa.OWAController to nodejs.owa.SoundController--><path d="M1838.5329,403.4885 C1820.6042,420.8485 1803.0421,437.8535 1786.7105,453.667 " fill="none" id="nodejs.owa.OWAController-nodejs.owa.SoundController" style="stroke: #C5C8C6; stroke-width: 1.0;"/><polygon fill="#C5C8C6" points="1847.9374,394.3824,1840.8445,395.6825,1839.3165,402.7298,1846.4094,401.4298,1847.9374,394.3824" style="stroke: #C5C8C6; stroke-width: 1.0;"/><!--link nodejs.owa.SoundController to nodejs.owa.OSCActionListener--><path d="M1593.5277,638.1038 C1575.2984,655.2891 1556.6861,672.8356 1539.5957,688.9473 " fill="none" id="nodejs.owa.SoundController-nodejs.owa.OSCActionListener" style="stroke: #C5C8C6; stroke-width: 1.0;"/><polygon fill="#C5C8C6" points="1603.0154,629.1595,1595.9057,630.3647,1594.2838,637.3911,1601.3934,636.1858,1603.0154,629.1595" style="stroke: #C5C8C6; stroke-width: 1.0;"/><!--link nodejs.owa.SoundController to redux.Store--><path d="M1799.2778,640.1527 C1802.8429,645.6484 1806.1143,651.2733 1809,657 C1852.8337,743.9883 1855.8168,863.7067 1854.8912,913.8792 " fill="none" id="nodejs.owa.SoundController-redux.Store" style="stroke: #C5C8C6; stroke-width: 1.0;"/><polygon fill="#C5C8C6" points="1791.5768,629.0626,1791.7135,636.2724,1798.4213,638.9192,1798.2846,631.7094,1791.5768,629.0626" style="stroke: #C5C8C6; stroke-width: 1.0;"/><!--link nodejs.owa.SoundController to quarks.owa.OWAController--><path d="M1334.8446,626.3597 C1329.1958,627.276 1323.5781,628.1573 1318,629 C1147.9237,654.6947 1099.8162,619.2657 932,657 C899.1237,664.3924 864.8734,675.2993 832.5603,687.192 " fill="none" id="nodejs.owa.SoundController-quarks.owa.OWAController" style="stroke: #C5C8C6; stroke-width: 1.0;"/><polygon fill="#C5C8C6" points="827.8072,688.9535,837.6363,689.5766,832.4956,687.2159,834.8562,682.0752,827.8072,688.9535" style="stroke: #C5C8C6; stroke-width: 1.0;"/><text fill="#C5C8C6" font-family="Monaco" font-size="16" lengthAdjust="spacingAndGlyphs" textLength="70" x="1257.078" y="645.7848">owa.api</text><!--link nodejs.owa.gui.OWAUIApp to nodejs.owa.GUIInputController--><path d="M1155.2211,255.6036 C1149.9409,303.9552 1140.1945,393.2044 1132.9907,459.1706 " fill="none" id="nodejs.owa.gui.OWAUIApp-nodejs.owa.GUIInputController" style="stroke: #C5C8C6; stroke-width: 1.0;"/><polygon fill="#C5C8C6" points="1132.433,464.2778,1137.3865,455.7653,1132.9759,459.3074,1129.4338,454.8967,1132.433,464.2778" style="stroke: #C5C8C6; stroke-width: 1.0;"/><text fill="#C5C8C6" font-family="Monaco" font-size="16" lengthAdjust="spacingAndGlyphs" textLength="100" x="1046.314" y="280.4648">GUI_OSC_IN</text><!--link quarks.owa.OWAController to quarks.supercollider_redux.StateStore--><path d="M891.2256,829.6471 C910.7975,844.1726 928.085,861.4567 941,882 C969.1492,926.7756 976.7843,962.0549 941,1001 C905.3893,1039.7563 753.9274,1001.6019 705,1021 C687.2667,1028.0307 670.4145,1041.1175 657.6904,1052.8178 " fill="none" id="quarks.owa.OWAController-quarks.supercollider_redux.StateStore" style="stroke: #C5C8C6; stroke-width: 1.0;"/><polygon fill="#C5C8C6" points="880.4638,822.0798,883.0711,828.803,890.28,828.9821,887.6727,822.2589,880.4638,822.0798" style="stroke: #C5C8C6; stroke-width: 1.0;"/><!--link quarks.owa.OWAController to quarks.supercollider_redux.ReduxAbletonTempoClockController--><path d="M927.9993,829.3747 C948.2507,843.8879 966.1912,861.2445 980,882 C1009.2961,926.0338 1002.8645,953.3088 980,1001 C969.5936,1022.7058 949.5678,1040.146 930.6649,1052.7728 " fill="none" id="quarks.owa.OWAController-quarks.supercollider_redux.ReduxAbletonTempoClockController" style="stroke: #C5C8C6; stroke-width: 1.0;"/><polygon fill="#C5C8C6" points="917.2082,822.0414,919.9225,828.7222,927.1333,828.7862,924.419,822.1054,917.2082,822.0414" style="stroke: #C5C8C6; stroke-width: 1.0;"/><!--link quarks.owa.OWAControllerlol34 to quarks.owa.OWAController--><path d="M397.0273,755.5 C408.6431,755.5 420.2588,755.5 431.8745,755.5 " fill="none" id="quarks.owa.OWAControllerlol34-quarks.owa.OWAController" style="stroke: #C5C8C6; stroke-width: 1.0;"/><!--link quarks.owa.OWAController to quarks.owa.SessionTimingController--><path d="M592.9029,831.0496 C573.7464,848.0568 553.7545,865.8058 535.7101,881.8257 " fill="none" id="quarks.owa.OWAController-quarks.owa.SessionTimingController" style="stroke: #C5C8C6; stroke-width: 1.0;"/><polygon fill="#C5C8C6" points="602.8296,822.2366,595.6871,823.2288,593.8559,830.2035,600.9984,829.2113,602.8296,822.2366" style="stroke: #C5C8C6; stroke-width: 1.0;"/><!--link quarks.owa.SessionTimingController to quarks.supercollider_redux.ReduxAbletonTempoClockController--><path d="M650.425,997.2145 C708.8672,1016.8839 770.4797,1037.6203 816.0315,1052.9513 " fill="none" id="quarks.owa.SessionTimingController-quarks.supercollider_redux.ReduxAbletonTempoClockController" style="stroke: #C5C8C6; stroke-width: 1.0;"/><polygon fill="#C5C8C6" points="638.0091,993.0357,642.4198,998.7406,649.3823,996.8634,644.9716,991.1585,638.0091,993.0357" style="stroke: #C5C8C6; stroke-width: 1.0;"/><!--link quarks.owa.SessionTimingController to quarks.supercollider_redux.StateStore--><path d="M547.9386,1001.7992 C569.0814,1019.9402 590.778,1038.5565 607.2232,1052.6668 " fill="none" id="quarks.owa.SessionTimingController-quarks.supercollider_redux.StateStore" style="stroke: #C5C8C6; stroke-width: 1.0;"/><polygon fill="#C5C8C6" points="537.9582,993.2357,539.9071,1000.1785,547.0654,1001.0498,545.1165,994.107,537.9582,993.2357" style="stroke: #C5C8C6; stroke-width: 1.0;"/><!--
@startuml
skinparam backgroundColor #1d1f21
skinparam defaultFontName Monaco
skinparam defaultFontColor #c5c8c6
skinparam defaultFontSize 16
hide circle
skinparam class {
  backgroundColor #1d1f21
  fontColor #b294bb
  borderColor #b294bb
  arrowColor #c5c8c6
}
skinparam object {
  backgroundColor #1d1f21
  fontColor #f0c674
  borderColor #f0c674
  arrowColor #c5c8c6
}
skinparam state {
  backgroundColor #1d1f21
  borderColor #c5c8c6
  arrowColor #c5c8c6
}
skinparam sequenceParticipant {
  backgroundColor #1d1f21
  borderColor #c5c8c6
}
skinparam sequenceLifeLine {
  borderColor #c5c8c6
}
skinparam sequence {
  arrowColor #c5c8c6
}
skinparam component {
  backgroundColor #1d1f21
  borderColor #c5c8c6
}
skinparam interface {
  backgroundColor #1d1f21
  borderColor #c5c8c6
}
skinparam component {
  backgroundColor #1d1f21
  borderColor #c5c8c6
}

namespace nodejs.owa {
  class OWAController {
    Top level entity for controlling everything.
    Entry point, starts all sub-controllers.
    \n
    Main state store for OWA app
    redux.Store owaStore
    \n
    A separate redux state store for the Ableton Link state.  It changes
    very frequently and thus does not need to be in the same store.
    redux.Store linkStore

    inputController
    soundController
  }
  OWAController *- - redux.Store

  class GUIInputController {
    
    Converts messages from gui UI into
    dispatched actions.

    oscActionListener
    store
  }
  OWAController o- - GUIInputController
  GUI_OSC_IN ()- - GUIInputController
  GUIInputController *- - OSCActionListener
  GUIInputController *- - redux.Store
  

  class OSCActionListener {
    Forward actions from osc.js to a redux state store.

    store
    oscSocket
  }
  OSCActionListener *- - redux.Store

  class AbletonLinkController {
    Creates an Ableton Link client and forwards the state to the
    store.

    linkStore
  }
  OWAController *- - AbletonLinkController
  AbletonLinkController *- - redux.Store

  class SoundController {
    Forwards state changes to SuperCollider and forwards dispatches from SC
    to the store.

    OSCActionListener actionListener
    store
    linkStore
  }
  OWAController *- - SoundController
  SoundController *- - OSCActionListener
  SoundController *- - redux.Store
  SoundController "owa.api" -down-> quarks.owa.OWAController



  namespace gui {
    class OWAUIApp {
      Entry point for the GUI
    }
    OWAUIApp "GUI_OSC_IN" - -> nodejs.owa.GUIInputController
  }

}

namespace quarks.owa {
  class OWAController {
    StateStore owaStateStore
    StateStore linkStateStore
    SessionTimingController sessionTimingController
    ReduxAbletonTempoClockController clockController
  }
  OWAController *- - quarks.supercollider_redux.StateStore
  OWAController *- - quarks.supercollider_redux.ReduxAbletonTempoClockController
  owa.api ()- OWAController

  class SessionTimingController {
    Handles scheduling the timing to transition phases (when?, can this be in reducers too ?)
    
    ReduxAbletonTempoClockController clockController
    StateStore linkStore
  }
  OWAController *- - SessionTimingController
  SessionTimingController *- - quarks.supercollider_redux.ReduxAbletonTempoClockController
  SessionTimingController *- - quarks.supercollider_redux.StateStore
}


@enduml

PlantUML version 1.2018.01(Sun Jan 28 10:08:22 PST 2018)
(GPL source distribution)
Java Runtime: Java(TM) SE Runtime Environment
JVM: Java HotSpot(TM) 64-Bit Server VM
Java Version: 9.0.4+11
Operating System: Mac OS X
OS Version: 10.11.6
Default Encoding: UTF-8
Language: en
Country: US
--></g></svg>