<?xml version="1.0" encoding="UTF-8" standalone="no"?><svg xmlns="http://www.w3.org/2000/svg" xmlns:xlink="http://www.w3.org/1999/xlink" contentScriptType="application/ecmascript" contentStyleType="text/css" height="1378px" preserveAspectRatio="none" style="width:4250px;height:1378px;background:#1D1F21;" version="1.1" viewBox="0 0 4250 1378" width="4250px" zoomAndPan="magnify"><defs><filter height="300%" id="f1bsa0fn620qjg" width="300%" x="-1" y="-1"><feGaussianBlur result="blurOut" stdDeviation="2.0"/><feColorMatrix in="blurOut" result="blurOut2" type="matrix" values="0 0 0 0 0 0 0 0 0 0 0 0 0 0 0 0 0 0 .4 0"/><feOffset dx="4.0" dy="4.0" in="blurOut2" result="blurOut3"/><feBlend in="SourceGraphic" in2="blurOut3" mode="normal"/></filter></defs><g><!--cluster nodejs.owa--><polygon fill="#1D1F21" filter="url(#f1bsa0fn620qjg)" points="1603,16,1709,16,1716,43.3359,4089,43.3359,4089,927,1603,927,1603,16" style="stroke: #000000; stroke-width: 1.5;"/><line style="stroke: #000000; stroke-width: 1.5;" x1="1603" x2="1716" y1="43.3359" y2="43.3359"/><text fill="#C5C8C6" font-family="Monaco" font-size="16" font-weight="bold" lengthAdjust="spacingAndGlyphs" textLength="100" x="1607" y="35.3359">nodejs.owa</text><!--cluster nodejs.owa.gui--><polygon fill="#1D1F21" filter="url(#f1bsa0fn620qjg)" points="1738,90.5,1774,90.5,1781,117.8359,1996,117.8359,1996,199.5,1738,199.5,1738,90.5" style="stroke: #000000; stroke-width: 1.5;"/><line style="stroke: #000000; stroke-width: 1.5;" x1="1738" x2="1781" y1="117.8359" y2="117.8359"/><text fill="#C5C8C6" font-family="Monaco" font-size="16" font-weight="bold" lengthAdjust="spacingAndGlyphs" textLength="30" x="1742" y="109.8359">gui</text><!--cluster redux--><polygon fill="#1D1F21" filter="url(#f1bsa0fn620qjg)" points="4097,829,4153,829,4160,856.3359,4169,856.3359,4169,916,4097,916,4097,829" style="stroke: #000000; stroke-width: 1.5;"/><line style="stroke: #000000; stroke-width: 1.5;" x1="4097" x2="4160" y1="856.3359" y2="856.3359"/><text fill="#C5C8C6" font-family="Monaco" font-size="16" font-weight="bold" lengthAdjust="spacingAndGlyphs" textLength="50" x="4101" y="848.3359">redux</text><!--cluster quarks.owa--><polygon fill="#1D1F21" filter="url(#f1bsa0fn620qjg)" points="482,551,588,551,595,578.3359,1301,578.3359,1301,959,482,959,482,551" style="stroke: #000000; stroke-width: 1.5;"/><line style="stroke: #000000; stroke-width: 1.5;" x1="482" x2="595" y1="578.3359" y2="578.3359"/><text fill="#C5C8C6" font-family="Monaco" font-size="16" font-weight="bold" lengthAdjust="spacingAndGlyphs" textLength="100" x="486" y="570.3359">quarks.owa</text><!--cluster quarks.supercollider_redux--><polygon fill="#1D1F21" filter="url(#f1bsa0fn620qjg)" points="150,1150,416,1150,423,1177.3359,426,1177.3359,426,1366,150,1366,150,1150" style="stroke: #000000; stroke-width: 1.5;"/><line style="stroke: #000000; stroke-width: 1.5;" x1="150" x2="423" y1="1177.3359" y2="1177.3359"/><text fill="#C5C8C6" font-family="Monaco" font-size="16" font-weight="bold" lengthAdjust="spacingAndGlyphs" textLength="260" x="154" y="1169.3359">quarks.supercollider_redux</text><!--cluster quarks.awakening_sequencers--><polygon fill="#1D1F21" filter="url(#f1bsa0fn620qjg)" points="14,818,290,818,297,845.3359,392,845.3359,392,1130,14,1130,14,818" style="stroke: #000000; stroke-width: 1.5;"/><line style="stroke: #000000; stroke-width: 1.5;" x1="14" x2="297" y1="845.3359" y2="845.3359"/><text fill="#C5C8C6" font-family="Monaco" font-size="16" font-weight="bold" lengthAdjust="spacingAndGlyphs" textLength="270" x="18" y="837.3359">quarks.awakening_sequencers</text><!--cluster quarks.cs_supercollider_lib--><polygon fill="#1D1F21" filter="url(#f1bsa0fn620qjg)" points="1309,829,1585,829,1592,856.3359,1595,856.3359,1595,916,1309,916,1309,829" style="stroke: #000000; stroke-width: 1.5;"/><line style="stroke: #000000; stroke-width: 1.5;" x1="1309" x2="1592" y1="856.3359" y2="856.3359"/><text fill="#C5C8C6" font-family="Monaco" font-size="16" font-weight="bold" lengthAdjust="spacingAndGlyphs" textLength="270" x="1313" y="848.3359">quarks.cs_supercollider_lib</text><!--class nodejs.owa.OWAController--><rect fill="#1D1F21" filter="url(#f1bsa0fn620qjg)" height="218.0234" id="nodejs.owa.OWAController" style="stroke: #B294BB; stroke-width: 1.5;" width="452" x="2953" y="48"/><text fill="#B294BB" font-family="Monaco" font-size="16" lengthAdjust="spacingAndGlyphs" textLength="130" x="3114" y="70.3359">OWAController</text><line style="stroke: #B294BB; stroke-width: 1.5;" x1="2954" x2="3404" y1="79.3359" y2="79.3359"/><text fill="#C5C8C6" font-family="Monaco" font-size="16" lengthAdjust="spacingAndGlyphs" textLength="440" x="2959" y="100.6719">Top level entity for controlling everything.</text><text fill="#C5C8C6" font-family="Monaco" font-size="16" lengthAdjust="spacingAndGlyphs" textLength="400" x="2959" y="122.0078">Entry point, starts all sub-controllers.</text><text fill="#C5C8C6" font-family="Monaco" font-size="16" lengthAdjust="spacingAndGlyphs" textLength="0" x="2969" y="143.3438"/><text fill="#C5C8C6" font-family="Monaco" font-size="16" lengthAdjust="spacingAndGlyphs" textLength="110" x="2959" y="164.6797">Store store</text><text fill="#C5C8C6" font-family="Monaco" font-size="16" lengthAdjust="spacingAndGlyphs" textLength="150" x="2959" y="186.0156">soundController</text><text fill="#C5C8C6" font-family="Monaco" font-size="16" lengthAdjust="spacingAndGlyphs" textLength="140" x="2959" y="207.3516">actionListener</text><text fill="#C5C8C6" font-family="Monaco" font-size="16" lengthAdjust="spacingAndGlyphs" textLength="120" x="2959" y="228.6875">scController</text><text fill="#C5C8C6" font-family="Monaco" font-size="16" lengthAdjust="spacingAndGlyphs" textLength="430" x="2959" y="250.0234">SerialInputController serialInputController</text><line style="stroke: #B294BB; stroke-width: 1.5;" x1="2954" x2="3404" y1="258.0234" y2="258.0234"/><!--class nodejs.owa.SoundController--><rect fill="#1D1F21" filter="url(#f1bsa0fn620qjg)" height="175.3516" id="nodejs.owa.SoundController" style="stroke: #B294BB; stroke-width: 1.5;" width="722" x="1998" y="337"/><text fill="#B294BB" font-family="Monaco" font-size="16" lengthAdjust="spacingAndGlyphs" textLength="150" x="2284" y="359.3359">SoundController</text><line style="stroke: #B294BB; stroke-width: 1.5;" x1="1999" x2="2719" y1="368.3359" y2="368.3359"/><text fill="#C5C8C6" font-family="Monaco" font-size="16" lengthAdjust="spacingAndGlyphs" textLength="710" x="2004" y="389.6719">Forwards state changes to SuperCollider and forwards dispatches from SC</text><text fill="#C5C8C6" font-family="Monaco" font-size="16" lengthAdjust="spacingAndGlyphs" textLength="130" x="2004" y="411.0078">to the store.</text><text fill="#C5C8C6" font-family="Monaco" font-size="16" lengthAdjust="spacingAndGlyphs" textLength="0" x="2014" y="432.3438"/><text fill="#C5C8C6" font-family="Monaco" font-size="16" lengthAdjust="spacingAndGlyphs" textLength="320" x="2004" y="453.6797">OSCActionListener actionListener</text><text fill="#C5C8C6" font-family="Monaco" font-size="16" lengthAdjust="spacingAndGlyphs" textLength="50" x="2004" y="475.0156">store</text><text fill="#C5C8C6" font-family="Monaco" font-size="16" lengthAdjust="spacingAndGlyphs" textLength="90" x="2004" y="496.3516">linkStore</text><line style="stroke: #B294BB; stroke-width: 1.5;" x1="1999" x2="2719" y1="504.3516" y2="504.3516"/><!--class nodejs.owa.LightingController--><rect fill="#1D1F21" filter="url(#f1bsa0fn620qjg)" height="196.6875" id="nodejs.owa.LightingController" style="stroke: #B294BB; stroke-width: 1.5;" width="352" x="2755" y="326"/><text fill="#B294BB" font-family="Monaco" font-size="16" lengthAdjust="spacingAndGlyphs" textLength="180" x="2841" y="348.3359">LightingController</text><line style="stroke: #B294BB; stroke-width: 1.5;" x1="2756" x2="3106" y1="357.3359" y2="357.3359"/><text fill="#C5C8C6" font-family="Monaco" font-size="16" lengthAdjust="spacingAndGlyphs" textLength="340" x="2761" y="378.6719">Top level controller for lighting.</text><text fill="#C5C8C6" font-family="Monaco" font-size="16" lengthAdjust="spacingAndGlyphs" textLength="0" x="2771" y="400.0078"/><text fill="#C5C8C6" font-family="Monaco" font-size="16" lengthAdjust="spacingAndGlyphs" textLength="60" x="2761" y="421.3438">pixels</text><text fill="#C5C8C6" font-family="Monaco" font-size="16" lengthAdjust="spacingAndGlyphs" textLength="130" x="2761" y="442.6797">segmentPixels</text><text fill="#C5C8C6" font-family="Monaco" font-size="16" lengthAdjust="spacingAndGlyphs" textLength="110" x="2761" y="464.0156">levelPixels</text><text fill="#C5C8C6" font-family="Monaco" font-size="16" lengthAdjust="spacingAndGlyphs" textLength="170" x="2761" y="485.3516">controllersToTick</text><text fill="#C5C8C6" font-family="Monaco" font-size="16" lengthAdjust="spacingAndGlyphs" textLength="120" x="2761" y="506.6875">fcController</text><line style="stroke: #B294BB; stroke-width: 1.5;" x1="2756" x2="3106" y1="514.6875" y2="514.6875"/><!--class nodejs.owa.SCController--><rect fill="#1D1F21" filter="url(#f1bsa0fn620qjg)" height="68.6719" id="nodejs.owa.SCController" style="stroke: #B294BB; stroke-width: 1.5;" width="572" x="3142" y="390"/><text fill="#B294BB" font-family="Monaco" font-size="16" lengthAdjust="spacingAndGlyphs" textLength="120" x="3368" y="412.3359">SCController</text><line style="stroke: #B294BB; stroke-width: 1.5;" x1="3143" x2="3713" y1="421.3359" y2="421.3359"/><text fill="#C5C8C6" font-family="Monaco" font-size="16" lengthAdjust="spacingAndGlyphs" textLength="560" x="3148" y="442.6719">Handles starting and stopping the SuperCollider process.</text><line style="stroke: #B294BB; stroke-width: 1.5;" x1="3143" x2="3713" y1="450.6719" y2="450.6719"/><!--class nodejs.owa.SerialInputController--><rect fill="#1D1F21" filter="url(#f1bsa0fn620qjg)" height="68.6719" id="nodejs.owa.SerialInputController" style="stroke: #B294BB; stroke-width: 1.5;" width="332" x="3749" y="390"/><text fill="#B294BB" font-family="Monaco" font-size="16" lengthAdjust="spacingAndGlyphs" textLength="210" x="3810" y="412.3359">SerialInputController</text><line style="stroke: #B294BB; stroke-width: 1.5;" x1="3750" x2="4080" y1="421.3359" y2="421.3359"/><text fill="#C5C8C6" font-family="Monaco" font-size="16" lengthAdjust="spacingAndGlyphs" textLength="320" x="3755" y="442.6719">Takes button inputs from Arduino</text><line style="stroke: #B294BB; stroke-width: 1.5;" x1="3750" x2="4080" y1="450.6719" y2="450.6719"/><!--class nodejs.owa.GUIInputController--><rect fill="#1D1F21" filter="url(#f1bsa0fn620qjg)" height="154.0156" id="nodejs.owa.GUIInputController" style="stroke: #B294BB; stroke-width: 1.5;" width="352" x="1611" y="347.5"/><text fill="#B294BB" font-family="Monaco" font-size="16" lengthAdjust="spacingAndGlyphs" textLength="180" x="1697" y="369.8359">GUIInputController</text><line style="stroke: #B294BB; stroke-width: 1.5;" x1="1612" x2="1962" y1="378.8359" y2="378.8359"/><text fill="#C5C8C6" font-family="Monaco" font-size="16" lengthAdjust="spacingAndGlyphs" textLength="340" x="1617" y="400.1719">Converts messages from gui UI into</text><text fill="#C5C8C6" font-family="Monaco" font-size="16" lengthAdjust="spacingAndGlyphs" textLength="190" x="1617" y="421.5078">dispatched actions.</text><text fill="#C5C8C6" font-family="Monaco" font-size="16" lengthAdjust="spacingAndGlyphs" textLength="0" x="1627" y="442.8438"/><text fill="#C5C8C6" font-family="Monaco" font-size="16" lengthAdjust="spacingAndGlyphs" textLength="170" x="1617" y="464.1797">oscActionListener</text><text fill="#C5C8C6" font-family="Monaco" font-size="16" lengthAdjust="spacingAndGlyphs" textLength="50" x="1617" y="485.5156">store</text><line style="stroke: #B294BB; stroke-width: 1.5;" x1="1612" x2="1962" y1="493.5156" y2="493.5156"/><ellipse cx="1706" cy="157" fill="#1D1F21" filter="url(#f1bsa0fn620qjg)" rx="5" ry="5" style="stroke: #B294BB; stroke-width: 1.5;"/><text fill="#B294BB" font-family="Monaco" font-size="16" lengthAdjust="spacingAndGlyphs" textLength="100" x="1656" y="179.3359">GUI_OSC_IN</text><!--class nodejs.owa.OSCActionListener--><rect fill="#1D1F21" filter="url(#f1bsa0fn620qjg)" height="132.6797" id="nodejs.owa.OSCActionListener" style="stroke: #B294BB; stroke-width: 1.5;" width="522" x="2098" y="604"/><text fill="#B294BB" font-family="Monaco" font-size="16" lengthAdjust="spacingAndGlyphs" textLength="170" x="2274" y="626.3359">OSCActionListener</text><line style="stroke: #B294BB; stroke-width: 1.5;" x1="2099" x2="2619" y1="635.3359" y2="635.3359"/><text fill="#C5C8C6" font-family="Monaco" font-size="16" lengthAdjust="spacingAndGlyphs" textLength="510" x="2104" y="656.6719">Forward actions from osc.js to a redux state store.</text><text fill="#C5C8C6" font-family="Monaco" font-size="16" lengthAdjust="spacingAndGlyphs" textLength="0" x="2114" y="678.0078"/><text fill="#C5C8C6" font-family="Monaco" font-size="16" lengthAdjust="spacingAndGlyphs" textLength="50" x="2104" y="699.3438">store</text><text fill="#C5C8C6" font-family="Monaco" font-size="16" lengthAdjust="spacingAndGlyphs" textLength="90" x="2104" y="720.6797">oscSocket</text><line style="stroke: #B294BB; stroke-width: 1.5;" x1="2099" x2="2619" y1="728.6797" y2="728.6797"/><!--class nodejs.owa.FadecandyController--><rect fill="#1D1F21" filter="url(#f1bsa0fn620qjg)" height="68.6719" id="nodejs.owa.FadecandyController" style="stroke: #B294BB; stroke-width: 1.5;" width="292" x="3394" y="636"/><text fill="#B294BB" font-family="Monaco" font-size="16" lengthAdjust="spacingAndGlyphs" textLength="190" x="3445" y="658.3359">FadecandyController</text><line style="stroke: #B294BB; stroke-width: 1.5;" x1="3395" x2="3685" y1="667.3359" y2="667.3359"/><text fill="#C5C8C6" font-family="Monaco" font-size="16" lengthAdjust="spacingAndGlyphs" textLength="280" x="3400" y="688.6719">Handles Fadecandy connection</text><line style="stroke: #B294BB; stroke-width: 1.5;" x1="3395" x2="3685" y1="696.6719" y2="696.6719"/><!--class nodejs.owa.SegmentLightingController--><rect fill="#1D1F21" filter="url(#f1bsa0fn620qjg)" height="68.6719" id="nodejs.owa.SegmentLightingController" style="stroke: #B294BB; stroke-width: 1.5;" width="662" x="2696" y="636"/><text fill="#B294BB" font-family="Monaco" font-size="16" lengthAdjust="spacingAndGlyphs" textLength="250" x="2902" y="658.3359">SegmentLightingController</text><line style="stroke: #B294BB; stroke-width: 1.5;" x1="2697" x2="3357" y1="667.3359" y2="667.3359"/><line style="stroke: #B294BB; stroke-width: 1.5;" x1="2697" x2="3357" y1="675.3359" y2="675.3359"/><text fill="#C5C8C6" font-family="Monaco" font-size="16" lengthAdjust="spacingAndGlyphs" textLength="650" x="2702" y="696.6719">Manages lighting for a single segment (ring) on the OWA sculpture</text><!--class nodejs.owa.SegmentQueuedAnimation--><rect fill="#1D1F21" filter="url(#f1bsa0fn620qjg)" height="68.6719" id="nodejs.owa.SegmentQueuedAnimation" style="stroke: #B294BB; stroke-width: 1.5;" width="502" x="2465" y="850"/><text fill="#B294BB" font-family="Monaco" font-size="16" lengthAdjust="spacingAndGlyphs" textLength="220" x="2606" y="872.3359">SegmentQueuedAnimation</text><line style="stroke: #B294BB; stroke-width: 1.5;" x1="2466" x2="2966" y1="881.3359" y2="881.3359"/><text fill="#C5C8C6" font-family="Monaco" font-size="16" lengthAdjust="spacingAndGlyphs" textLength="490" x="2471" y="902.6719">Animation for a single segment when it is queued.</text><line style="stroke: #B294BB; stroke-width: 1.5;" x1="2466" x2="2966" y1="910.6719" y2="910.6719"/><!--class nodejs.owa.SegmentPlayingAnimation--><rect fill="#1D1F21" filter="url(#f1bsa0fn620qjg)" height="68.6719" id="nodejs.owa.SegmentPlayingAnimation" style="stroke: #B294BB; stroke-width: 1.5;" width="672" x="3002" y="850"/><text fill="#B294BB" font-family="Monaco" font-size="16" lengthAdjust="spacingAndGlyphs" textLength="230" x="3223" y="872.3359">SegmentPlayingAnimation</text><line style="stroke: #B294BB; stroke-width: 1.5;" x1="3003" x2="3673" y1="881.3359" y2="881.3359"/><text fill="#C5C8C6" font-family="Monaco" font-size="16" lengthAdjust="spacingAndGlyphs" textLength="660" x="3008" y="902.6719">Animation / visualization for a single segment when it is playing.</text><line style="stroke: #B294BB; stroke-width: 1.5;" x1="3003" x2="3673" y1="910.6719" y2="910.6719"/><!--class nodejs.owa.gui.OWAUIApp--><rect fill="#1D1F21" filter="url(#f1bsa0fn620qjg)" height="68.6719" id="nodejs.owa.gui.OWAUIApp" style="stroke: #B294BB; stroke-width: 1.5;" width="242" x="1746" y="122.5"/><text fill="#B294BB" font-family="Monaco" font-size="16" lengthAdjust="spacingAndGlyphs" textLength="80" x="1827" y="144.8359">OWAUIApp</text><line style="stroke: #B294BB; stroke-width: 1.5;" x1="1747" x2="1987" y1="153.8359" y2="153.8359"/><text fill="#C5C8C6" font-family="Monaco" font-size="16" lengthAdjust="spacingAndGlyphs" textLength="230" x="1752" y="175.1719">Entry point for the GUI</text><line style="stroke: #B294BB; stroke-width: 1.5;" x1="1747" x2="1987" y1="183.1719" y2="183.1719"/><!--class redux.Store--><rect fill="#1D1F21" filter="url(#f1bsa0fn620qjg)" height="47.3359" id="redux.Store" style="stroke: #B294BB; stroke-width: 1.5;" width="56" x="4105" y="861"/><text fill="#B294BB" font-family="Monaco" font-size="16" lengthAdjust="spacingAndGlyphs" textLength="50" x="4108" y="883.3359">Store</text><line style="stroke: #B294BB; stroke-width: 1.5;" x1="4106" x2="4160" y1="892.3359" y2="892.3359"/><line style="stroke: #B294BB; stroke-width: 1.5;" x1="4106" x2="4160" y1="900.3359" y2="900.3359"/><!--class quarks.owa.OWAController--><rect fill="#1D1F21" filter="url(#f1bsa0fn620qjg)" height="175.3516" id="quarks.owa.OWAController" style="stroke: #B294BB; stroke-width: 1.5;" width="482" x="648" y="583"/><text fill="#B294BB" font-family="Monaco" font-size="16" lengthAdjust="spacingAndGlyphs" textLength="130" x="824" y="605.3359">OWAController</text><line style="stroke: #B294BB; stroke-width: 1.5;" x1="649" x2="1129" y1="614.3359" y2="614.3359"/><text fill="#C5C8C6" font-family="Monaco" font-size="16" lengthAdjust="spacingAndGlyphs" textLength="240" x="654" y="635.6719">StateStore owaStateStore</text><text fill="#C5C8C6" font-family="Monaco" font-size="16" lengthAdjust="spacingAndGlyphs" textLength="250" x="654" y="657.0078">StateStore linkStateStore</text><text fill="#C5C8C6" font-family="Monaco" font-size="16" lengthAdjust="spacingAndGlyphs" textLength="470" x="654" y="678.3438">SessionTimingController sessionTimingController</text><text fill="#C5C8C6" font-family="Monaco" font-size="16" lengthAdjust="spacingAndGlyphs" textLength="340" x="654" y="699.6797">OWAClockController clockController</text><text fill="#C5C8C6" font-family="Monaco" font-size="16" lengthAdjust="spacingAndGlyphs" textLength="350" x="654" y="721.0156">AwakenedSequencerFactory seqFactory</text><text fill="#C5C8C6" font-family="Monaco" font-size="16" lengthAdjust="spacingAndGlyphs" textLength="240" x="654" y="742.3516">BufferManager bufManager</text><line style="stroke: #B294BB; stroke-width: 1.5;" x1="649" x2="1129" y1="750.3516" y2="750.3516"/><!--class quarks.owa.OWAClockController--><rect fill="#1D1F21" filter="url(#f1bsa0fn620qjg)" height="90.0078" id="quarks.owa.OWAClockController" style="stroke: #B294BB; stroke-width: 1.5;" width="186" x="490" y="839.5"/><text fill="#B294BB" font-family="Monaco" font-size="16" lengthAdjust="spacingAndGlyphs" textLength="180" x="493" y="861.8359">OWAClockController</text><line style="stroke: #B294BB; stroke-width: 1.5;" x1="491" x2="675" y1="870.8359" y2="870.8359"/><text fill="#C5C8C6" font-family="Monaco" font-size="16" lengthAdjust="spacingAndGlyphs" textLength="160" x="496" y="892.1719">StateStore store</text><text fill="#C5C8C6" font-family="Monaco" font-size="16" lengthAdjust="spacingAndGlyphs" textLength="160" x="496" y="913.5078">TempoClock clock</text><line style="stroke: #B294BB; stroke-width: 1.5;" x1="491" x2="675" y1="921.5078" y2="921.5078"/><ellipse cx="608" cy="670.5" fill="#1D1F21" filter="url(#f1bsa0fn620qjg)" rx="5" ry="5" style="stroke: #B294BB; stroke-width: 1.5;"/><text fill="#B294BB" font-family="Monaco" font-size="16" lengthAdjust="spacingAndGlyphs" textLength="70" x="573" y="692.8359">owa.api</text><!--class quarks.owa.SessionTimingController--><rect fill="#1D1F21" filter="url(#f1bsa0fn620qjg)" height="132.6797" id="quarks.owa.SessionTimingController" style="stroke: #B294BB; stroke-width: 1.5;" width="582" x="711" y="818"/><text fill="#B294BB" font-family="Monaco" font-size="16" lengthAdjust="spacingAndGlyphs" textLength="230" x="887" y="840.3359">SessionTimingController</text><line style="stroke: #B294BB; stroke-width: 1.5;" x1="712" x2="1292" y1="849.3359" y2="849.3359"/><text fill="#C5C8C6" font-family="Monaco" font-size="16" lengthAdjust="spacingAndGlyphs" textLength="570" x="717" y="870.6719">Handles scheduling auto transition between session phases</text><text fill="#C5C8C6" font-family="Monaco" font-size="16" lengthAdjust="spacingAndGlyphs" textLength="0" x="727" y="892.0078"/><text fill="#C5C8C6" font-family="Monaco" font-size="16" lengthAdjust="spacingAndGlyphs" textLength="160" x="717" y="913.3438">TempoClock clock</text><text fill="#C5C8C6" font-family="Monaco" font-size="16" lengthAdjust="spacingAndGlyphs" textLength="200" x="717" y="934.6797">StateStore linkStore</text><line style="stroke: #B294BB; stroke-width: 1.5;" x1="712" x2="1292" y1="942.6797" y2="942.6797"/><!--class quarks.supercollider_redux.StateStore--><rect fill="#1D1F21" filter="url(#f1bsa0fn620qjg)" height="47.3359" id="quarks.supercollider_redux.StateStore" style="stroke: #B294BB; stroke-width: 1.5;" width="106" x="312" y="1311"/><text fill="#B294BB" font-family="Monaco" font-size="16" lengthAdjust="spacingAndGlyphs" textLength="100" x="315" y="1333.3359">StateStore</text><line style="stroke: #B294BB; stroke-width: 1.5;" x1="313" x2="417" y1="1342.3359" y2="1342.3359"/><line style="stroke: #B294BB; stroke-width: 1.5;" x1="313" x2="417" y1="1350.3359" y2="1350.3359"/><!--class quarks.supercollider_redux.ReduxEventStreamPlayer--><rect fill="#1D1F21" filter="url(#f1bsa0fn620qjg)" height="68.6719" id="quarks.supercollider_redux.ReduxEventStreamPlayer" style="stroke: #B294BB; stroke-width: 1.5;" width="226" x="158" y="1182"/><text fill="#B294BB" font-family="Monaco" font-size="16" lengthAdjust="spacingAndGlyphs" textLength="220" x="161" y="1204.3359">ReduxEventStreamPlayer</text><line style="stroke: #B294BB; stroke-width: 1.5;" x1="159" x2="383" y1="1213.3359" y2="1213.3359"/><text fill="#C5C8C6" font-family="Monaco" font-size="16" lengthAdjust="spacingAndGlyphs" textLength="170" x="164" y="1234.6719">StateStore store;</text><line style="stroke: #B294BB; stroke-width: 1.5;" x1="159" x2="383" y1="1242.6719" y2="1242.6719"/><!--class quarks.awakening_sequencers.AwakenedSequencerFactory--><rect fill="#1D1F21" filter="url(#f1bsa0fn620qjg)" height="68.6719" id="quarks.awakening_sequencers.AwakenedSequencerFactory" style="stroke: #B294BB; stroke-width: 1.5;" width="312" x="59" y="850"/><text fill="#B294BB" font-family="Monaco" font-size="16" lengthAdjust="spacingAndGlyphs" textLength="240" x="95" y="872.3359">AwakenedSequencerFactory</text><line style="stroke: #B294BB; stroke-width: 1.5;" x1="60" x2="370" y1="881.3359" y2="881.3359"/><text fill="#C5C8C6" font-family="Monaco" font-size="16" lengthAdjust="spacingAndGlyphs" textLength="300" x="65" y="902.6719">AwakenedSequencer sequencers[]</text><line style="stroke: #B294BB; stroke-width: 1.5;" x1="60" x2="370" y1="910.6719" y2="910.6719"/><!--class quarks.awakening_sequencers.AwakenedSequencer--><rect fill="#1D1F21" filter="url(#f1bsa0fn620qjg)" height="111.3438" id="quarks.awakening_sequencers.AwakenedSequencer" style="stroke: #B294BB; stroke-width: 1.5;" width="362" x="22" y="1011"/><text fill="#B294BB" font-family="Monaco" font-size="16" lengthAdjust="spacingAndGlyphs" textLength="170" x="118" y="1033.3359">AwakenedSequencer</text><line style="stroke: #B294BB; stroke-width: 1.5;" x1="23" x2="383" y1="1042.3359" y2="1042.3359"/><text fill="#C5C8C6" font-family="Monaco" font-size="16" lengthAdjust="spacingAndGlyphs" textLength="120" x="28" y="1063.6719">currentState</text><text fill="#C5C8C6" font-family="Monaco" font-size="16" lengthAdjust="spacingAndGlyphs" textLength="150" x="28" y="1085.0078">clockController</text><text fill="#C5C8C6" font-family="Monaco" font-size="16" lengthAdjust="spacingAndGlyphs" textLength="350" x="28" y="1106.3438">ReduxEventStreamPlayer streamPlayer</text><line style="stroke: #B294BB; stroke-width: 1.5;" x1="23" x2="383" y1="1114.3438" y2="1114.3438"/><!--class quarks.cs_supercollider_lib.BufferManager--><rect fill="#1D1F21" filter="url(#f1bsa0fn620qjg)" height="47.3359" id="quarks.cs_supercollider_lib.BufferManager" style="stroke: #B294BB; stroke-width: 1.5;" width="136" x="1328" y="861"/><text fill="#B294BB" font-family="Monaco" font-size="16" lengthAdjust="spacingAndGlyphs" textLength="130" x="1331" y="883.3359">BufferManager</text><line style="stroke: #B294BB; stroke-width: 1.5;" x1="1329" x2="1463" y1="892.3359" y2="892.3359"/><line style="stroke: #B294BB; stroke-width: 1.5;" x1="1329" x2="1463" y1="900.3359" y2="900.3359"/><!--link nodejs.owa.OWAController to redux.Store--><path d="M3418.3677,168.3481 C3660.4109,185.2878 4011.0046,226.67 4099,326 C4238.9421,483.968 4165.8513,776.0415 4140.5179,860.8429 " fill="none" id="nodejs.owa.OWAController-redux.Store" style="stroke: #C5C8C6; stroke-width: 1.0;"/><polygon fill="#C5C8C6" points="3405.1203,167.4377,3410.8319,171.8396,3417.0921,168.2604,3411.3804,163.8585,3405.1203,167.4377" style="stroke: #C5C8C6; stroke-width: 1.0;"/><!--link nodejs.owa.OWAController to nodejs.owa.SoundController--><path d="M2940.2735,234.8772 C2842.2541,266.8531 2728.312,304.0232 2627.4122,336.9387 " fill="none" id="nodejs.owa.OWAController-nodejs.owa.SoundController" style="stroke: #C5C8C6; stroke-width: 1.0;"/><polygon fill="#C5C8C6" points="2952.7607,230.8037,2945.816,228.8618,2941.3524,234.5254,2948.2971,236.4673,2952.7607,230.8037" style="stroke: #C5C8C6; stroke-width: 1.0;"/><!--link nodejs.owa.OWAController to nodejs.owa.LightingController--><path d="M3068.6918,275.9816 C3053.202,292.6893 3037.4237,309.7083 3022.3397,325.9784 " fill="none" id="nodejs.owa.OWAController-nodejs.owa.LightingController" style="stroke: #C5C8C6; stroke-width: 1.0;"/><polygon fill="#C5C8C6" points="3077.7712,266.1883,3070.7586,267.8688,3069.6127,274.9882,3076.6252,273.3078,3077.7712,266.1883" style="stroke: #C5C8C6; stroke-width: 1.0;"/><!--link nodejs.owa.OWAController to nodejs.owa.SCController--><path d="M3289.605,275.8226 C3328.1521,317.2337 3368.4985,360.5778 3395.6142,389.708 " fill="none" id="nodejs.owa.OWAController-nodejs.owa.SCController" style="stroke: #C5C8C6; stroke-width: 1.0;"/><polygon fill="#C5C8C6" points="3280.637,266.1883,3281.7972,273.3055,3288.8131,274.9719,3287.6529,267.8547,3280.637,266.1883" style="stroke: #C5C8C6; stroke-width: 1.0;"/><!--link nodejs.owa.OWAController to nodejs.owa.SerialInputController--><path d="M3417.791,218.8155 C3516.5997,247.2499 3631.3746,284.0262 3732,326 C3775.6228,344.1963 3822.52,369.5627 3857.9176,389.9962 " fill="none" id="nodejs.owa.OWAController-nodejs.owa.SerialInputController" style="stroke: #C5C8C6; stroke-width: 1.0;"/><polygon fill="#C5C8C6" points="3405.2029,215.2131,3409.8708,220.7096,3416.7397,218.5148,3412.0719,213.0183,3405.2029,215.2131" style="stroke: #C5C8C6; stroke-width: 1.0;"/><!--link nodejs.owa.SCController to redux.Store--><path d="M3532.4362,463.5142 C3590.4929,483.8842 3664.4542,507.6864 3732,523 C3777.9145,533.4095 3905.6489,521.0819 3942,551 C4016.9866,612.7164 3953.9149,680.1667 4012,758 C4039.6564,795.0593 4066.2956,783.4238 4097,818 C4108.2452,830.6632 4117.2985,847.4501 4123.5136,860.9892 " fill="none" id="nodejs.owa.SCController-redux.Store" style="stroke: #C5C8C6; stroke-width: 1.0;"/><polygon fill="#C5C8C6" points="3519.9221,459.0904,3524.2458,464.8615,3531.236,463.09,3526.9122,457.3189,3519.9221,459.0904" style="stroke: #C5C8C6; stroke-width: 1.0;"/><!--link nodejs.owa.SerialInputController to redux.Store--><path d="M3956.7304,469.074 C3976.7087,492.1821 3999.7565,521.6578 4016,551 C4076.0299,659.4381 4114.1716,804.391 4127.5916,860.718 " fill="none" id="nodejs.owa.SerialInputController-redux.Store" style="stroke: #C5C8C6; stroke-width: 1.0;"/><polygon fill="#C5C8C6" points="3948.0948,459.2546,3949.0535,466.4017,3956.0195,468.2656,3955.0608,461.1185,3948.0948,459.2546" style="stroke: #C5C8C6; stroke-width: 1.0;"/><!--link nodejs.owa.OWAController to nodejs.owa.GUIInputController--><path d="M2939.7872,167.4125 C2694.0301,183.4655 2302.8429,224.0187 1980,326 C1961.6159,331.8073 1942.8576,339.237 1924.6116,347.407 " fill="none" id="nodejs.owa.OWAController-nodejs.owa.GUIInputController" style="stroke: #C5C8C6; stroke-width: 1.0;"/><polygon fill="#1D1F21" points="2952.838,166.5741,2946.5939,162.967,2940.8627,167.3434,2947.1068,170.9505,2952.838,166.5741" style="stroke: #C5C8C6; stroke-width: 1.0;"/><!--link nodejs.owa.GUIInputControllerlol19 to nodejs.owa.GUIInputController--><path d="M1706.8738,162.0553 C1709.6254,177.6816 1718.6092,226.5318 1730,266 C1737.7438,292.8316 1747.6424,321.7018 1757.0104,347.3556 " fill="none" id="nodejs.owa.GUIInputControllerlol19-nodejs.owa.GUIInputController" style="stroke: #C5C8C6; stroke-width: 1.0;"/><!--link nodejs.owa.GUIInputController to nodejs.owa.OSCActionListener--><path d="M1946.1761,507.3107 C1957.5615,512.7483 1968.9179,518.0308 1980,523 C2043.2981,551.383 2113.8345,579.7058 2176.7297,603.8338 " fill="none" id="nodejs.owa.GUIInputController-nodejs.owa.OSCActionListener" style="stroke: #C5C8C6; stroke-width: 1.0;"/><polygon fill="#C5C8C6" points="1934.3111,501.5945,1937.9804,507.8022,1945.1219,506.8028,1941.4526,500.595,1934.3111,501.5945" style="stroke: #C5C8C6; stroke-width: 1.0;"/><!--link nodejs.owa.GUIInputController to redux.Store--><path d="M1931.1343,506.7673 C1947.2352,513.3078 1963.7103,518.9433 1980,523 C2072.9514,546.1483 3625.7862,495.6971 3704,551 C3784.1476,607.6703 3705.9972,694.6775 3781,758 C3890.2303,850.2198 3981.5846,733.6494 4097,818 C4111.3091,828.4577 4120.5378,846.3789 4126.0652,860.9837 " fill="none" id="nodejs.owa.GUIInputController-redux.Store" style="stroke: #C5C8C6; stroke-width: 1.0;"/><polygon fill="#C5C8C6" points="1918.904,501.6004,1922.8743,507.6201,1929.958,506.2704,1925.9877,500.2507,1918.904,501.6004" style="stroke: #C5C8C6; stroke-width: 1.0;"/><!--link nodejs.owa.OSCActionListener to redux.Store--><path d="M2588.688,740.1003 C2618.516,747.1878 2648.8325,753.4429 2678,758 C2833.9161,782.3599 3963.1659,734.3839 4097,818 C4112.2535,827.53 4121.4911,845.905 4126.7832,860.9288 " fill="none" id="nodejs.owa.OSCActionListener-redux.Store" style="stroke: #C5C8C6; stroke-width: 1.0;"/><polygon fill="#C5C8C6" points="2575.9393,737.0144,2580.8298,742.3138,2587.6025,739.8377,2582.712,734.5383,2575.9393,737.0144" style="stroke: #C5C8C6; stroke-width: 1.0;"/><!--link nodejs.owa.SoundController to nodejs.owa.OSCActionListener--><path d="M2359,525.4805 C2359,551.8284 2359,579.5698 2359,603.6538 " fill="none" id="nodejs.owa.SoundController-nodejs.owa.OSCActionListener" style="stroke: #C5C8C6; stroke-width: 1.0;"/><polygon fill="#C5C8C6" points="2359,512.2698,2355,518.2698,2359,524.2698,2363,518.2698,2359,512.2698" style="stroke: #C5C8C6; stroke-width: 1.0;"/><!--link nodejs.owa.SoundController to redux.Store--><path d="M2685.6287,514.5051 C2702.9306,517.738 2720.1301,520.6087 2737,523 C2794.6665,531.1742 3737.6208,517.1259 3785,551 C3864.8498,608.0891 3789.0071,692.3708 3862,758 C3942.1586,830.0719 4011.9949,751.7136 4097,818 C4110.8727,828.8178 4120.0859,846.5309 4125.7167,860.9567 " fill="none" id="nodejs.owa.SoundController-redux.Store" style="stroke: #C5C8C6; stroke-width: 1.0;"/><polygon fill="#C5C8C6" points="2672.7001,512.0267,2677.8397,517.0848,2684.4855,514.286,2679.3459,509.2279,2672.7001,512.0267" style="stroke: #C5C8C6; stroke-width: 1.0;"/><!--link nodejs.owa.SoundController to quarks.owa.OWAController--><path d="M2038.8567,512.034 C2019.0186,516.1116 1999.2851,519.8198 1980,523 C1810.7232,550.9146 1765.3265,530.4385 1595,551 C1441.6213,569.5156 1270.7782,598.2165 1135.5736,622.8502 " fill="none" id="nodejs.owa.SoundController-quarks.owa.OWAController" style="stroke: #C5C8C6; stroke-width: 1.0;"/><polygon fill="#C5C8C6" points="1130.3758,623.7984,1139.9476,626.1181,1135.2946,622.901,1138.5117,618.248,1130.3758,623.7984" style="stroke: #C5C8C6; stroke-width: 1.0;"/><text fill="#C5C8C6" font-family="Monaco" font-size="16" lengthAdjust="spacingAndGlyphs" textLength="70" x="1938.3366" y="537.7941">owa.api</text><!--link nodejs.owa.LightingController to nodejs.owa.FadecandyController--><path d="M3119.5431,521.6326 C3121.0306,522.0993 3122.5164,522.5552 3124,523 C3231.9424,555.362 3270.9441,510.231 3376,551 C3425.2641,570.1179 3473.1017,607.8591 3504.2711,635.8358 " fill="none" id="nodejs.owa.LightingController-nodejs.owa.FadecandyController" style="stroke: #C5C8C6; stroke-width: 1.0;"/><polygon fill="#C5C8C6" points="3107.175,517.5268,3111.6092,523.2134,3118.5639,521.3075,3114.1297,515.6209,3107.175,517.5268" style="stroke: #C5C8C6; stroke-width: 1.0;"/><!--link nodejs.owa.LightingController to nodejs.owa.SegmentLightingController--><path d="M2974.2818,535.4097 C2988.485,571.8052 3003.2445,609.6264 3013.5213,635.9607 " fill="none" id="nodejs.owa.LightingController-nodejs.owa.SegmentLightingController" style="stroke: #C5C8C6; stroke-width: 1.0;"/><polygon fill="#C5C8C6" points="2969.4937,523.1402,2967.9487,530.1838,2973.8563,534.3191,2975.4013,527.2754,2969.4937,523.1402" style="stroke: #C5C8C6; stroke-width: 1.0;"/><!--link nodejs.owa.LightingController to redux.Store--><path d="M3119.4989,521.7906 C3121.0007,522.2063 3122.5012,522.6096 3124,523 C3203.8392,543.7959 3799.6716,501.9356 3866,551 C3944.3098,608.9273 3870.028,688.2303 3938,758 C3990.7068,812.1007 4040.1025,768.3254 4097,818 C4110.0543,829.3971 4119.2176,846.7212 4125.0318,860.83 " fill="none" id="nodejs.owa.LightingController-redux.Store" style="stroke: #C5C8C6; stroke-width: 1.0;"/><polygon fill="#C5C8C6" points="3107.0231,518.069,3111.6293,523.6172,3118.5224,521.4993,3113.9162,515.9511,3107.0231,518.069" style="stroke: #C5C8C6; stroke-width: 1.0;"/><!--link nodejs.owa.FadecandyController to redux.Store--><path d="M3616.827,710.9392 C3651.5023,727.7106 3693.4768,746.0114 3733,758 C3889.9015,805.5929 3963.4597,722.8677 4097,818 C4111.4349,828.2833 4120.6568,846.214 4126.1496,860.8668 " fill="none" id="nodejs.owa.FadecandyController-redux.Store" style="stroke: #C5C8C6; stroke-width: 1.0;"/><polygon fill="#C5C8C6" points="3604.8824,705.0836,3608.5091,711.3163,3615.6573,710.3658,3612.0306,704.1331,3604.8824,705.0836" style="stroke: #C5C8C6; stroke-width: 1.0;"/><!--link nodejs.owa.SegmentLightingController to redux.Store--><path d="M3157.9188,708.5786 C3223.2197,726.1986 3303.7174,745.8682 3377,758 C3535.3987,784.2226 3962.6035,730.1629 4097,818 C4111.9456,827.7679 4121.1717,845.9255 4126.5371,860.802 " fill="none" id="nodejs.owa.SegmentLightingController-redux.Store" style="stroke: #C5C8C6; stroke-width: 1.0;"/><polygon fill="#C5C8C6" points="3145.0679,705.0848,3149.8083,710.5188,3156.6476,708.233,3151.9071,702.799,3145.0679,705.0848" style="stroke: #C5C8C6; stroke-width: 1.0;"/><!--link nodejs.owa.SegmentLightingController to nodejs.owa.SegmentQueuedAnimation--><path d="M2965.7765,712.6281 C2907.4302,752.7763 2820.6393,812.4974 2766.2409,849.9291 " fill="none" id="nodejs.owa.SegmentLightingController-nodejs.owa.SegmentQueuedAnimation" style="stroke: #C5C8C6; stroke-width: 1.0;"/><polygon fill="#C5C8C6" points="2976.6868,705.1206,2969.4765,705.2266,2966.8011,711.923,2974.0114,711.817,2976.6868,705.1206" style="stroke: #C5C8C6; stroke-width: 1.0;"/><!--link nodejs.owa.SegmentLightingController to nodejs.owa.SegmentPlayingAnimation--><path d="M3088.2235,712.6281 C3146.5698,752.7763 3233.3607,812.4974 3287.7591,849.9291 " fill="none" id="nodejs.owa.SegmentLightingController-nodejs.owa.SegmentPlayingAnimation" style="stroke: #C5C8C6; stroke-width: 1.0;"/><polygon fill="#C5C8C6" points="3077.3132,705.1206,3079.9886,711.817,3087.1989,711.923,3084.5235,705.2266,3077.3132,705.1206" style="stroke: #C5C8C6; stroke-width: 1.0;"/><!--link nodejs.owa.gui.OWAUIApp to nodejs.owa.GUIInputController--><path d="M1856.6234,191.6967 C1845.2581,229.6996 1826.6336,291.9752 1811.5061,342.5576 " fill="none" id="nodejs.owa.gui.OWAUIApp-nodejs.owa.GUIInputController" style="stroke: #C5C8C6; stroke-width: 1.0;"/><polygon fill="#C5C8C6" points="1810.0535,347.415,1816.4646,339.9385,1811.4862,342.6247,1808.8001,337.6462,1810.0535,347.415" style="stroke: #C5C8C6; stroke-width: 1.0;"/><text fill="#C5C8C6" font-family="Monaco" font-size="16" lengthAdjust="spacingAndGlyphs" textLength="100" x="1746.6235" y="216.5733">GUI_OSC_IN</text><!--link quarks.owa.OWAController to quarks.supercollider_redux.StateStore--><path d="M635.4887,757.3653 C550.1347,787.1255 475.3276,814.0225 472,818 C346.8657,967.5728 455.7908,1063.8408 401,1251 C394.8793,1271.9078 384.8963,1294.5385 376.9936,1310.959 " fill="none" id="quarks.owa.OWAController-quarks.supercollider_redux.StateStore" style="stroke: #C5C8C6; stroke-width: 1.0;"/><polygon fill="#C5C8C6" points="647.8733,753.0526,640.8916,751.2482,636.5408,756.9989,643.5225,758.8033,647.8733,753.0526" style="stroke: #C5C8C6; stroke-width: 1.0;"/><!--link quarks.owa.OWAController to quarks.owa.OWAClockController--><path d="M752.8347,765.7267 C716.1392,791.3896 678.1361,817.9669 647.407,839.4572 " fill="none" id="quarks.owa.OWAController-quarks.owa.OWAClockController" style="stroke: #C5C8C6; stroke-width: 1.0;"/><polygon fill="#C5C8C6" points="763.6552,758.1595,756.4459,758.3202,753.8214,765.0368,761.0307,764.8761,763.6552,758.1595" style="stroke: #C5C8C6; stroke-width: 1.0;"/><!--link quarks.owa.OWAController to quarks.awakening_sequencers.AwakenedSequencerFactory--><path d="M635.2728,756.3829 C633.5096,756.9255 631.7518,757.4646 630,758 C533.4865,787.4965 507.4943,788.4409 411,818 C378.962,827.8142 344.2581,839.3021 313.0815,849.9422 " fill="none" id="quarks.owa.OWAController-quarks.awakening_sequencers.AwakenedSequencerFactory" style="stroke: #C5C8C6; stroke-width: 1.0;"/><polygon fill="#C5C8C6" points="647.8856,752.4714,640.97,750.4281,636.4241,756.0259,643.3397,758.0691,647.8856,752.4714" style="stroke: #C5C8C6; stroke-width: 1.0;"/><!--link quarks.owa.OWAController to quarks.cs_supercollider_lib.BufferManager--><path d="M1142.4076,745.0058 C1198.7065,765.4986 1257.0521,789.9447 1309,818 C1330.9132,829.8345 1353.1811,846.9706 1369.7025,860.8835 " fill="none" id="quarks.owa.OWAController-quarks.cs_supercollider_lib.BufferManager" style="stroke: #C5C8C6; stroke-width: 1.0;"/><polygon fill="#C5C8C6" points="1130.0511,740.5589,1134.3421,746.3544,1141.3421,744.6225,1137.0511,738.827,1130.0511,740.5589" style="stroke: #C5C8C6; stroke-width: 1.0;"/><!--link quarks.owa.OWAControllerlol56 to quarks.owa.OWAController--><path d="M613.2139,670.5 C624.7947,670.5 636.3756,670.5 647.9565,670.5 " fill="none" id="quarks.owa.OWAControllerlol56-quarks.owa.OWAController" style="stroke: #C5C8C6; stroke-width: 1.0;"/><!--link quarks.owa.OWAController to quarks.owa.SessionTimingController--><path d="M941.5106,769.9448 C950.1026,786.2165 958.8184,802.7224 966.8577,817.9473 " fill="none" id="quarks.owa.OWAController-quarks.owa.SessionTimingController" style="stroke: #C5C8C6; stroke-width: 1.0;"/><polygon fill="#C5C8C6" points="935.2875,758.1595,934.552,765.333,940.8908,768.7709,941.6263,761.5974,935.2875,758.1595" style="stroke: #C5C8C6; stroke-width: 1.0;"/><!--link quarks.owa.SessionTimingController to quarks.supercollider_redux.StateStore--><path d="M910.9414,959.3139 C815.3316,1036.3808 659.2645,1158.0301 516,1251 C482.0759,1273.0147 441.9393,1295.0314 411.5765,1310.9259 " fill="none" id="quarks.owa.SessionTimingController-quarks.supercollider_redux.StateStore" style="stroke: #C5C8C6; stroke-width: 1.0;"/><polygon fill="#C5C8C6" points="921.1483,951.0707,913.9673,951.7286,911.8126,958.6102,918.9936,957.9524,921.1483,951.0707" style="stroke: #C5C8C6; stroke-width: 1.0;"/><!--link quarks.owa.OWAClockController to quarks.supercollider_redux.StateStore--><path d="M574.0488,942.7549 C560.1987,1018.8975 528.0833,1153.9578 463,1251 C446.9392,1274.9473 422.1804,1295.9627 401.5677,1310.9202 " fill="none" id="quarks.owa.OWAClockController-quarks.supercollider_redux.StateStore" style="stroke: #C5C8C6; stroke-width: 1.0;"/><polygon fill="#C5C8C6" points="576.3492,929.698,571.3688,934.9129,574.267,941.516,579.2474,936.301,576.3492,929.698" style="stroke: #C5C8C6; stroke-width: 1.0;"/><!--link quarks.awakening_sequencers.AwakenedSequencer to quarks.supercollider_redux.ReduxEventStreamPlayer--><path d="M233.7107,1134.2441 C241.1938,1150.751 248.8915,1167.7311 255.3354,1181.9457 " fill="none" id="quarks.awakening_sequencers.AwakenedSequencer-quarks.supercollider_redux.ReduxEventStreamPlayer" style="stroke: #C5C8C6; stroke-width: 1.0;"/><polygon fill="#C5C8C6" points="228.3207,1122.3545,227.1549,1129.4707,233.2753,1133.2839,234.4411,1126.1677,228.3207,1122.3545" style="stroke: #C5C8C6; stroke-width: 1.0;"/><!--link quarks.awakening_sequencers.AwakenedSequencerFactory to quarks.awakening_sequencers.AwakenedSequencer--><path d="M211.848,932.3049 C210.2595,956.398 208.3241,985.7509 206.669,1010.8538 " fill="none" id="quarks.awakening_sequencers.AwakenedSequencerFactory-quarks.awakening_sequencers.AwakenedSequencer" style="stroke: #C5C8C6; stroke-width: 1.0;"/><polygon fill="#C5C8C6" points="212.7146,919.1612,208.3285,924.885,211.9251,931.1352,216.3112,925.4114,212.7146,919.1612" style="stroke: #C5C8C6; stroke-width: 1.0;"/><!--link quarks.supercollider_redux.ReduxEventStreamPlayer to quarks.supercollider_redux.StateStore--><path d="M306.819,1261.4643 C320.201,1278.2629 334.8667,1296.6731 346.1261,1310.8072 " fill="none" id="quarks.supercollider_redux.ReduxEventStreamPlayer-quarks.supercollider_redux.StateStore" style="stroke: #C5C8C6; stroke-width: 1.0;"/><polygon fill="#C5C8C6" points="298.6947,1251.2657,299.3045,1258.451,306.1716,1260.6516,305.5618,1253.4664,298.6947,1251.2657" style="stroke: #C5C8C6; stroke-width: 1.0;"/><!--
@startuml
skinparam backgroundColor #1d1f21
skinparam defaultFontName Monaco
skinparam defaultFontColor #c5c8c6
skinparam defaultFontSize 16
hide circle
skinparam class {
  backgroundColor #1d1f21
  fontColor #b294bb
  borderColor #b294bb
  arrowColor #c5c8c6
}
skinparam object {
  backgroundColor #1d1f21
  fontColor #f0c674
  borderColor #f0c674
  arrowColor #c5c8c6
}
skinparam state {
  backgroundColor #1d1f21
  borderColor #c5c8c6
  arrowColor #c5c8c6
}
skinparam sequenceParticipant {
  backgroundColor #1d1f21
  borderColor #c5c8c6
}
skinparam sequenceLifeLine {
  borderColor #c5c8c6
}
skinparam sequence {
  arrowColor #c5c8c6
}
skinparam component {
  backgroundColor #1d1f21
  borderColor #c5c8c6
}
skinparam interface {
  backgroundColor #1d1f21
  borderColor #c5c8c6
}
skinparam component {
  backgroundColor #1d1f21
  borderColor #c5c8c6
}

namespace nodejs.owa {
  class OWAController {
    Top level entity for controlling everything.
    Entry point, starts all sub-controllers.

    Store store
    soundController
    actionListener
    scController
    SerialInputController serialInputController
  }
  OWAController *- - redux.Store
  OWAController *- - SoundController
  OWAController *- - LightingController
  OWAController *- - SCController
  OWAController *- - SerialInputController

  class SCController {
    Handles starting and stopping the SuperCollider process.
  }
  SCController *- - redux.Store

  class SerialInputController {
    Takes button inputs from Arduino
  }
  SerialInputController *- - redux.Store

  class GUIInputController {
    
    Converts messages from gui UI into
    dispatched actions.

    oscActionListener
    store
  }
  OWAController o- - GUIInputController
  GUI_OSC_IN ()- - GUIInputController
  GUIInputController *- - OSCActionListener
  GUIInputController *- - redux.Store
  

  class OSCActionListener {
    Forward actions from osc.js to a redux state store.

    store
    oscSocket
  }
  OSCActionListener *- - redux.Store



  class SoundController {
    Forwards state changes to SuperCollider and forwards dispatches from SC
    to the store.

    OSCActionListener actionListener
    store
    linkStore
  }
  SoundController *- - OSCActionListener
  SoundController *- - redux.Store
  SoundController "owa.api" -down-> quarks.owa.OWAController

  class LightingController {
    Top level controller for lighting.

    pixels
    segmentPixels
    levelPixels
    controllersToTick
    fcController
  }
  LightingController *- - FadecandyController
  LightingController *- - SegmentLightingController
  LightingController *- - redux.Store

  class FadecandyController {
    Handles Fadecandy connection
  }
  FadecandyController *- - redux.Store

  class SegmentLightingController {
    Manages lighting for a single segment (ring) on the OWA sculpture
  }
  SegmentLightingController *- - redux.Store
  SegmentLightingController *- - SegmentQueuedAnimation
  SegmentLightingController *- - SegmentPlayingAnimation

  class SegmentQueuedAnimation {
    Animation for a single segment when it is queued.
  }

  class SegmentPlayingAnimation {
    Animation / visualization for a single segment when it is playing.
  }







  namespace gui {
    class OWAUIApp {
      Entry point for the GUI
    }
    OWAUIApp "GUI_OSC_IN" - -> nodejs.owa.GUIInputController
  }

}

namespace quarks.owa {
  class OWAController {
    StateStore owaStateStore
    StateStore linkStateStore
    SessionTimingController sessionTimingController
    OWAClockController clockController
    AwakenedSequencerFactory seqFactory
    BufferManager bufManager
  }
  OWAController *- - quarks.supercollider_redux.StateStore
  OWAController *- - OWAClockController
  OWAController *- - quarks.awakening_sequencers.AwakenedSequencerFactory
  OWAController *- - quarks.cs_supercollider_lib.BufferManager
  owa.api ()- OWAController

  class SessionTimingController {
    Handles scheduling auto transition between session phases
    
    TempoClock clock
    StateStore linkStore
  }
  OWAController *- - SessionTimingController
  SessionTimingController *- - quarks.supercollider_redux.StateStore

  class OWAClockController {
    StateStore store
    TempoClock clock
  }
  OWAClockController *- - quarks.supercollider_redux.StateStore
}

namespace quarks.cs_supercollider_lib {
  class BufferManager
}

namespace quarks.awakening_sequencers {
  class AwakenedSequencer {
    currentState
    clockController
    ReduxEventStreamPlayer streamPlayer
  }
  AwakenedSequencer *- - quarks.supercollider_redux.ReduxEventStreamPlayer


  class AwakenedSequencerFactory {
    AwakenedSequencer sequencers[]
  }
  AwakenedSequencerFactory *- - AwakenedSequencer
}

namespace quarks.supercollider_redux {
  class ReduxEventStreamPlayer {
    StateStore store;
  }
  ReduxEventStreamPlayer *- - StateStore

  class StateStore {
    
  }
}

@enduml

PlantUML version 1.2018.14(Fri Dec 21 08:33:16 PST 2018)
(GPL source distribution)
Java Runtime: Java(TM) SE Runtime Environment
JVM: Java HotSpot(TM) 64-Bit Server VM
Java Version: 11.0.2+9-LTS
Operating System: Mac OS X
OS Version: 10.14
Default Encoding: UTF-8
Language: en
Country: US
--></g></svg>