<?xml version="1.0" encoding="UTF-8" standalone="no"?><svg xmlns="http://www.w3.org/2000/svg" xmlns:xlink="http://www.w3.org/1999/xlink" contentScriptType="application/ecmascript" contentStyleType="text/css" height="1163px" preserveAspectRatio="none" style="width:3777px;height:1163px;background:#1D1F21;" version="1.1" viewBox="0 0 3777 1163" width="3777px" zoomAndPan="magnify"><defs><filter height="300%" id="fd72iv0cq88gp" width="300%" x="-1" y="-1"><feGaussianBlur result="blurOut" stdDeviation="2.0"/><feColorMatrix in="blurOut" result="blurOut2" type="matrix" values="0 0 0 0 0 0 0 0 0 0 0 0 0 0 0 0 0 0 .4 0"/><feOffset dx="4.0" dy="4.0" in="blurOut2" result="blurOut3"/><feBlend in="SourceGraphic" in2="blurOut3" mode="normal"/></filter></defs><g><!--cluster nodejs.owa--><polygon fill="#1D1F21" filter="url(#fd72iv0cq88gp)" points="940,16,1046,16,1053,43.3359,3099,43.3359,3099,840.5,940,840.5,940,16" style="stroke: #000000; stroke-width: 1.5;"/><line style="stroke: #000000; stroke-width: 1.5;" x1="940" x2="1053" y1="43.3359" y2="43.3359"/><text fill="#C5C8C6" font-family="Monaco" font-size="16" font-weight="bold" lengthAdjust="spacingAndGlyphs" textLength="100" x="944" y="35.3359">nodejs.owa</text><!--cluster nodejs.owa.gui--><polygon fill="#1D1F21" filter="url(#fd72iv0cq88gp)" points="1075,154.5,1111,154.5,1118,181.8359,1333,181.8359,1333,263.5,1075,263.5,1075,154.5" style="stroke: #000000; stroke-width: 1.5;"/><line style="stroke: #000000; stroke-width: 1.5;" x1="1075" x2="1118" y1="181.8359" y2="181.8359"/><text fill="#C5C8C6" font-family="Monaco" font-size="16" font-weight="bold" lengthAdjust="spacingAndGlyphs" textLength="30" x="1079" y="173.8359">gui</text><!--cluster redux--><polygon fill="#1D1F21" filter="url(#fd72iv0cq88gp)" points="2205,903,2261,903,2268,930.3359,2277,930.3359,2277,990,2205,990,2205,903" style="stroke: #000000; stroke-width: 1.5;"/><line style="stroke: #000000; stroke-width: 1.5;" x1="2205" x2="2268" y1="930.3359" y2="930.3359"/><text fill="#C5C8C6" font-family="Monaco" font-size="16" font-weight="bold" lengthAdjust="spacingAndGlyphs" textLength="50" x="2209" y="922.3359">redux</text><!--cluster quarks.owa--><polygon fill="#1D1F21" filter="url(#fd72iv0cq88gp)" points="14,657,120,657,127,684.3359,932,684.3359,932,1022,14,1022,14,657" style="stroke: #000000; stroke-width: 1.5;"/><line style="stroke: #000000; stroke-width: 1.5;" x1="14" x2="127" y1="684.3359" y2="684.3359"/><text fill="#C5C8C6" font-family="Monaco" font-size="16" font-weight="bold" lengthAdjust="spacingAndGlyphs" textLength="100" x="18" y="676.3359">quarks.owa</text><!--cluster quarks.supercollider_redux--><polygon fill="#1D1F21" filter="url(#fd72iv0cq88gp)" points="313,1042,579,1042,586,1069.3359,1057,1069.3359,1057,1151,313,1151,313,1042" style="stroke: #000000; stroke-width: 1.5;"/><line style="stroke: #000000; stroke-width: 1.5;" x1="313" x2="586" y1="1069.3359" y2="1069.3359"/><text fill="#C5C8C6" font-family="Monaco" font-size="16" font-weight="bold" lengthAdjust="spacingAndGlyphs" textLength="260" x="317" y="1061.3359">quarks.supercollider_redux</text><!--cluster quarks.awakening_sequencers--><polygon fill="#1D1F21" filter="url(#fd72iv0cq88gp)" points="3107,144,3383,144,3390,171.3359,3755,171.3359,3755,274,3107,274,3107,144" style="stroke: #000000; stroke-width: 1.5;"/><line style="stroke: #000000; stroke-width: 1.5;" x1="3107" x2="3390" y1="171.3359" y2="171.3359"/><text fill="#C5C8C6" font-family="Monaco" font-size="16" font-weight="bold" lengthAdjust="spacingAndGlyphs" textLength="270" x="3111" y="163.3359">quarks.awakening_sequencers</text><!--class nodejs.owa.OWAController--><rect fill="#1D1F21" filter="url(#fd72iv0cq88gp)" height="346.0391" id="nodejs.owa.OWAController" style="stroke: #B294BB; stroke-width: 1.5;" width="692" x="1737" y="48"/><text fill="#B294BB" font-family="Monaco" font-size="16" lengthAdjust="spacingAndGlyphs" textLength="130" x="2018" y="70.3359">OWAController</text><line style="stroke: #B294BB; stroke-width: 1.5;" x1="1738" x2="2428" y1="79.3359" y2="79.3359"/><text fill="#C5C8C6" font-family="Monaco" font-size="16" lengthAdjust="spacingAndGlyphs" textLength="440" x="1743" y="100.6719">Top level entity for controlling everything.</text><text fill="#C5C8C6" font-family="Monaco" font-size="16" lengthAdjust="spacingAndGlyphs" textLength="400" x="1743" y="122.0078">Entry point, starts all sub-controllers.</text><text fill="#C5C8C6" font-family="Monaco" font-size="16" lengthAdjust="spacingAndGlyphs" textLength="0" x="1753" y="143.3438"/><text fill="#C5C8C6" font-family="Monaco" font-size="16" lengthAdjust="spacingAndGlyphs" textLength="0" x="1753" y="164.6797"/><text fill="#C5C8C6" font-family="Monaco" font-size="16" lengthAdjust="spacingAndGlyphs" textLength="280" x="1743" y="186.0156">Main state store for OWA app</text><text fill="#C5C8C6" font-family="Monaco" font-size="16" lengthAdjust="spacingAndGlyphs" textLength="200" x="1743" y="207.3516">redux.Store owaStore</text><text fill="#C5C8C6" font-family="Monaco" font-size="16" lengthAdjust="spacingAndGlyphs" textLength="0" x="1753" y="228.6875"/><text fill="#C5C8C6" font-family="Monaco" font-size="16" lengthAdjust="spacingAndGlyphs" textLength="0" x="1753" y="250.0234"/><text fill="#C5C8C6" font-family="Monaco" font-size="16" lengthAdjust="spacingAndGlyphs" textLength="680" x="1743" y="271.3594">A separate redux state store for the Ableton Link state.  It changes</text><text fill="#C5C8C6" font-family="Monaco" font-size="16" lengthAdjust="spacingAndGlyphs" textLength="630" x="1743" y="292.6953">very frequently and thus does not need to be in the same store.</text><text fill="#C5C8C6" font-family="Monaco" font-size="16" lengthAdjust="spacingAndGlyphs" textLength="210" x="1743" y="314.0313">redux.Store linkStore</text><text fill="#C5C8C6" font-family="Monaco" font-size="16" lengthAdjust="spacingAndGlyphs" textLength="0" x="1753" y="335.3672"/><text fill="#C5C8C6" font-family="Monaco" font-size="16" lengthAdjust="spacingAndGlyphs" textLength="150" x="1743" y="356.7031">inputController</text><text fill="#C5C8C6" font-family="Monaco" font-size="16" lengthAdjust="spacingAndGlyphs" textLength="150" x="1743" y="378.0391">soundController</text><line style="stroke: #B294BB; stroke-width: 1.5;" x1="1738" x2="2428" y1="386.0391" y2="386.0391"/><!--class nodejs.owa.GUIInputController--><rect fill="#1D1F21" filter="url(#fd72iv0cq88gp)" height="154.0156" id="nodejs.owa.GUIInputController" style="stroke: #B294BB; stroke-width: 1.5;" width="352" x="948" y="464.5"/><text fill="#B294BB" font-family="Monaco" font-size="16" lengthAdjust="spacingAndGlyphs" textLength="180" x="1034" y="486.8359">GUIInputController</text><line style="stroke: #B294BB; stroke-width: 1.5;" x1="949" x2="1299" y1="495.8359" y2="495.8359"/><text fill="#C5C8C6" font-family="Monaco" font-size="16" lengthAdjust="spacingAndGlyphs" textLength="340" x="954" y="517.1719">Converts messages from gui UI into</text><text fill="#C5C8C6" font-family="Monaco" font-size="16" lengthAdjust="spacingAndGlyphs" textLength="190" x="954" y="538.5078">dispatched actions.</text><text fill="#C5C8C6" font-family="Monaco" font-size="16" lengthAdjust="spacingAndGlyphs" textLength="0" x="964" y="559.8438"/><text fill="#C5C8C6" font-family="Monaco" font-size="16" lengthAdjust="spacingAndGlyphs" textLength="170" x="954" y="581.1797">oscActionListener</text><text fill="#C5C8C6" font-family="Monaco" font-size="16" lengthAdjust="spacingAndGlyphs" textLength="50" x="954" y="602.5156">store</text><line style="stroke: #B294BB; stroke-width: 1.5;" x1="949" x2="1299" y1="610.5156" y2="610.5156"/><ellipse cx="1043" cy="221" fill="#1D1F21" filter="url(#fd72iv0cq88gp)" rx="5" ry="5" style="stroke: #B294BB; stroke-width: 1.5;"/><text fill="#B294BB" font-family="Monaco" font-size="16" lengthAdjust="spacingAndGlyphs" textLength="100" x="993" y="243.3359">GUI_OSC_IN</text><!--class nodejs.owa.OSCActionListener--><rect fill="#1D1F21" filter="url(#fd72iv0cq88gp)" height="132.6797" id="nodejs.owa.OSCActionListener" style="stroke: #B294BB; stroke-width: 1.5;" width="522" x="1595" y="699.5"/><text fill="#B294BB" font-family="Monaco" font-size="16" lengthAdjust="spacingAndGlyphs" textLength="170" x="1771" y="721.8359">OSCActionListener</text><line style="stroke: #B294BB; stroke-width: 1.5;" x1="1596" x2="2116" y1="730.8359" y2="730.8359"/><text fill="#C5C8C6" font-family="Monaco" font-size="16" lengthAdjust="spacingAndGlyphs" textLength="510" x="1601" y="752.1719">Forward actions from osc.js to a redux state store.</text><text fill="#C5C8C6" font-family="Monaco" font-size="16" lengthAdjust="spacingAndGlyphs" textLength="0" x="1611" y="773.5078"/><text fill="#C5C8C6" font-family="Monaco" font-size="16" lengthAdjust="spacingAndGlyphs" textLength="50" x="1601" y="794.8438">store</text><text fill="#C5C8C6" font-family="Monaco" font-size="16" lengthAdjust="spacingAndGlyphs" textLength="90" x="1601" y="816.1797">oscSocket</text><line style="stroke: #B294BB; stroke-width: 1.5;" x1="1596" x2="2116" y1="824.1797" y2="824.1797"/><!--class nodejs.owa.AbletonLinkController--><rect fill="#1D1F21" filter="url(#fd72iv0cq88gp)" height="132.6797" id="nodejs.owa.AbletonLinkController" style="stroke: #B294BB; stroke-width: 1.5;" width="612" x="2479" y="475"/><text fill="#B294BB" font-family="Monaco" font-size="16" lengthAdjust="spacingAndGlyphs" textLength="210" x="2680" y="497.3359">AbletonLinkController</text><line style="stroke: #B294BB; stroke-width: 1.5;" x1="2480" x2="3090" y1="506.3359" y2="506.3359"/><text fill="#C5C8C6" font-family="Monaco" font-size="16" lengthAdjust="spacingAndGlyphs" textLength="600" x="2485" y="527.6719">Creates an Ableton Link client and forwards the state to the</text><text fill="#C5C8C6" font-family="Monaco" font-size="16" lengthAdjust="spacingAndGlyphs" textLength="60" x="2485" y="549.0078">store.</text><text fill="#C5C8C6" font-family="Monaco" font-size="16" lengthAdjust="spacingAndGlyphs" textLength="0" x="2495" y="570.3438"/><text fill="#C5C8C6" font-family="Monaco" font-size="16" lengthAdjust="spacingAndGlyphs" textLength="90" x="2485" y="591.6797">linkStore</text><line style="stroke: #B294BB; stroke-width: 1.5;" x1="2480" x2="3090" y1="599.6797" y2="599.6797"/><!--class nodejs.owa.SoundController--><rect fill="#1D1F21" filter="url(#fd72iv0cq88gp)" height="175.3516" id="nodejs.owa.SoundController" style="stroke: #B294BB; stroke-width: 1.5;" width="722" x="1722" y="454"/><text fill="#B294BB" font-family="Monaco" font-size="16" lengthAdjust="spacingAndGlyphs" textLength="150" x="2008" y="476.3359">SoundController</text><line style="stroke: #B294BB; stroke-width: 1.5;" x1="1723" x2="2443" y1="485.3359" y2="485.3359"/><text fill="#C5C8C6" font-family="Monaco" font-size="16" lengthAdjust="spacingAndGlyphs" textLength="710" x="1728" y="506.6719">Forwards state changes to SuperCollider and forwards dispatches from SC</text><text fill="#C5C8C6" font-family="Monaco" font-size="16" lengthAdjust="spacingAndGlyphs" textLength="130" x="1728" y="528.0078">to the store.</text><text fill="#C5C8C6" font-family="Monaco" font-size="16" lengthAdjust="spacingAndGlyphs" textLength="0" x="1738" y="549.3438"/><text fill="#C5C8C6" font-family="Monaco" font-size="16" lengthAdjust="spacingAndGlyphs" textLength="320" x="1728" y="570.6797">OSCActionListener actionListener</text><text fill="#C5C8C6" font-family="Monaco" font-size="16" lengthAdjust="spacingAndGlyphs" textLength="50" x="1728" y="592.0156">store</text><text fill="#C5C8C6" font-family="Monaco" font-size="16" lengthAdjust="spacingAndGlyphs" textLength="90" x="1728" y="613.3516">linkStore</text><line style="stroke: #B294BB; stroke-width: 1.5;" x1="1723" x2="2443" y1="621.3516" y2="621.3516"/><!--class nodejs.owa.LightingController--><rect fill="#1D1F21" filter="url(#fd72iv0cq88gp)" height="68.6719" id="nodejs.owa.LightingController" style="stroke: #B294BB; stroke-width: 1.5;" width="352" x="1335" y="507"/><text fill="#B294BB" font-family="Monaco" font-size="16" lengthAdjust="spacingAndGlyphs" textLength="180" x="1421" y="529.3359">LightingController</text><line style="stroke: #B294BB; stroke-width: 1.5;" x1="1336" x2="1686" y1="538.3359" y2="538.3359"/><text fill="#C5C8C6" font-family="Monaco" font-size="16" lengthAdjust="spacingAndGlyphs" textLength="340" x="1341" y="559.6719">Top level controller for lighting.</text><line style="stroke: #B294BB; stroke-width: 1.5;" x1="1336" x2="1686" y1="567.6719" y2="567.6719"/><!--class nodejs.owa.gui.OWAUIApp--><rect fill="#1D1F21" filter="url(#fd72iv0cq88gp)" height="68.6719" id="nodejs.owa.gui.OWAUIApp" style="stroke: #B294BB; stroke-width: 1.5;" width="242" x="1083" y="186.5"/><text fill="#B294BB" font-family="Monaco" font-size="16" lengthAdjust="spacingAndGlyphs" textLength="80" x="1164" y="208.8359">OWAUIApp</text><line style="stroke: #B294BB; stroke-width: 1.5;" x1="1084" x2="1324" y1="217.8359" y2="217.8359"/><text fill="#C5C8C6" font-family="Monaco" font-size="16" lengthAdjust="spacingAndGlyphs" textLength="230" x="1089" y="239.1719">Entry point for the GUI</text><line style="stroke: #B294BB; stroke-width: 1.5;" x1="1084" x2="1324" y1="247.1719" y2="247.1719"/><!--class redux.Store--><rect fill="#1D1F21" filter="url(#fd72iv0cq88gp)" height="47.3359" id="redux.Store" style="stroke: #B294BB; stroke-width: 1.5;" width="56" x="2213" y="935"/><text fill="#B294BB" font-family="Monaco" font-size="16" lengthAdjust="spacingAndGlyphs" textLength="50" x="2216" y="957.3359">Store</text><line style="stroke: #B294BB; stroke-width: 1.5;" x1="2214" x2="2268" y1="966.3359" y2="966.3359"/><line style="stroke: #B294BB; stroke-width: 1.5;" x1="2214" x2="2268" y1="974.3359" y2="974.3359"/><!--class quarks.owa.OWAController--><rect fill="#1D1F21" filter="url(#fd72iv0cq88gp)" height="154.0156" id="quarks.owa.OWAController" style="stroke: #B294BB; stroke-width: 1.5;" width="642" x="282" y="689"/><text fill="#B294BB" font-family="Monaco" font-size="16" lengthAdjust="spacingAndGlyphs" textLength="130" x="538" y="711.3359">OWAController</text><line style="stroke: #B294BB; stroke-width: 1.5;" x1="283" x2="923" y1="720.3359" y2="720.3359"/><text fill="#C5C8C6" font-family="Monaco" font-size="16" lengthAdjust="spacingAndGlyphs" textLength="240" x="288" y="741.6719">StateStore owaStateStore</text><text fill="#C5C8C6" font-family="Monaco" font-size="16" lengthAdjust="spacingAndGlyphs" textLength="250" x="288" y="763.0078">StateStore linkStateStore</text><text fill="#C5C8C6" font-family="Monaco" font-size="16" lengthAdjust="spacingAndGlyphs" textLength="470" x="288" y="784.3438">SessionTimingController sessionTimingController</text><text fill="#C5C8C6" font-family="Monaco" font-size="16" lengthAdjust="spacingAndGlyphs" textLength="480" x="288" y="805.6797">ReduxAbletonTempoClockController clockController</text><text fill="#C5C8C6" font-family="Monaco" font-size="16" lengthAdjust="spacingAndGlyphs" textLength="630" x="288" y="827.0156">quarks.awakening_sequencers.AwakenedSequencerFactory seqFactory</text><line style="stroke: #B294BB; stroke-width: 1.5;" x1="283" x2="923" y1="835.0156" y2="835.0156"/><ellipse cx="242" cy="766" fill="#1D1F21" filter="url(#fd72iv0cq88gp)" rx="5" ry="5" style="stroke: #B294BB; stroke-width: 1.5;"/><text fill="#B294BB" font-family="Monaco" font-size="16" lengthAdjust="spacingAndGlyphs" textLength="70" x="207" y="788.3359">owa.api</text><!--class quarks.owa.SessionTimingController--><rect fill="#1D1F21" filter="url(#fd72iv0cq88gp)" height="111.3438" id="quarks.owa.SessionTimingController" style="stroke: #B294BB; stroke-width: 1.5;" width="902" x="22" y="903"/><text fill="#B294BB" font-family="Monaco" font-size="16" lengthAdjust="spacingAndGlyphs" textLength="230" x="358" y="925.3359">SessionTimingController</text><line style="stroke: #B294BB; stroke-width: 1.5;" x1="23" x2="923" y1="934.3359" y2="934.3359"/><text fill="#C5C8C6" font-family="Monaco" font-size="16" lengthAdjust="spacingAndGlyphs" textLength="480" x="28" y="955.6719">ReduxAbletonTempoClockController clockController</text><text fill="#C5C8C6" font-family="Monaco" font-size="16" lengthAdjust="spacingAndGlyphs" textLength="200" x="28" y="977.0078">StateStore linkStore</text><line style="stroke: #B294BB; stroke-width: 1.5;" x1="23" x2="923" y1="985.0078" y2="985.0078"/><text fill="#C5C8C6" font-family="Monaco" font-size="16" lengthAdjust="spacingAndGlyphs" textLength="890" x="28" y="1006.3438">Handles scheduling the timing to transition phases (when?, can this be in reducers too ?)</text><!--class quarks.supercollider_redux.StateStore--><rect fill="#1D1F21" filter="url(#fd72iv0cq88gp)" height="47.3359" id="quarks.supercollider_redux.StateStore" style="stroke: #B294BB; stroke-width: 1.5;" width="106" x="582" y="1085"/><text fill="#B294BB" font-family="Monaco" font-size="16" lengthAdjust="spacingAndGlyphs" textLength="100" x="585" y="1107.3359">StateStore</text><line style="stroke: #B294BB; stroke-width: 1.5;" x1="583" x2="687" y1="1116.3359" y2="1116.3359"/><line style="stroke: #B294BB; stroke-width: 1.5;" x1="583" x2="687" y1="1124.3359" y2="1124.3359"/><!--class quarks.supercollider_redux.ReduxAbletonTempoClockController--><rect fill="#1D1F21" filter="url(#fd72iv0cq88gp)" height="47.3359" id="quarks.supercollider_redux.ReduxAbletonTempoClockController" style="stroke: #B294BB; stroke-width: 1.5;" width="326" x="723" y="1085"/><text fill="#B294BB" font-family="Monaco" font-size="16" lengthAdjust="spacingAndGlyphs" textLength="320" x="726" y="1107.3359">ReduxAbletonTempoClockController</text><line style="stroke: #B294BB; stroke-width: 1.5;" x1="724" x2="1048" y1="1116.3359" y2="1116.3359"/><line style="stroke: #B294BB; stroke-width: 1.5;" x1="724" x2="1048" y1="1124.3359" y2="1124.3359"/><!--class quarks.supercollider_redux.ReduxEventStreamPlayer--><rect fill="#1D1F21" filter="url(#fd72iv0cq88gp)" height="68.6719" id="quarks.supercollider_redux.ReduxEventStreamPlayer" style="stroke: #B294BB; stroke-width: 1.5;" width="226" x="321" y="1074"/><text fill="#B294BB" font-family="Monaco" font-size="16" lengthAdjust="spacingAndGlyphs" textLength="220" x="324" y="1096.3359">ReduxEventStreamPlayer</text><line style="stroke: #B294BB; stroke-width: 1.5;" x1="322" x2="546" y1="1105.3359" y2="1105.3359"/><text fill="#C5C8C6" font-family="Monaco" font-size="16" lengthAdjust="spacingAndGlyphs" textLength="170" x="327" y="1126.6719">StateStore store;</text><line style="stroke: #B294BB; stroke-width: 1.5;" x1="322" x2="546" y1="1134.6719" y2="1134.6719"/><!--class quarks.awakening_sequencers.AwakenedSequencer--><rect fill="#1D1F21" filter="url(#fd72iv0cq88gp)" height="90.0078" id="quarks.awakening_sequencers.AwakenedSequencer" style="stroke: #B294BB; stroke-width: 1.5;" width="632" x="3115" y="176"/><text fill="#B294BB" font-family="Monaco" font-size="16" lengthAdjust="spacingAndGlyphs" textLength="170" x="3346" y="198.3359">AwakenedSequencer</text><line style="stroke: #B294BB; stroke-width: 1.5;" x1="3116" x2="3746" y1="207.3359" y2="207.3359"/><text fill="#C5C8C6" font-family="Monaco" font-size="16" lengthAdjust="spacingAndGlyphs" textLength="120" x="3121" y="228.6719">currentState</text><text fill="#C5C8C6" font-family="Monaco" font-size="16" lengthAdjust="spacingAndGlyphs" textLength="620" x="3121" y="250.0078">quarks.supercollider_redux.ReduxEventStreamPlayer streamPlayer</text><line style="stroke: #B294BB; stroke-width: 1.5;" x1="3116" x2="3746" y1="258.0078" y2="258.0078"/><!--link nodejs.owa.OWAController to redux.Store--><path d="M2442.2353,255.3452 C2703.6389,288.6345 3025.7859,349.7696 3109,454 C3361.2959,770.0151 2443.4266,927.5932 2269.1086,954.3616 " fill="none" id="nodejs.owa.OWAController-redux.Store" style="stroke: #C5C8C6; stroke-width: 1.0;"/><polygon fill="#C5C8C6" points="2429.0498,253.6829,2434.5024,258.4019,2440.9556,255.1838,2435.503,250.4648,2429.0498,253.6829" style="stroke: #C5C8C6; stroke-width: 1.0;"/><!--link nodejs.owa.OWAController to nodejs.owa.GUIInputController--><path d="M1723.7968,320.0745 C1594.6404,358.4029 1448.6374,404.8754 1318,454 C1309.1812,457.3162 1300.1944,460.8399 1291.1605,464.4969 " fill="none" id="nodejs.owa.OWAController-nodejs.owa.GUIInputController" style="stroke: #C5C8C6; stroke-width: 1.0;"/><polygon fill="#1D1F21" points="1736.6422,316.2729,1729.7537,314.1401,1725.1356,319.6784,1732.0241,321.8112,1736.6422,316.2729" style="stroke: #C5C8C6; stroke-width: 1.0;"/><!--link nodejs.owa.GUIInputControllerlol9 to nodejs.owa.GUIInputController--><path d="M1043.2814,226.1791 C1044.5219,247.332 1050.2063,329.126 1067,394 C1073.0199,417.255 1081.5837,441.8447 1090.2491,464.14 " fill="none" id="nodejs.owa.GUIInputControllerlol9-nodejs.owa.GUIInputController" style="stroke: #C5C8C6; stroke-width: 1.0;"/><!--link nodejs.owa.GUIInputController to nodejs.owa.OSCActionListener--><path d="M1302.2709,623.3054 C1307.5504,625.2778 1312.8014,627.1813 1318,629 C1406.7026,660.0314 1505.8778,687.298 1594.6817,709.1663 " fill="none" id="nodejs.owa.GUIInputController-nodejs.owa.OSCActionListener" style="stroke: #C5C8C6; stroke-width: 1.0;"/><polygon fill="#C5C8C6" points="1289.9111,618.5859,1294.0894,624.4631,1301.1216,622.8667,1296.9433,616.9895,1289.9111,618.5859" style="stroke: #C5C8C6; stroke-width: 1.0;"/><!--link nodejs.owa.GUIInputController to redux.Store--><path d="M1294.1225,622.5529 C1302.1065,624.9838 1310.0893,627.1562 1318,629 C1406.4601,649.6176 2062.9027,601.7527 2135,657 C2203.6288,709.5894 2162.4097,761.7598 2192,843 C2203.7783,875.3373 2219.6828,911.7545 2230.1337,934.8976 " fill="none" id="nodejs.owa.GUIInputController-redux.Store" style="stroke: #C5C8C6; stroke-width: 1.0;"/><polygon fill="#C5C8C6" points="1281.5852,618.53,1286.0762,624.1719,1293.0114,622.1963,1288.5204,616.5544,1281.5852,618.53" style="stroke: #C5C8C6; stroke-width: 1.0;"/><!--link nodejs.owa.OSCActionListener to redux.Store--><path d="M2000.9815,838.4907 C2079.181,877.5905 2168.5404,922.2702 2212.9214,944.4607 " fill="none" id="nodejs.owa.OSCActionListener-redux.Store" style="stroke: #C5C8C6; stroke-width: 1.0;"/><polygon fill="#C5C8C6" points="1989.0343,832.5171,1992.612,838.7781,1999.7674,837.8837,1996.1897,831.6227,1989.0343,832.5171" style="stroke: #C5C8C6; stroke-width: 1.0;"/><!--link nodejs.owa.OWAController to nodejs.owa.AbletonLinkController--><path d="M2441.2896,384.5781 C2511.425,416.5986 2581.1721,448.4418 2639.3236,474.991 " fill="none" id="nodejs.owa.OWAController-nodejs.owa.AbletonLinkController" style="stroke: #C5C8C6; stroke-width: 1.0;"/><polygon fill="#C5C8C6" points="2429.1156,379.02,2432.9124,385.1506,2440.0317,384.0038,2436.2349,377.8732,2429.1156,379.02" style="stroke: #C5C8C6; stroke-width: 1.0;"/><!--link nodejs.owa.AbletonLinkController to redux.Store--><path d="M2687.7078,616.0787 C2560.7663,713.385 2345.811,878.1577 2269.1766,936.9014 " fill="none" id="nodejs.owa.AbletonLinkController-redux.Store" style="stroke: #C5C8C6; stroke-width: 1.0;"/><polygon fill="#C5C8C6" points="2698.2001,608.036,2691.0047,608.5116,2688.6763,615.3364,2695.8717,614.8608,2698.2001,608.036" style="stroke: #C5C8C6; stroke-width: 1.0;"/><!--link nodejs.owa.OWAController to nodejs.owa.SoundController--><path d="M2083,407.781 C2083,423.6486 2083,439.1592 2083,453.667 " fill="none" id="nodejs.owa.OWAController-nodejs.owa.SoundController" style="stroke: #C5C8C6; stroke-width: 1.0;"/><polygon fill="#C5C8C6" points="2083,394.3824,2079,400.3824,2083,406.3824,2087,400.3824,2083,394.3824" style="stroke: #C5C8C6; stroke-width: 1.0;"/><!--link nodejs.owa.SoundController to nodejs.owa.OSCActionListener--><path d="M1984.8278,638.591 C1964.1699,659.0214 1942.822,680.1341 1923.5894,699.155 " fill="none" id="nodejs.owa.SoundController-nodejs.owa.OSCActionListener" style="stroke: #C5C8C6; stroke-width: 1.0;"/><polygon fill="#C5C8C6" points="1994.2606,629.2621,1987.1818,630.6372,1985.7285,637.7003,1992.8073,636.3252,1994.2606,629.2621" style="stroke: #C5C8C6; stroke-width: 1.0;"/><!--link nodejs.owa.SoundController to redux.Store--><path d="M2186.3557,640.1138 C2189.8999,645.6199 2193.1456,651.2576 2196,657 C2242.9969,751.546 2244.0734,881.8353 2242.2593,934.7404 " fill="none" id="nodejs.owa.SoundController-redux.Store" style="stroke: #C5C8C6; stroke-width: 1.0;"/><polygon fill="#C5C8C6" points="2178.6909,629.0054,2178.8062,636.2156,2185.5061,638.8823,2185.3908,631.6721,2178.6909,629.0054" style="stroke: #C5C8C6; stroke-width: 1.0;"/><!--link nodejs.owa.SoundController to quarks.owa.OWAController--><path d="M1721.8848,626.6435 C1716.2236,627.4716 1710.5925,628.2584 1705,629 C1364.2026,674.1932 1270.345,596.1072 932,657 C892.0232,664.1947 850.2527,675.1743 810.4143,687.4424 " fill="none" id="nodejs.owa.SoundController-quarks.owa.OWAController" style="stroke: #C5C8C6; stroke-width: 1.0;"/><polygon fill="#C5C8C6" points="805.5658,688.9448,815.3465,690.1019,810.3418,687.4649,812.9787,682.4603,805.5658,688.9448" style="stroke: #C5C8C6; stroke-width: 1.0;"/><text fill="#C5C8C6" font-family="Monaco" font-size="16" lengthAdjust="spacingAndGlyphs" textLength="70" x="1643.8387" y="624.4955">owa.api</text><!--link nodejs.owa.OWAController to nodejs.owa.LightingController--><path d="M1762.3173,400.6832 C1689.7921,441.3201 1620.2867,480.2651 1572.8282,506.8567 " fill="none" id="nodejs.owa.OWAController-nodejs.owa.LightingController" style="stroke: #C5C8C6; stroke-width: 1.0;"/><polygon fill="#C5C8C6" points="1773.9802,394.1484,1766.7906,393.5917,1763.5115,400.0142,1770.7011,400.5708,1773.9802,394.1484" style="stroke: #C5C8C6; stroke-width: 1.0;"/><!--link nodejs.owa.gui.OWAUIApp to nodejs.owa.GUIInputController--><path d="M1195.3626,255.6036 C1183.2935,303.9552 1161.0161,393.2044 1144.5502,459.1706 " fill="none" id="nodejs.owa.gui.OWAUIApp-nodejs.owa.GUIInputController" style="stroke: #C5C8C6; stroke-width: 1.0;"/><polygon fill="#C5C8C6" points="1143.2754,464.2778,1149.3359,456.5144,1144.4863,459.4266,1141.574,454.577,1143.2754,464.2778" style="stroke: #C5C8C6; stroke-width: 1.0;"/><text fill="#C5C8C6" font-family="Monaco" font-size="16" lengthAdjust="spacingAndGlyphs" textLength="100" x="1085.6508" y="280.4648">GUI_OSC_IN</text><!--link quarks.owa.OWAController to quarks.supercollider_redux.StateStore--><path d="M890.7674,850.7773 C910.1505,865.4866 927.3555,882.7468 941,903 C970.5506,946.8634 976.7843,983.0549 941,1022 C905.3893,1060.7563 753.0118,1020.4351 705,1042 C684.0515,1051.4092 665.477,1069.7927 652.735,1084.8505 " fill="none" id="quarks.owa.OWAController-quarks.supercollider_redux.StateStore" style="stroke: #C5C8C6; stroke-width: 1.0;"/><polygon fill="#C5C8C6" points="880.1136,843.0911,882.6391,849.8455,889.8452,850.1122,887.3198,843.3578,880.1136,843.0911" style="stroke: #C5C8C6; stroke-width: 1.0;"/><!--link quarks.owa.OWAController to quarks.supercollider_redux.ReduxAbletonTempoClockController--><path d="M893.1133,848.0795 C933.8536,865.0842 966.4984,883.7282 980,903 C1010.3468,946.3163 1001.2498,973.5678 980,1022 C968.5945,1047.9953 945.0945,1069.6203 924.4459,1084.7464 " fill="none" id="quarks.owa.OWAController-quarks.supercollider_redux.ReduxAbletonTempoClockController" style="stroke: #C5C8C6; stroke-width: 1.0;"/><polygon fill="#C5C8C6" points="880.8225,843.0927,884.8784,849.055,891.9421,847.6043,887.8862,841.642,880.8225,843.0927" style="stroke: #C5C8C6; stroke-width: 1.0;"/><!--link quarks.owa.OWAControllerlol36 to quarks.owa.OWAController--><path d="M247.2881,766 C258.7515,766 270.2148,766 281.6782,766 " fill="none" id="quarks.owa.OWAControllerlol36-quarks.owa.OWAController" style="stroke: #C5C8C6; stroke-width: 1.0;"/><!--link quarks.owa.OWAController to quarks.owa.SessionTimingController--><path d="M543.5396,854.0471 C532.3097,870.676 520.8576,887.6339 510.5373,902.9159 " fill="none" id="quarks.owa.OWAController-quarks.owa.SessionTimingController" style="stroke: #C5C8C6; stroke-width: 1.0;"/><polygon fill="#C5C8C6" points="550.8731,843.1879,544.2003,845.9216,544.1572,853.1326,550.83,850.3989,550.8731,843.1879" style="stroke: #C5C8C6; stroke-width: 1.0;"/><!--link quarks.owa.SessionTimingController to quarks.supercollider_redux.ReduxAbletonTempoClockController--><path d="M640.2316,1018.5398 C662.028,1026.4089 684.0523,1034.3823 705,1042 C743.8551,1056.1298 787.3454,1072.1032 821.9559,1084.8529 " fill="none" id="quarks.owa.SessionTimingController-quarks.supercollider_redux.ReduxAbletonTempoClockController" style="stroke: #C5C8C6; stroke-width: 1.0;"/><polygon fill="#C5C8C6" points="627.7959,1014.0525,632.082,1019.8516,639.0835,1018.1256,634.7974,1012.3265,627.7959,1014.0525" style="stroke: #C5C8C6; stroke-width: 1.0;"/><!--link quarks.owa.SessionTimingController to quarks.supercollider_redux.StateStore--><path d="M543.7801,1023.3161 C550.622,1029.6206 557.4499,1035.9277 564,1042 C579.234,1056.1227 596.2194,1072.0259 609.7565,1084.7385 " fill="none" id="quarks.owa.SessionTimingController-quarks.supercollider_redux.StateStore" style="stroke: #C5C8C6; stroke-width: 1.0;"/><polygon fill="#C5C8C6" points="533.7767,1014.1085,535.4824,1021.115,542.6059,1022.2353,540.9002,1015.2288,533.7767,1014.1085" style="stroke: #C5C8C6; stroke-width: 1.0;"/><!--
@startuml
skinparam backgroundColor #1d1f21
skinparam defaultFontName Monaco
skinparam defaultFontColor #c5c8c6
skinparam defaultFontSize 16
hide circle
skinparam class {
  backgroundColor #1d1f21
  fontColor #b294bb
  borderColor #b294bb
  arrowColor #c5c8c6
}
skinparam object {
  backgroundColor #1d1f21
  fontColor #f0c674
  borderColor #f0c674
  arrowColor #c5c8c6
}
skinparam state {
  backgroundColor #1d1f21
  borderColor #c5c8c6
  arrowColor #c5c8c6
}
skinparam sequenceParticipant {
  backgroundColor #1d1f21
  borderColor #c5c8c6
}
skinparam sequenceLifeLine {
  borderColor #c5c8c6
}
skinparam sequence {
  arrowColor #c5c8c6
}
skinparam component {
  backgroundColor #1d1f21
  borderColor #c5c8c6
}
skinparam interface {
  backgroundColor #1d1f21
  borderColor #c5c8c6
}
skinparam component {
  backgroundColor #1d1f21
  borderColor #c5c8c6
}

namespace nodejs.owa {
  class OWAController {
    Top level entity for controlling everything.
    Entry point, starts all sub-controllers.
    \n
    Main state store for OWA app
    redux.Store owaStore
    \n
    A separate redux state store for the Ableton Link state.  It changes
    very frequently and thus does not need to be in the same store.
    redux.Store linkStore

    inputController
    soundController
  }
  OWAController *- - redux.Store

  class GUIInputController {
    
    Converts messages from gui UI into
    dispatched actions.

    oscActionListener
    store
  }
  OWAController o- - GUIInputController
  GUI_OSC_IN ()- - GUIInputController
  GUIInputController *- - OSCActionListener
  GUIInputController *- - redux.Store
  

  class OSCActionListener {
    Forward actions from osc.js to a redux state store.

    store
    oscSocket
  }
  OSCActionListener *- - redux.Store

  class AbletonLinkController {
    Creates an Ableton Link client and forwards the state to the
    store.

    linkStore
  }
  OWAController *- - AbletonLinkController
  AbletonLinkController *- - redux.Store

  class SoundController {
    Forwards state changes to SuperCollider and forwards dispatches from SC
    to the store.

    OSCActionListener actionListener
    store
    linkStore
  }
  OWAController *- - SoundController
  SoundController *- - OSCActionListener
  SoundController *- - redux.Store
  SoundController "owa.api" -down-> quarks.owa.OWAController

  class LightingController {
    Top level controller for lighting.
  }
  OWAController *- - LightingController






  namespace gui {
    class OWAUIApp {
      Entry point for the GUI
    }
    OWAUIApp "GUI_OSC_IN" - -> nodejs.owa.GUIInputController
  }

}

namespace quarks.owa {
  class OWAController {
    StateStore owaStateStore
    StateStore linkStateStore
    SessionTimingController sessionTimingController
    ReduxAbletonTempoClockController clockController
    quarks.awakening_sequencers.AwakenedSequencerFactory seqFactory
  }
  OWAController *- - quarks.supercollider_redux.StateStore
  OWAController *- - quarks.supercollider_redux.ReduxAbletonTempoClockController
  owa.api ()- OWAController

  class SessionTimingController {
    Handles scheduling the timing to transition phases (when?, can this be in reducers too ?)
    
    ReduxAbletonTempoClockController clockController
    StateStore linkStore
  }
  OWAController *- - SessionTimingController
  SessionTimingController *- - quarks.supercollider_redux.ReduxAbletonTempoClockController
  SessionTimingController *- - quarks.supercollider_redux.StateStore
}

namespace quarks.awakening_sequencers {
  class AwakenedSequencer {
    currentState
    quarks.supercollider_redux.ReduxEventStreamPlayer streamPlayer
  }
}

namespace quarks.supercollider_redux {
  class ReduxEventStreamPlayer {
    StateStore store;
  }

  class StateStore {
    
  }
}


@enduml

PlantUML version 1.2018.01(Sun Jan 28 10:08:22 PST 2018)
(GPL source distribution)
Java Runtime: Java(TM) SE Runtime Environment
JVM: Java HotSpot(TM) 64-Bit Server VM
Java Version: 9.0.4+11
Operating System: Mac OS X
OS Version: 10.13.5
Default Encoding: UTF-8
Language: en
Country: US
--></g></svg>