<?xml version="1.0" encoding="UTF-8" standalone="no"?><svg xmlns="http://www.w3.org/2000/svg" xmlns:xlink="http://www.w3.org/1999/xlink" contentScriptType="application/ecmascript" contentStyleType="text/css" height="911px" preserveAspectRatio="none" style="width:2156px;height:911px;" version="1.1" viewBox="0 0 2156 911" width="2156px" zoomAndPan="magnify"><defs><filter height="300%" id="f1xmfh0h7a6zip" width="300%" x="-1" y="-1"><feGaussianBlur result="blurOut" stdDeviation="2.0"/><feColorMatrix in="blurOut" result="blurOut2" type="matrix" values="0 0 0 0 0 0 0 0 0 0 0 0 0 0 0 0 0 0 .4 0"/><feOffset dx="4.0" dy="4.0" in="blurOut2" result="blurOut3"/><feBlend in="SourceGraphic" in2="blurOut3" mode="normal"/></filter></defs><g><!--cluster nodejs.owa--><polygon fill="#FFFFFF" filter="url(#f1xmfh0h7a6zip)" points="674,16,760,16,767,40.6689,1952,40.6689,1952,651,674,651,674,16" style="stroke: #000000; stroke-width: 1.5;"/><line style="stroke: #000000; stroke-width: 1.5;" x1="674" x2="767" y1="40.6689" y2="40.6689"/><text fill="#000000" font-family="Monaco" font-size="14" font-weight="bold" lengthAdjust="spacingAndGlyphs" textLength="80" x="678" y="33.1689">nodejs.owa</text><!--cluster nodejs.owa.gui--><polygon fill="#FFFFFF" filter="url(#f1xmfh0h7a6zip)" points="789,111,819,111,826,135.6689,979,135.6689,979,205,789,205,789,111" style="stroke: #000000; stroke-width: 1.5;"/><line style="stroke: #000000; stroke-width: 1.5;" x1="789" x2="826" y1="135.6689" y2="135.6689"/><text fill="#000000" font-family="Monaco" font-size="14" font-weight="bold" lengthAdjust="spacingAndGlyphs" textLength="24" x="793" y="128.1689">gui</text><!--cluster redux--><polygon fill="#FFFFFF" filter="url(#f1xmfh0h7a6zip)" points="1302,696,1348,696,1355,720.6689,1360,720.6689,1360,775,1302,775,1302,696" style="stroke: #000000; stroke-width: 1.5;"/><line style="stroke: #000000; stroke-width: 1.5;" x1="1302" x2="1355" y1="720.6689" y2="720.6689"/><text fill="#000000" font-family="Monaco" font-size="14" font-weight="bold" lengthAdjust="spacingAndGlyphs" textLength="40" x="1306" y="713.1689">redux</text><!--cluster quarks.owa--><polygon fill="#FFFFFF" filter="url(#f1xmfh0h7a6zip)" points="14,513,100,513,107,537.6689,666,537.6689,666,797,14,797,14,513" style="stroke: #000000; stroke-width: 1.5;"/><line style="stroke: #000000; stroke-width: 1.5;" x1="14" x2="107" y1="537.6689" y2="537.6689"/><text fill="#000000" font-family="Monaco" font-size="14" font-weight="bold" lengthAdjust="spacingAndGlyphs" textLength="80" x="18" y="530.1689">quarks.owa</text><!--cluster quarks.supercollider_redux--><polygon fill="#FFFFFF" filter="url(#f1xmfh0h7a6zip)" points="421,820,635,820,642,844.6689,778,844.6689,778,899,421,899,421,820" style="stroke: #000000; stroke-width: 1.5;"/><line style="stroke: #000000; stroke-width: 1.5;" x1="421" x2="642" y1="844.6689" y2="844.6689"/><text fill="#000000" font-family="Monaco" font-size="14" font-weight="bold" lengthAdjust="spacingAndGlyphs" textLength="208" x="425" y="837.1689">quarks.supercollider_redux</text><!--class nodejs.owa.OWAController--><rect fill="#F0FFFF" filter="url(#f1xmfh0h7a6zip)" height="247.3604" id="nodejs.owa.OWAController" style="stroke: #A9A9A9; stroke-width: 1.5;" width="488" x="1027" y="45"/><text fill="#000000" font-family="Monaco" font-size="12" lengthAdjust="spacingAndGlyphs" textLength="91" x="1225.5" y="63.002">OWAController</text><line style="stroke: #A9A9A9; stroke-width: 1.5;" x1="1028" x2="1514" y1="71.002" y2="71.002"/><text fill="#000000" font-family="Monaco" font-size="11" lengthAdjust="spacingAndGlyphs" textLength="308" x="1033" y="86.9204">Top level entity for controlling everything.</text><text fill="#000000" font-family="Monaco" font-size="11" lengthAdjust="spacingAndGlyphs" textLength="280" x="1033" y="101.5889">Entry point, starts all sub-controllers.</text><text fill="#000000" font-family="Monaco" font-size="11" lengthAdjust="spacingAndGlyphs" textLength="0" x="1040" y="116.2573"/><text fill="#000000" font-family="Monaco" font-size="11" lengthAdjust="spacingAndGlyphs" textLength="0" x="1040" y="130.9258"/><text fill="#000000" font-family="Monaco" font-size="11" lengthAdjust="spacingAndGlyphs" textLength="196" x="1033" y="145.5942">Main state store for OWA app</text><text fill="#000000" font-family="Monaco" font-size="11" lengthAdjust="spacingAndGlyphs" textLength="140" x="1033" y="160.2627">redux.Store owaStore</text><text fill="#000000" font-family="Monaco" font-size="11" lengthAdjust="spacingAndGlyphs" textLength="0" x="1040" y="174.9312"/><text fill="#000000" font-family="Monaco" font-size="11" lengthAdjust="spacingAndGlyphs" textLength="0" x="1040" y="189.5996"/><text fill="#000000" font-family="Monaco" font-size="11" lengthAdjust="spacingAndGlyphs" textLength="476" x="1033" y="204.2681">A separate redux state store for the Ableton Link state.  It changes</text><text fill="#000000" font-family="Monaco" font-size="11" lengthAdjust="spacingAndGlyphs" textLength="441" x="1033" y="218.9365">very frequently and thus does not need to be in the same store.</text><text fill="#000000" font-family="Monaco" font-size="11" lengthAdjust="spacingAndGlyphs" textLength="147" x="1033" y="233.605">redux.Store linkStore</text><text fill="#000000" font-family="Monaco" font-size="11" lengthAdjust="spacingAndGlyphs" textLength="0" x="1040" y="248.2734"/><text fill="#000000" font-family="Monaco" font-size="11" lengthAdjust="spacingAndGlyphs" textLength="105" x="1033" y="262.9419">inputController</text><text fill="#000000" font-family="Monaco" font-size="11" lengthAdjust="spacingAndGlyphs" textLength="105" x="1033" y="277.6104">soundController</text><line style="stroke: #A9A9A9; stroke-width: 1.5;" x1="1028" x2="1514" y1="284.3604" y2="284.3604"/><!--class nodejs.owa.GUIInputController--><rect fill="#F0FFFF" filter="url(#f1xmfh0h7a6zip)" height="115.3442" id="nodejs.owa.GUIInputController" style="stroke: #A9A9A9; stroke-width: 1.5;" width="250" x="682" y="359.5"/><text fill="#000000" font-family="Monaco" font-size="12" lengthAdjust="spacingAndGlyphs" textLength="126" x="744" y="377.502">GUIInputController</text><line style="stroke: #A9A9A9; stroke-width: 1.5;" x1="683" x2="931" y1="385.502" y2="385.502"/><text fill="#000000" font-family="Monaco" font-size="11" lengthAdjust="spacingAndGlyphs" textLength="238" x="688" y="401.4204">Converts messages from gui UI into</text><text fill="#000000" font-family="Monaco" font-size="11" lengthAdjust="spacingAndGlyphs" textLength="133" x="688" y="416.0889">dispatched actions.</text><text fill="#000000" font-family="Monaco" font-size="11" lengthAdjust="spacingAndGlyphs" textLength="0" x="695" y="430.7573"/><text fill="#000000" font-family="Monaco" font-size="11" lengthAdjust="spacingAndGlyphs" textLength="119" x="688" y="445.4258">oscActionListener</text><text fill="#000000" font-family="Monaco" font-size="11" lengthAdjust="spacingAndGlyphs" textLength="35" x="688" y="460.0942">store</text><line style="stroke: #A9A9A9; stroke-width: 1.5;" x1="683" x2="931" y1="466.8442" y2="466.8442"/><ellipse cx="757" cy="168.5" fill="#F0FFFF" filter="url(#f1xmfh0h7a6zip)" rx="5" ry="5" style="stroke: #A9A9A9; stroke-width: 1.5;"/><text fill="#000000" font-family="Monaco" font-size="12" lengthAdjust="spacingAndGlyphs" textLength="70" x="722" y="186.502">GUI_OSC_IN</text><!--class nodejs.owa.OSCActionListener--><rect fill="#F0FFFF" filter="url(#f1xmfh0h7a6zip)" height="100.6758" id="nodejs.owa.OSCActionListener" style="stroke: #A9A9A9; stroke-width: 1.5;" width="369" x="837.5" y="542"/><text fill="#000000" font-family="Monaco" font-size="12" lengthAdjust="spacingAndGlyphs" textLength="119" x="962.5" y="560.002">OSCActionListener</text><line style="stroke: #A9A9A9; stroke-width: 1.5;" x1="838.5" x2="1205.5" y1="568.002" y2="568.002"/><text fill="#000000" font-family="Monaco" font-size="11" lengthAdjust="spacingAndGlyphs" textLength="357" x="843.5" y="583.9204">Forward actions from osc.js to a redux state store.</text><text fill="#000000" font-family="Monaco" font-size="11" lengthAdjust="spacingAndGlyphs" textLength="0" x="850.5" y="598.5889"/><text fill="#000000" font-family="Monaco" font-size="11" lengthAdjust="spacingAndGlyphs" textLength="35" x="843.5" y="613.2573">store</text><text fill="#000000" font-family="Monaco" font-size="11" lengthAdjust="spacingAndGlyphs" textLength="63" x="843.5" y="627.9258">oscSocket</text><line style="stroke: #A9A9A9; stroke-width: 1.5;" x1="838.5" x2="1205.5" y1="634.6758" y2="634.6758"/><!--class nodejs.owa.AbletonLinkController--><rect fill="#F0FFFF" filter="url(#f1xmfh0h7a6zip)" height="100.6758" id="nodejs.owa.AbletonLinkController" style="stroke: #A9A9A9; stroke-width: 1.5;" width="432" x="1512" y="366.5"/><text fill="#000000" font-family="Monaco" font-size="12" lengthAdjust="spacingAndGlyphs" textLength="147" x="1654.5" y="384.502">AbletonLinkController</text><line style="stroke: #A9A9A9; stroke-width: 1.5;" x1="1513" x2="1943" y1="392.502" y2="392.502"/><text fill="#000000" font-family="Monaco" font-size="11" lengthAdjust="spacingAndGlyphs" textLength="420" x="1518" y="408.4204">Creates an Ableton Link client and forwards the state to the</text><text fill="#000000" font-family="Monaco" font-size="11" lengthAdjust="spacingAndGlyphs" textLength="42" x="1518" y="423.0889">store.</text><text fill="#000000" font-family="Monaco" font-size="11" lengthAdjust="spacingAndGlyphs" textLength="0" x="1525" y="437.7573"/><text fill="#000000" font-family="Monaco" font-size="11" lengthAdjust="spacingAndGlyphs" textLength="63" x="1518" y="452.4258">linkStore</text><line style="stroke: #A9A9A9; stroke-width: 1.5;" x1="1513" x2="1943" y1="459.1758" y2="459.1758"/><!--class nodejs.owa.SoundController--><rect fill="#F0FFFF" filter="url(#f1xmfh0h7a6zip)" height="130.0127" id="nodejs.owa.SoundController" style="stroke: #A9A9A9; stroke-width: 1.5;" width="509" x="967.5" y="352"/><text fill="#000000" font-family="Monaco" font-size="12" lengthAdjust="spacingAndGlyphs" textLength="105" x="1169.5" y="370.002">SoundController</text><line style="stroke: #A9A9A9; stroke-width: 1.5;" x1="968.5" x2="1475.5" y1="378.002" y2="378.002"/><text fill="#000000" font-family="Monaco" font-size="11" lengthAdjust="spacingAndGlyphs" textLength="497" x="973.5" y="393.9204">Forwards state changes to SuperCollider and forwards dispatches from SC</text><text fill="#000000" font-family="Monaco" font-size="11" lengthAdjust="spacingAndGlyphs" textLength="91" x="973.5" y="408.5889">to the store.</text><text fill="#000000" font-family="Monaco" font-size="11" lengthAdjust="spacingAndGlyphs" textLength="0" x="980.5" y="423.2573"/><text fill="#000000" font-family="Monaco" font-size="11" lengthAdjust="spacingAndGlyphs" textLength="224" x="973.5" y="437.9258">OSCActionListener actionListener</text><text fill="#000000" font-family="Monaco" font-size="11" lengthAdjust="spacingAndGlyphs" textLength="35" x="973.5" y="452.5942">store</text><text fill="#000000" font-family="Monaco" font-size="11" lengthAdjust="spacingAndGlyphs" textLength="63" x="973.5" y="467.2627">linkStore</text><line style="stroke: #A9A9A9; stroke-width: 1.5;" x1="968.5" x2="1475.5" y1="474.0127" y2="474.0127"/><!--class nodejs.owa.gui.OWAUIApp--><rect fill="#F0FFFF" filter="url(#f1xmfh0h7a6zip)" height="56.6704" id="nodejs.owa.gui.OWAUIApp" style="stroke: #A9A9A9; stroke-width: 1.5;" width="173" x="797.5" y="140"/><text fill="#000000" font-family="Monaco" font-size="12" lengthAdjust="spacingAndGlyphs" textLength="56" x="856" y="158.002">OWAUIApp</text><line style="stroke: #A9A9A9; stroke-width: 1.5;" x1="798.5" x2="969.5" y1="166.002" y2="166.002"/><text fill="#000000" font-family="Monaco" font-size="11" lengthAdjust="spacingAndGlyphs" textLength="161" x="803.5" y="181.9204">Entry point for the GUI</text><line style="stroke: #A9A9A9; stroke-width: 1.5;" x1="798.5" x2="969.5" y1="188.6704" y2="188.6704"/><!--class redux.Store--><rect fill="#F0FFFF" filter="url(#f1xmfh0h7a6zip)" height="42.002" id="redux.Store" style="stroke: #A9A9A9; stroke-width: 1.5;" width="41" x="1310.5" y="725"/><text fill="#000000" font-family="Monaco" font-size="12" lengthAdjust="spacingAndGlyphs" textLength="35" x="1313.5" y="743.002">Store</text><line style="stroke: #A9A9A9; stroke-width: 1.5;" x1="1311.5" x2="1350.5" y1="751.002" y2="751.002"/><line style="stroke: #A9A9A9; stroke-width: 1.5;" x1="1311.5" x2="1350.5" y1="759.002" y2="759.002"/><!--class quarks.owa.OWAController--><rect fill="#F0FFFF" filter="url(#f1xmfh0h7a6zip)" height="100.6758" id="quarks.owa.OWAController" style="stroke: #A9A9A9; stroke-width: 1.5;" width="348" x="310" y="542"/><text fill="#000000" font-family="Monaco" font-size="12" lengthAdjust="spacingAndGlyphs" textLength="91" x="438.5" y="560.002">OWAController</text><line style="stroke: #A9A9A9; stroke-width: 1.5;" x1="311" x2="657" y1="568.002" y2="568.002"/><text fill="#000000" font-family="Monaco" font-size="11" lengthAdjust="spacingAndGlyphs" textLength="168" x="316" y="583.9204">StateStore owaStateStore</text><text fill="#000000" font-family="Monaco" font-size="11" lengthAdjust="spacingAndGlyphs" textLength="175" x="316" y="598.5889">StateStore linkStateStore</text><text fill="#000000" font-family="Monaco" font-size="11" lengthAdjust="spacingAndGlyphs" textLength="329" x="316" y="613.2573">SessionTimingController sessionTimingController</text><text fill="#000000" font-family="Monaco" font-size="11" lengthAdjust="spacingAndGlyphs" textLength="336" x="316" y="627.9258">ReduxAbletonTempoClockController clockController</text><line style="stroke: #A9A9A9; stroke-width: 1.5;" x1="311" x2="657" y1="634.6758" y2="634.6758"/><ellipse cx="270" cy="592.5" fill="#F0FFFF" filter="url(#f1xmfh0h7a6zip)" rx="5" ry="5" style="stroke: #A9A9A9; stroke-width: 1.5;"/><text fill="#000000" font-family="Monaco" font-size="12" lengthAdjust="spacingAndGlyphs" textLength="49" x="245.5" y="610.502">owa.api</text><!--class quarks.owa.SessionTimingController--><rect fill="#F0FFFF" filter="url(#f1xmfh0h7a6zip)" height="86.0073" id="quarks.owa.SessionTimingController" style="stroke: #A9A9A9; stroke-width: 1.5;" width="635" x="22.5" y="703"/><text fill="#000000" font-family="Monaco" font-size="12" lengthAdjust="spacingAndGlyphs" textLength="161" x="259.5" y="721.002">SessionTimingController</text><line style="stroke: #A9A9A9; stroke-width: 1.5;" x1="23.5" x2="656.5" y1="729.002" y2="729.002"/><text fill="#000000" font-family="Monaco" font-size="11" lengthAdjust="spacingAndGlyphs" textLength="336" x="28.5" y="744.9204">ReduxAbletonTempoClockController clockController</text><text fill="#000000" font-family="Monaco" font-size="11" lengthAdjust="spacingAndGlyphs" textLength="140" x="28.5" y="759.5889">StateStore linkStore</text><line style="stroke: #A9A9A9; stroke-width: 1.5;" x1="23.5" x2="656.5" y1="766.3389" y2="766.3389"/><text fill="#000000" font-family="Monaco" font-size="11" lengthAdjust="spacingAndGlyphs" textLength="623" x="28.5" y="782.2573">Handles scheduling the timing to transition phases (when?, can this be in reducers too ?)</text><!--class quarks.supercollider_redux.StateStore--><rect fill="#F0FFFF" filter="url(#f1xmfh0h7a6zip)" height="42.002" id="quarks.supercollider_redux.StateStore" style="stroke: #A9A9A9; stroke-width: 1.5;" width="76" x="429" y="849"/><text fill="#000000" font-family="Monaco" font-size="12" lengthAdjust="spacingAndGlyphs" textLength="70" x="432" y="867.002">StateStore</text><line style="stroke: #A9A9A9; stroke-width: 1.5;" x1="430" x2="504" y1="875.002" y2="875.002"/><line style="stroke: #A9A9A9; stroke-width: 1.5;" x1="430" x2="504" y1="883.002" y2="883.002"/><!--class quarks.supercollider_redux.ReduxAbletonTempoClockController--><rect fill="#F0FFFF" filter="url(#f1xmfh0h7a6zip)" height="42.002" id="quarks.supercollider_redux.ReduxAbletonTempoClockController" style="stroke: #A9A9A9; stroke-width: 1.5;" width="230" x="540" y="849"/><text fill="#000000" font-family="Monaco" font-size="12" lengthAdjust="spacingAndGlyphs" textLength="224" x="543" y="867.002">ReduxAbletonTempoClockController</text><line style="stroke: #A9A9A9; stroke-width: 1.5;" x1="541" x2="769" y1="875.002" y2="875.002"/><line style="stroke: #A9A9A9; stroke-width: 1.5;" x1="541" x2="769" y1="883.002" y2="883.002"/><!--link nodejs.owa.OWAController to redux.Store--><path d="M1528.2714,203.7318 C1701.6962,233.3612 1908.2931,282.1694 1962,352 C2144.4711,589.252 1479.4526,719.839 1351.8254,742.4502 " fill="none" id="nodejs.owa.OWAController-redux.Store" style="stroke: #000000; stroke-width: 1.0;"/><polygon fill="#000000" points="1515.3168,201.5434,1520.5666,206.487,1527.1491,203.5424,1521.8993,198.5988,1515.3168,201.5434" style="stroke: #000000; stroke-width: 1.0;"/><!--link nodejs.owa.OWAController to nodejs.owa.GUIInputController--><path d="M1028.7578,298.2353 C988.6497,319.7156 948.9505,340.9769 914.4678,359.4445 " fill="none" id="nodejs.owa.OWAController-nodejs.owa.GUIInputController" style="stroke: #000000; stroke-width: 1.0;"/><polygon fill="#FFFFFF" points="1040.3594,292.022,1033.1817,291.3286,1029.781,297.6874,1036.9587,298.3809,1040.3594,292.022" style="stroke: #000000; stroke-width: 1.0;"/><!--link nodejs.owa.GUIInputControllerlol9 to nodejs.owa.GUIInputController--><path d="M757.9817,173.6815 C761.2044,190.6632 771.7822,246.1759 781,292 C785.4368,314.0565 790.4426,338.2729 794.8687,359.4691 " fill="none" id="nodejs.owa.GUIInputControllerlol9-nodejs.owa.GUIInputController" style="stroke: #000000; stroke-width: 1.0;"/><!--link nodejs.owa.GUIInputController to nodejs.owa.OSCActionListener--><path d="M887.8012,482.9563 C911.6811,502.449 937.4375,523.4734 959.9388,541.8407 " fill="none" id="nodejs.owa.GUIInputController-nodejs.owa.OSCActionListener" style="stroke: #000000; stroke-width: 1.0;"/><polygon fill="#000000" points="877.6968,474.7083,879.8155,481.6011,886.993,482.2965,884.8743,475.4037,877.6968,474.7083" style="stroke: #000000; stroke-width: 1.0;"/><!--link nodejs.owa.GUIInputController to redux.Store--><path d="M939.0352,478.7546 C942.7059,479.9098 946.3652,480.9954 950,482 C1009.0631,498.3235 1174.952,476.2684 1224,513 C1277.2525,552.8803 1253.8406,590.723 1282,651 C1294.0177,676.7246 1309.1729,705.6336 1319.4227,724.732 " fill="none" id="nodejs.owa.GUIInputController-redux.Store" style="stroke: #000000; stroke-width: 1.0;"/><polygon fill="#000000" points="926.5308,474.5767,930.954,480.2719,937.9123,478.3795,933.4892,472.6843,926.5308,474.5767" style="stroke: #000000; stroke-width: 1.0;"/><!--link nodejs.owa.OSCActionListener to redux.Store--><path d="M1135.9495,649.106 C1200.4564,681.1507 1275.1125,718.2371 1310.4404,735.7867 " fill="none" id="nodejs.owa.OSCActionListener-redux.Store" style="stroke: #000000; stroke-width: 1.0;"/><polygon fill="#000000" points="1124.0345,643.1871,1127.6284,649.4388,1134.7815,648.5259,1131.1876,642.2742,1124.0345,643.1871" style="stroke: #000000; stroke-width: 1.0;"/><!--link nodejs.owa.OWAController to nodejs.owa.AbletonLinkController--><path d="M1509.7824,298.3412 C1554.255,322.5238 1598.2072,346.4234 1634.8822,366.3659 " fill="none" id="nodejs.owa.OWAController-nodejs.owa.AbletonLinkController" style="stroke: #000000; stroke-width: 1.0;"/><polygon fill="#000000" points="1498.1611,292.022,1501.5213,298.4023,1508.7033,297.7546,1505.343,291.3742,1498.1611,292.022" style="stroke: #000000; stroke-width: 1.0;"/><!--link nodejs.owa.AbletonLinkController to redux.Store--><path d="M1656.697,476.0899 C1564.0453,552.8718 1407.5167,682.5895 1351.61,728.9202 " fill="none" id="nodejs.owa.AbletonLinkController-redux.Store" style="stroke: #000000; stroke-width: 1.0;"/><polygon fill="#000000" points="1666.8388,467.6852,1659.6667,468.4339,1657.5992,475.3422,1664.7714,474.5936,1666.8388,467.6852" style="stroke: #000000; stroke-width: 1.0;"/><!--link nodejs.owa.OWAController to nodejs.owa.SoundController--><path d="M1244.0632,305.1081 C1240.8554,321.3759 1237.704,337.3584 1234.8317,351.9251 " fill="none" id="nodejs.owa.OWAController-nodejs.owa.SoundController" style="stroke: #000000; stroke-width: 1.0;"/><polygon fill="#000000" points="1246.6436,292.022,1241.5583,297.1347,1244.3219,303.7953,1249.4072,298.6825,1246.6436,292.022" style="stroke: #000000; stroke-width: 1.0;"/><!--link nodejs.owa.SoundController to nodejs.owa.OSCActionListener--><path d="M1137.973,490.7337 C1118.3905,507.9174 1097.9691,525.8372 1079.8179,541.7648 " fill="none" id="nodejs.owa.SoundController-nodejs.owa.OSCActionListener" style="stroke: #000000; stroke-width: 1.0;"/><polygon fill="#000000" points="1147.8116,482.1003,1140.6635,483.0512,1138.7919,490.0152,1145.9401,489.0643,1147.8116,482.1003" style="stroke: #000000; stroke-width: 1.0;"/><!--link nodejs.owa.SoundController to redux.Store--><path d="M1276.7878,493.6063 C1280.2085,500.0071 1283.3385,506.514 1286,513 C1316.4202,587.1332 1326.5919,683.1165 1329.7235,724.955 " fill="none" id="nodejs.owa.SoundController-redux.Store" style="stroke: #000000; stroke-width: 1.0;"/><polygon fill="#000000" points="1270.355,482.2267,1269.8254,489.4183,1276.2602,492.6732,1276.7898,485.4815,1270.355,482.2267" style="stroke: #000000; stroke-width: 1.0;"/><!--link nodejs.owa.SoundController to quarks.owa.OWAController--><path d="M967.382,478.8728 C961.5407,479.9602 955.7406,481.0048 950,482 C824.8939,503.6876 788.6953,480.3237 666,513 C640.6985,519.7383 614.3933,529.4742 589.9061,539.8365 " fill="none" id="nodejs.owa.SoundController-quarks.owa.OWAController" style="stroke: #000000; stroke-width: 1.0;"/><polygon fill="#000000" points="585.0337,541.9166,594.8815,542.0614,589.6321,539.9533,591.7402,534.7039,585.0337,541.9166" style="stroke: #000000; stroke-width: 1.0;"/><text fill="#000000" font-family="Monaco" font-size="13" lengthAdjust="spacingAndGlyphs" textLength="56" x="903.1389" y="501.3394">owa.api</text><!--link nodejs.owa.gui.OWAUIApp to nodejs.owa.GUIInputController--><path d="M875.1671,197.0061 C863.3422,235.1683 842.0433,303.9058 826.3904,354.4219 " fill="none" id="nodejs.owa.gui.OWAUIApp-nodejs.owa.GUIInputController" style="stroke: #000000; stroke-width: 1.0;"/><polygon fill="#000000" points="824.8937,359.252,831.3782,351.8391,826.3736,354.476,823.7366,349.4713,824.8937,359.252" style="stroke: #000000; stroke-width: 1.0;"/><text fill="#000000" font-family="Monaco" font-size="13" lengthAdjust="spacingAndGlyphs" textLength="80" x="785.0953" y="218.7926">GUI_OSC_IN</text><!--link quarks.owa.OWAController to quarks.supercollider_redux.StateStore--><path d="M632.6469,650.7115 C649.4796,663.1974 664.3731,678.1546 675,696 C697.9673,734.5683 704.2871,762.9812 675,797 C630.1359,849.1125 584.1111,790.4923 522,820 C507.7796,826.7558 494.6219,838.4281 484.7436,848.7965 " fill="none" id="quarks.owa.OWAController-quarks.supercollider_redux.StateStore" style="stroke: #000000; stroke-width: 1.0;"/><polygon fill="#000000" points="621.9363,643.253,624.5742,649.9643,631.7838,650.1106,629.1459,643.3993,621.9363,643.253" style="stroke: #000000; stroke-width: 1.0;"/><!--link quarks.owa.OWAController to quarks.supercollider_redux.ReduxAbletonTempoClockController--><path d="M638.7087,648.3912 C672.3868,663.7385 700.9931,680.4394 711,696 C735.2803,733.7555 725.4263,754.4924 711,797 C704.2752,816.8148 689.7689,835.4659 677.2059,848.9556 " fill="none" id="quarks.owa.OWAController-quarks.supercollider_redux.ReduxAbletonTempoClockController" style="stroke: #000000; stroke-width: 1.0;"/><polygon fill="#000000" points="626.607,643.0232,630.4697,649.1125,637.5762,647.889,633.7135,641.7997,626.607,643.0232" style="stroke: #000000; stroke-width: 1.0;"/><!--link quarks.owa.OWAControllerlol34 to quarks.owa.OWAController--><path d="M275.0156,592.5 C286.5805,592.5 298.1454,592.5 309.7103,592.5 " fill="none" id="quarks.owa.OWAControllerlol34-quarks.owa.OWAController" style="stroke: #000000; stroke-width: 1.0;"/><!--link quarks.owa.OWAController to quarks.owa.SessionTimingController--><path d="M427.3738,652.8619 C411.7188,669.5498 395.0466,687.3218 380.508,702.8196 " fill="none" id="quarks.owa.OWAController-quarks.owa.SessionTimingController" style="stroke: #000000; stroke-width: 1.0;"/><polygon fill="#000000" points="436.4499,643.1871,429.4276,644.8263,428.2398,651.9389,435.2621,650.2997,436.4499,643.1871" style="stroke: #000000; stroke-width: 1.0;"/><!--link quarks.owa.SessionTimingController to quarks.supercollider_redux.ReduxAbletonTempoClockController--><path d="M461.4929,793.8258 C509.9544,812.9027 563.2214,833.8713 601.5785,848.9706 " fill="none" id="quarks.owa.SessionTimingController-quarks.supercollider_redux.ReduxAbletonTempoClockController" style="stroke: #000000; stroke-width: 1.0;"/><polygon fill="#000000" points="449.2877,789.0212,453.4055,794.941,460.4537,793.4168,456.3359,787.497,449.2877,789.0212" style="stroke: #000000; stroke-width: 1.0;"/><!--link quarks.owa.SessionTimingController to quarks.supercollider_redux.StateStore--><path d="M393.4838,798.2204 C411.7623,816.0672 431.1767,835.0229 445.4618,848.9706 " fill="none" id="quarks.owa.SessionTimingController-quarks.supercollider_redux.StateStore" style="stroke: #000000; stroke-width: 1.0;"/><polygon fill="#000000" points="384.062,789.0212,385.5606,796.0749,392.6481,797.4045,391.1495,790.3508,384.062,789.0212" style="stroke: #000000; stroke-width: 1.0;"/><!--
@startuml
skinparam backgroundColor transparent
skinparam defaultFontName Monaco
hide circle
skinparam class {
  backgroundColor Azure
  borderColor DarkGrey
  arrowColor Black
  fontColor Black
}
skinparam object {
  backgroundColor Azure
  borderColor DarkGrey
  arrowColor Black
  fontColor Black
}
skinparam state {
  backgroundColor Azure
  borderColor DarkGrey
  arrowColor Black
  fontColor Black
}
skinparam sequenceParticipant {
  backgroundColor Azure
  borderColor DarkGrey
}
skinparam sequenceLifeLine {
  borderColor DarkGrey
}
skinparam sequence {
  arrowColor Black
}
skinparam component {
  backgroundColor Azure
  borderColor DarkGrey
}
skinparam interface {
  backgroundColor Azure
  borderColor DarkGrey
}

namespace nodejs.owa {
  class OWAController {
    Top level entity for controlling everything.
    Entry point, starts all sub-controllers.
    \n
    Main state store for OWA app
    redux.Store owaStore
    \n
    A separate redux state store for the Ableton Link state.  It changes
    very frequently and thus does not need to be in the same store.
    redux.Store linkStore

    inputController
    soundController
  }
  OWAController *- - redux.Store

  class GUIInputController {
    
    Converts messages from gui UI into
    dispatched actions.

    oscActionListener
    store
  }
  OWAController o- - GUIInputController
  GUI_OSC_IN ()- - GUIInputController
  GUIInputController *- - OSCActionListener
  GUIInputController *- - redux.Store
  

  class OSCActionListener {
    Forward actions from osc.js to a redux state store.

    store
    oscSocket
  }
  OSCActionListener *- - redux.Store

  class AbletonLinkController {
    Creates an Ableton Link client and forwards the state to the
    store.

    linkStore
  }
  OWAController *- - AbletonLinkController
  AbletonLinkController *- - redux.Store

  class SoundController {
    Forwards state changes to SuperCollider and forwards dispatches from SC
    to the store.

    OSCActionListener actionListener
    store
    linkStore
  }
  OWAController *- - SoundController
  SoundController *- - OSCActionListener
  SoundController *- - redux.Store
  SoundController "owa.api" -down-> quarks.owa.OWAController



  namespace gui {
    class OWAUIApp {
      Entry point for the GUI
    }
    OWAUIApp "GUI_OSC_IN" - -> nodejs.owa.GUIInputController
  }

}

package quarks.owa {
  class OWAController {
    StateStore owaStateStore
    StateStore linkStateStore
    SessionTimingController sessionTimingController
    ReduxAbletonTempoClockController clockController
  }
  OWAController *- - quarks.supercollider_redux.StateStore
  OWAController *- - quarks.supercollider_redux.ReduxAbletonTempoClockController
  owa.api ()- OWAController

  class SessionTimingController {
    Handles scheduling the timing to transition phases (when?, can this be in reducers too ?)
    
    ReduxAbletonTempoClockController clockController
    StateStore linkStore
  }
  OWAController *- - SessionTimingController
  SessionTimingController *- - quarks.supercollider_redux.ReduxAbletonTempoClockController
  SessionTimingController *- - quarks.supercollider_redux.StateStore
}


@enduml

PlantUML version 1.2018.01(Sun Jan 28 10:08:22 PST 2018)
(GPL source distribution)
Java Runtime: Java(TM) SE Runtime Environment
JVM: Java HotSpot(TM) 64-Bit Server VM
Java Version: 9.0.4+11
Operating System: Mac OS X
OS Version: 10.11.6
Default Encoding: UTF-8
Language: en
Country: US
--></g></svg>